<?xml version="1.0" standalone="no"?><!DOCTYPE svg PUBLIC "-//W3C//DTD SVG 1.1//EN" 	"http://www.w3.org/Graphics/SVG/1.1/DTD/svg11.dtd"><svg width="1315" height="649" version="1.1"	xmlns="http://www.w3.org/2000/svg"><title>Krona (snapshot) - all</title><defs>	<style type="text/css">	text {font-size: 11px; font-family: sans-serif; dominant-baseline:central}	path {stroke-width:0.27499999999999997;}	path.wedge {stroke:none}	path.line {fill:none;stroke:black;}	line {stroke:black;stroke-width:0.27499999999999997;}	line.tick {stroke-width:0.5499999999999999;}	line.pattern {stroke-width:0.18333333333333332;}	circle {fill:none;stroke:black;stroke-width:0.27499999999999997;}	rect {stroke:black;stroke-width:0.27499999999999997;}	.highlight {stroke:black;stroke-width:1.375;}	.searchHighlight {fill:rgb(255, 255, 100);stroke:none;}	</style><pattern id="hiddenPattern" patternUnits="userSpaceOnUse" x="0" y="0" width="6.6" height="6.6"><line class="pattern" x1="0" y1="0" x2="3.3" y2="3.3"/><line class="pattern" x1="3.3" y1="6.6" x2="6.6" y2="3.3"/></pattern></defs><path class="wedge" fill="rgb(207,112,112)" d=" M 582.5,389.4 L 582.5,584.1 A 259.6,259.6 0 1,1 609.1849425499694,66.27514867638155 L 589.1712356374924,259.9437871690954 A 64.9,64.9 0 1 0 582.5,389.4 Z "/><path class="wedge" fill="rgb(211,123,123)" d=" M 582.5,428.2209582838001 L 582.5,584.1 A 259.6,259.6 0 1,1 600.1567694566984,65.50116121427686 L 589.5546111257507,221.01923053448903 A 103.72095828380007,103.72095828380007 0 1 0 582.5,428.2209582838001 Z "/><path class="wedge" fill="rgb(214,134,134)" d=" M 582.5,460.0475693398276 L 582.5,584.1 A 259.6,259.6 0 0,1 547.2682373960545,67.30186061361326 L 564.1040840349666,190.20653839541257 A 135.5475693398276,135.5475693398276 0 0 0 582.5,460.0475693398276 Z "/><path class="wedge" fill="rgb(214,134,134)" d=" M 582.5,460.0475693398276 L 582.5,584.1 A 259.6,259.6 0 0,1 547.2682373960545,67.30186061361326 L 564.1040840349666,190.20653839541257 A 135.5475693398276,135.5475693398276 0 0 0 582.5,460.0475693398276 Z "/><path class="wedge" fill="rgb(214,134,134)" d=" M 582.5,460.0475693398276 L 582.5,584.1 A 259.6,259.6 0 0,1 547.2682373960545,67.30186061361326 L 564.1040840349666,190.20653839541257 A 135.5475693398276,135.5475693398276 0 0 0 582.5,460.0475693398276 Z "/><path class="wedge" fill="rgb(214,134,134)" d=" M 582.5,460.0475693398276 L 582.5,584.1 A 259.6,259.6 0 0,1 547.2682373960545,67.30186061361326 L 564.1040840349666,190.20653839541257 A 135.5475693398276,135.5475693398276 0 0 0 582.5,460.0475693398276 Z "/><path class="wedge" fill="rgb(218,145,145)" d=" M 582.5,486.6098462529119 L 582.5,584.1 A 259.6,259.6 0 0,1 526.3122762216685,71.05355655166528 L 547.4130074614545,166.23280438845583 A 162.1098462529119,162.1098462529119 0 0 0 582.5,486.6098462529119 Z "/><path class="wedge" fill="rgb(218,176,145)" d=" M 547.4130074614545,166.23280438845583 L 526.3122762216685,71.05355655166528 A 259.6,259.6 0 0,1 546.8193958487566,67.36374334333499 L 560.2188857736168,163.9286632023835 A 162.1098462529119,162.1098462529119 0 0 0 547.4130074614545,166.23280438845583 Z "/><path class="wedge" fill="rgb(218,177,145)" d=" M 560.2188857736168,163.9286632023835 L 546.8193958487566,67.36374334333499 A 259.6,259.6 0 0,1 547.2682373960545,67.30186061361326 L 560.499169418549,163.8900199057698 A 162.1098462529119,162.1098462529119 0 0 0 560.2188857736168,163.9286632023835 Z "/><path class="wedge" fill="url(#hiddenPattern)" d=" M 560.2188857736168,163.9286632023835 L 546.8193958487566,67.36374334333499 A 259.6,259.6 0 0,1 547.2682373960545,67.30186061361326 L 560.499169418549,163.8900199057698 A 162.1098462529119,162.1098462529119 0 0 0 560.2188857736168,163.9286632023835 Z "/><path class="wedge" fill="rgb(214,171,134)" d=" M 564.1040840349666,190.20653839541257 L 547.2682373960545,67.30186061361326 A 259.6,259.6 0 0,1 600.1567694566984,65.50116121427686 L 591.7193073276162,189.2663210352749 A 135.5475693398276,135.5475693398276 0 0 0 564.1040840349666,190.20653839541257 Z "/><path class="wedge" fill="rgb(218,179,145)" d=" M 560.499169418549,163.8900199057698 L 547.2682373960545,67.30186061361326 A 259.6,259.6 0 0,1 599.7047045438401,65.47073883138381 L 593.2436518044249,162.74655738424605 A 162.1098462529119,162.1098462529119 0 0 0 560.499169418549,163.8900199057698 Z "/><path class="wedge" fill="rgb(218,179,145)" d=" M 560.499169418549,163.8900199057698 L 547.2682373960545,67.30186061361326 A 259.6,259.6 0 0,1 599.7047045438401,65.47073883138381 L 593.2436518044249,162.74655738424605 A 162.1098462529119,162.1098462529119 0 0 0 560.499169418549,163.8900199057698 Z "/><path class="wedge" fill="rgb(218,179,145)" d=" M 560.499169418549,163.8900199057698 L 547.2682373960545,67.30186061361326 A 259.6,259.6 0 0,1 599.7047045438401,65.47073883138381 L 593.2436518044249,162.74655738424605 A 162.1098462529119,162.1098462529119 0 0 0 560.499169418549,163.8900199057698 Z "/><path class="wedge" fill="rgb(222,186,156)" d=" M 557.4453083038376,141.5962900836849 L 547.2682373960545,67.30186061361326 A 259.6,259.6 0 0,1 570.2711653957767,65.18818845987255 L 573.8035948766906,140.0931747058353 A 184.61176743951427,184.61176743951427 0 0 0 557.4453083038376,141.5962900836849 Z "/><path class="wedge" fill="rgb(222,187,156)" d=" M 573.8035948766906,140.0931747058353 L 570.2711653957767,65.18818845987255 A 259.6,259.6 0 0,1 587.030644711119,64.93953833740079 L 585.7219195984597,139.91634982685395 A 184.61176743951427,184.61176743951427 0 0 0 573.8035948766906,140.0931747058353 Z "/><path class="wedge" fill="rgb(222,188,156)" d=" M 585.7219195984597,139.91634982685395 L 587.030644711119,64.93953833740079 A 259.6,259.6 0 0,1 599.7047045438401,65.47073883138381 L 594.7349418879544,140.2941073848622 A 184.61176743951427,184.61176743951427 0 0 0 585.7219195984597,139.91634982685395 Z "/><path class="wedge" fill="url(#hiddenPattern)" d=" M 585.7219195984597,139.91634982685395 L 587.030644711119,64.93953833740079 A 259.6,259.6 0 0,1 599.7047045438401,65.47073883138381 L 594.7349418879544,140.2941073848622 A 184.61176743951427,184.61176743951427 0 0 0 585.7219195984597,139.91634982685395 Z "/><path class="wedge" fill="rgb(214,173,134)" d=" M 593.2436518044249,162.74655738424605 L 599.7047045438401,65.47073883138381 A 259.6,259.6 0 0,1 600.1567694566984,65.50116121427686 L 593.5259483125905,162.76555494901274 A 162.1098462529119,162.1098462529119 0 0 0 593.2436518044249,162.74655738424605 Z "/><path class="wedge" fill="url(#hiddenPattern)" d=" M 593.2436518044249,162.74655738424605 L 599.7047045438401,65.47073883138381 A 259.6,259.6 0 0,1 600.1567694566984,65.50116121427686 L 593.5259483125905,162.76555494901274 A 162.1098462529119,162.1098462529119 0 0 0 593.2436518044249,162.74655738424605 Z "/><path class="wedge" fill="rgb(207,160,112)" d=" M 589.5546111257507,221.01923053448903 L 600.1567694566984,65.50116121427686 A 259.6,259.6 0 0,1 609.1849425499694,66.27514867638155 L 593.161740419996,221.3284706010112 A 103.72095828380007,103.72095828380007 0 0 0 589.5546111257507,221.01923053448903 Z "/><path class="wedge" fill="url(#hiddenPattern)" d=" M 589.5546111257507,221.01923053448903 L 600.1567694566984,65.50116121427686 A 259.6,259.6 0 0,1 609.1849425499694,66.27514867638155 L 593.161740419996,221.3284706010112 A 103.72095828380007,103.72095828380007 0 0 0 589.5546111257507,221.01923053448903 Z "/><path class="wedge" fill="rgb(112,207,207)" d=" M 589.1712356374924,259.9437871690954 L 609.1849425499694,66.27514867638155 A 259.6,259.6 0 0,1 582.5000000000001,584.1 L 582.5,389.4 A 64.9,64.9 0 0 0 589.1712356374924,259.9437871690954 Z "/><path class="wedge" fill="rgb(123,211,211)" d=" M 593.161740419996,221.3284706010112 L 609.1849425499694,66.27514867638155 A 259.6,259.6 0 0,1 779.0159164471959,154.87201120416853 L 661.0162525882987,256.7265887917668 A 103.72095828380007,103.72095828380007 0 0 0 593.161740419996,221.3284706010112 Z "/><path class="wedge" fill="rgb(123,211,211)" d=" M 593.161740419996,221.3284706010112 L 609.1849425499694,66.27514867638155 A 259.6,259.6 0 0,1 779.0159164471959,154.87201120416853 L 661.0162525882987,256.7265887917668 A 103.72095828380007,103.72095828380007 0 0 0 593.161740419996,221.3284706010112 Z "/><path class="wedge" fill="rgb(134,214,214)" d=" M 596.4332785077862,189.670450924288 L 609.1849425499694,66.27514867638155 A 259.6,259.6 0 0,1 718.5267411898326,103.39168789646484 L 653.5250159225717,209.0504843356465 A 135.5475693398276,135.5475693398276 0 0 0 596.4332785077862,189.670450924288 Z "/><path class="wedge" fill="rgb(145,218,218)" d=" M 599.1636823345275,163.24887924979657 L 609.1849425499694,66.27514867638155 A 259.6,259.6 0 0,1 655.7958421964107,75.46209220940102 L 628.2703301596218,168.98575907904143 A 162.1098462529119,162.1098462529119 0 0 0 599.1636823345275,163.24887924979657 Z "/><path class="wedge" fill="rgb(156,222,222)" d=" M 601.476711895885,140.86615485493456 L 609.1849425499694,66.27514867638155 A 259.6,259.6 0 0,1 647.498649052533,73.1688725578432 L 628.7230950800032,145.7685529674023 A 184.61176743951427,184.61176743951427 0 0 0 601.476711895885,140.86615485493456 Z "/><path class="wedge" fill="rgb(156,222,222)" d=" M 601.476711895885,140.86615485493456 L 609.1849425499694,66.27514867638155 A 259.6,259.6 0 0,1 647.498649052533,73.1688725578432 L 628.7230950800032,145.7685529674023 A 184.61176743951427,184.61176743951427 0 0 0 601.476711895885,140.86615485493456 Z "/><path class="wedge" fill="rgb(145,216,218)" d=" M 628.7230950800032,145.7685529674023 L 647.498649052533,73.1688725578432 A 259.6,259.6 0 0,1 655.7958421964107,75.46209220940102 L 634.6235553692107,147.39935163073477 A 184.61176743951427,184.61176743951427 0 0 0 628.7230950800032,145.7685529674023 Z "/><path class="wedge" fill="url(#hiddenPattern)" d=" M 628.7230950800032,145.7685529674023 L 647.498649052533,73.1688725578432 A 259.6,259.6 0 0,1 655.7958421964107,75.46209220940102 L 634.6235553692107,147.39935163073477 A 184.61176743951427,184.61176743951427 0 0 0 628.7230950800032,145.7685529674023 Z "/><path class="wedge" fill="rgb(145,216,218)" d=" M 628.2703301596218,168.98575907904143 L 655.7958421964107,75.46209220940102 A 259.6,259.6 0 0,1 688.5025875150076,87.5282475903021 L 648.694388152807,176.52059187434813 A 162.1098462529119,162.1098462529119 0 0 0 628.2703301596218,168.98575907904143 Z "/><path class="wedge" fill="rgb(145,216,218)" d=" M 628.2703301596218,168.98575907904143 L 655.7958421964107,75.46209220940102 A 259.6,259.6 0 0,1 688.5025875150076,87.5282475903021 L 648.694388152807,176.52059187434813 A 162.1098462529119,162.1098462529119 0 0 0 628.2703301596218,168.98575907904143 Z "/><path class="wedge" fill="rgb(145,216,218)" d=" M 628.2703301596218,168.98575907904143 L 655.7958421964107,75.46209220940102 A 259.6,259.6 0 0,1 688.5025875150076,87.5282475903021 L 648.694388152807,176.52059187434813 A 162.1098462529119,162.1098462529119 0 0 0 628.2703301596218,168.98575907904143 Z "/><path class="wedge" fill="rgb(145,214,218)" d=" M 648.694388152807,176.52059187434813 L 688.5025875150076,87.5282475903021 A 259.6,259.6 0 0,1 716.9798116332645,102.44743806233242 L 666.4772788443338,185.8370312951445 A 162.1098462529119,162.1098462529119 0 0 0 648.694388152807,176.52059187434813 Z "/><path class="wedge" fill="rgb(156,218,222)" d=" M 657.8826079903981,155.98006916181316 L 688.5025875150076,87.5282475903021 A 259.6,259.6 0 0,1 704.3748176992171,95.2868048938225 L 669.1699749684941,161.49748432584883 A 184.61176743951427,184.61176743951427 0 0 0 657.8826079903981,155.98006916181316 Z "/><path class="wedge" fill="rgb(156,218,222)" d=" M 657.8826079903981,155.98006916181316 L 688.5025875150076,87.5282475903021 A 259.6,259.6 0 0,1 704.3748176992171,95.2868048938225 L 669.1699749684941,161.49748432584883 A 184.61176743951427,184.61176743951427 0 0 0 657.8826079903981,155.98006916181316 Z "/><path class="wedge" fill="rgb(145,213,218)" d=" M 669.1699749684941,161.49748432584883 L 704.3748176992171,95.2868048938225 A 259.6,259.6 0 0,1 716.9798116332645,102.44743806233242 L 678.1338817817793,166.58969212717633 A 184.61176743951427,184.61176743951427 0 0 0 669.1699749684941,161.49748432584883 Z "/><path class="wedge" fill="url(#hiddenPattern)" d=" M 669.1699749684941,161.49748432584883 L 704.3748176992171,95.2868048938225 A 259.6,259.6 0 0,1 716.9798116332645,102.44743806233242 L 678.1338817817793,166.58969212717633 A 184.61176743951427,184.61176743951427 0 0 0 669.1699749684941,161.49748432584883 Z "/><path class="wedge" fill="rgb(134,209,214)" d=" M 666.4772788443338,185.8370312951445 L 716.9798116332645,102.44743806233242 A 259.6,259.6 0 0,1 718.5267411898326,103.39168789646484 L 667.4432746555023,186.42667765660656 A 162.1098462529119,162.1098462529119 0 0 0 666.4772788443338,185.8370312951445 Z "/><path class="wedge" fill="url(#hiddenPattern)" d=" M 666.4772788443338,185.8370312951445 L 716.9798116332645,102.44743806233242 A 259.6,259.6 0 0,1 718.5267411898326,103.39168789646484 L 667.4432746555023,186.42667765660656 A 162.1098462529119,162.1098462529119 0 0 0 666.4772788443338,185.8370312951445 Z "/><path class="wedge" fill="rgb(134,209,214)" d=" M 653.5250159225717,209.0504843356465 L 718.5267411898326,103.39168789646484 A 259.6,259.6 0 0,1 754.8552448045219,130.37161570658108 L 672.4935843460088,223.13778647595956 A 135.5475693398276,135.5475693398276 0 0 0 653.5250159225717,209.0504843356465 Z "/><path class="wedge" fill="rgb(145,213,218)" d=" M 667.4432746555023,186.42667765660656 L 718.5267411898326,103.39168789646484 A 259.6,259.6 0 0,1 733.9872984680482,113.6831164188871 L 677.0977760551782,192.85326431104687 A 162.1098462529119,162.1098462529119 0 0 0 667.4432746555023,186.42667765660656 Z "/><path class="wedge" fill="rgb(156,217,222)" d=" M 679.2339642145314,167.26118531201323 L 718.5267411898326,103.39168789646484 A 259.6,259.6 0 0,1 731.4004428767316,111.84812930257772 L 688.3889596764246,173.27489330211796 A 184.61176743951427,184.61176743951427 0 0 0 679.2339642145314,167.26118531201323 Z "/><path class="wedge" fill="rgb(156,217,222)" d=" M 679.2339642145314,167.26118531201323 L 718.5267411898326,103.39168789646484 A 259.6,259.6 0 0,1 731.4004428767316,111.84812930257772 L 688.3889596764246,173.27489330211796 A 184.61176743951427,184.61176743951427 0 0 0 679.2339642145314,167.26118531201323 Z "/><path class="wedge" fill="rgb(145,212,218)" d=" M 688.3889596764246,173.27489330211796 L 731.4004428767316,111.84812930257772 A 259.6,259.6 0 0,1 733.9872984680482,113.6831164188871 L 690.228574402248,174.57982479198935 A 184.61176743951427,184.61176743951427 0 0 0 688.3889596764246,173.27489330211796 Z "/><path class="wedge" fill="url(#hiddenPattern)" d=" M 688.3889596764246,173.27489330211796 L 731.4004428767316,111.84812930257772 A 259.6,259.6 0 0,1 733.9872984680482,113.6831164188871 L 690.228574402248,174.57982479198935 A 184.61176743951427,184.61176743951427 0 0 0 688.3889596764246,173.27489330211796 Z "/><path class="wedge" fill="rgb(134,207,214)" d=" M 677.0977760551782,192.85326431104687 L 733.9872984680482,113.6831164188871 A 259.6,259.6 0 0,1 754.8552448045219,130.37161570658108 L 690.128976256333,203.2745665210619 A 162.1098462529119,162.1098462529119 0 0 0 677.0977760551782,192.85326431104687 Z "/><path class="wedge" fill="url(#hiddenPattern)" d=" M 677.0977760551782,192.85326431104687 L 733.9872984680482,113.6831164188871 A 259.6,259.6 0 0,1 754.8552448045219,130.37161570658108 L 690.128976256333,203.2745665210619 A 162.1098462529119,162.1098462529119 0 0 0 677.0977760551782,192.85326431104687 Z "/><path class="wedge" fill="rgb(134,206,214)" d=" M 672.4935843460088,223.13778647595956 L 754.8552448045219,130.37161570658108 A 259.6,259.6 0 0,1 770.1822710781239,145.14692608444759 L 680.4964393405944,230.8525684788923 A 135.5475693398276,135.5475693398276 0 0 0 672.4935843460088,223.13778647595956 Z "/><path class="wedge" fill="rgb(145,211,218)" d=" M 690.128976256333,203.2745665210619 L 754.8552448045219,130.37161570658108 A 259.6,259.6 0 0,1 769.5550685922137,144.49288537959885 L 699.3084299318631,212.0927362267199 A 162.1098462529119,162.1098462529119 0 0 0 690.128976256333,203.2745665210619 Z "/><path class="wedge" fill="rgb(145,211,218)" d=" M 690.128976256333,203.2745665210619 L 754.8552448045219,130.37161570658108 A 259.6,259.6 0 0,1 769.5550685922137,144.49288537959885 L 699.3084299318631,212.0927362267199 A 162.1098462529119,162.1098462529119 0 0 0 690.128976256333,203.2745665210619 Z "/><path class="wedge" fill="rgb(156,215,222)" d=" M 705.0685915671531,186.44767282517216 L 754.8552448045219,130.37161570658108 A 259.6,259.6 0 0,1 768.6099937460654,143.515939298955 L 714.8501343744917,195.79511816486806 A 184.61176743951427,184.61176743951427 0 0 0 705.0685915671531,186.44767282517216 Z "/><path class="wedge" fill="rgb(156,214,222)" d=" M 714.8501343744917,195.79511816486806 L 768.6099937460654,143.515939298955 A 259.6,259.6 0 0,1 769.5550685922137,144.49288537959885 L 715.5222142578125,196.48986293621155 A 184.61176743951427,184.61176743951427 0 0 0 714.8501343744917,195.79511816486806 Z "/><path class="wedge" fill="url(#hiddenPattern)" d=" M 714.8501343744917,195.79511816486806 L 768.6099937460654,143.515939298955 A 259.6,259.6 0 0,1 769.5550685922137,144.49288537959885 L 715.5222142578125,196.48986293621155 A 184.61176743951427,184.61176743951427 0 0 0 714.8501343744917,195.79511816486806 Z "/><path class="wedge" fill="rgb(134,205,214)" d=" M 699.3084299318631,212.0927362267199 L 769.5550685922137,144.49288537959885 A 259.6,259.6 0 0,1 770.1822710781239,145.14692608444759 L 699.7000928693067,212.50115856148943 A 162.1098462529119,162.1098462529119 0 0 0 699.3084299318631,212.0927362267199 Z "/><path class="wedge" fill="url(#hiddenPattern)" d=" M 699.3084299318631,212.0927362267199 L 769.5550685922137,144.49288537959885 A 259.6,259.6 0 0,1 770.1822710781239,145.14692608444759 L 699.7000928693067,212.50115856148943 A 162.1098462529119,162.1098462529119 0 0 0 699.3084299318631,212.0927362267199 Z "/><path class="wedge" fill="rgb(123,200,211)" d=" M 680.4964393405944,230.8525684788923 L 770.1822710781239,145.14692608444759 A 259.6,259.6 0 0,1 779.0159164471959,154.87201120416853 L 685.1088397958631,235.93042537257912 A 135.5475693398276,135.5475693398276 0 0 0 680.4964393405944,230.8525684788923 Z "/><path class="wedge" fill="url(#hiddenPattern)" d=" M 680.4964393405944,230.8525684788923 L 770.1822710781239,145.14692608444759 A 259.6,259.6 0 0,1 779.0159164471959,154.87201120416853 L 685.1088397958631,235.93042537257912 A 135.5475693398276,135.5475693398276 0 0 0 680.4964393405944,230.8525684788923 Z "/><path class="wedge" fill="rgb(123,200,211)" d=" M 661.0162525882987,256.7265887917668 L 779.0159164471959,154.87201120416853 A 259.6,259.6 0 0,1 841.7675451250147,311.36607275608526 L 686.0881287837246,319.2524517728485 A 103.72095828380007,103.72095828380007 0 0 0 661.0162525882987,256.7265887917668 Z "/><path class="wedge" fill="rgb(123,200,211)" d=" M 661.0162525882987,256.7265887917668 L 779.0159164471959,154.87201120416853 A 259.6,259.6 0 0,1 841.7675451250147,311.36607275608526 L 686.0881287837246,319.2524517728485 A 103.72095828380007,103.72095828380007 0 0 0 661.0162525882987,256.7265887917668 Z "/><path class="wedge" fill="rgb(134,204,214)" d=" M 685.1088397958631,235.93042537257912 L 779.0159164471959,154.87201120416853 A 259.6,259.6 0 0,1 839.636256656665,288.8193958487568 L 716.7611501500501,305.8697258656488 A 135.5475693398276,135.5475693398276 0 0 0 685.1088397958631,235.93042537257912 Z "/><path class="wedge" fill="rgb(145,209,218)" d=" M 705.2163520859207,218.57408634867915 L 779.0159164471959,154.87201120416853 A 259.6,259.6 0 0,1 817.3931028201787,213.96769590970706 L 729.1813743607419,255.47698450671226 A 162.1098462529119,162.1098462529119 0 0 0 705.2163520859207,218.57408634867915 Z "/><path class="wedge" fill="rgb(156,214,222)" d=" M 722.2501951668442,203.87086741599165 L 779.0159164471959,154.87201120416853 A 259.6,259.6 0 0,1 810.4243804211037,200.23159367861842 L 744.5859888755631,236.12785004667967 A 184.61176743951427,184.61176743951427 0 0 0 722.2501951668442,203.87086741599165 Z "/><path class="wedge" fill="rgb(167,218,225)" d=" M 736.8639815596244,191.25658538064675 L 779.0159164471959,154.87201120416853 A 259.6,259.6 0 0,1 799.7240157739466,182.352587181334 L 753.1302704200909,212.84267977991064 A 203.91676326963645,203.91676326963645 0 0 0 736.8639815596244,191.25658538064675 Z "/><path class="wedge" fill="rgb(167,217,225)" d=" M 753.1302704200909,212.84267977991064 L 799.7240157739466,182.352587181334 A 259.6,259.6 0 0,1 810.4243804211037,200.23159367861842 L 761.5354465551185,226.88670572522278 A 203.91676326963645,203.91676326963645 0 0 0 753.1302704200909,212.84267977991064 Z "/><path class="wedge" fill="rgb(145,206,218)" d=" M 744.5859888755631,236.12785004667967 L 810.4243804211037,200.23159367861842 A 259.6,259.6 0 0,1 817.3931028201787,213.96769590970706 L 749.541721382838,245.8961324450276 A 184.61176743951427,184.61176743951427 0 0 0 744.5859888755631,236.12785004667967 Z "/><path class="wedge" fill="url(#hiddenPattern)" d=" M 744.5859888755631,236.12785004667967 L 810.4243804211037,200.23159367861842 A 259.6,259.6 0 0,1 817.3931028201787,213.96769590970706 L 749.541721382838,245.8961324450276 A 184.61176743951427,184.61176743951427 0 0 0 744.5859888755631,236.12785004667967 Z "/><path class="wedge" fill="rgb(145,206,218)" d=" M 729.1813743607419,255.47698450671226 L 817.3931028201787,213.96769590970706 A 259.6,259.6 0 0,1 832.8991058316444,255.9985562289893 L 738.8642548082993,281.7235804398265 A 162.1098462529119,162.1098462529119 0 0 0 729.1813743607419,255.47698450671226 Z "/><path class="wedge" fill="rgb(156,211,222)" d=" M 749.541721382838,245.8961324450276 L 817.3931028201787,213.96769590970706 A 259.6,259.6 0 0,1 828.8282126229113,242.55751000853223 L 757.6736775906477,266.2274733986149 A 184.61176743951427,184.61176743951427 0 0 0 749.541721382838,245.8961324450276 Z "/><path class="wedge" fill="rgb(156,211,222)" d=" M 749.541721382838,245.8961324450276 L 817.3931028201787,213.96769590970706 A 259.6,259.6 0 0,1 828.8282126229113,242.55751000853223 L 757.6736775906477,266.2274733986149 A 184.61176743951427,184.61176743951427 0 0 0 749.541721382838,245.8961324450276 Z "/><path class="wedge" fill="rgb(145,204,218)" d=" M 757.6736775906477,266.2274733986149 L 828.8282126229113,242.55751000853223 A 259.6,259.6 0 0,1 832.8991058316444,255.9985562289893 L 760.5686498183893,275.7859298662373 A 184.61176743951427,184.61176743951427 0 0 0 757.6736775906477,266.2274733986149 Z "/><path class="wedge" fill="url(#hiddenPattern)" d=" M 757.6736775906477,266.2274733986149 L 828.8282126229113,242.55751000853223 A 259.6,259.6 0 0,1 832.8991058316444,255.9985562289893 L 760.5686498183893,275.7859298662373 A 184.61176743951427,184.61176743951427 0 0 0 757.6736775906477,266.2274733986149 Z "/><path class="wedge" fill="rgb(145,204,218)" d=" M 738.8642548082993,281.7235804398265 L 832.8991058316444,255.9985562289893 A 259.6,259.6 0 0,1 837.2435755723868,274.5212974898745 L 741.5772028888932,293.29029360617693 A 162.1098462529119,162.1098462529119 0 0 0 738.8642548082993,281.7235804398265 Z "/><path class="wedge" fill="rgb(145,204,218)" d=" M 738.8642548082993,281.7235804398265 L 832.8991058316444,255.9985562289893 A 259.6,259.6 0 0,1 837.2435755723868,274.5212974898745 L 741.5772028888932,293.29029360617693 A 162.1098462529119,162.1098462529119 0 0 0 738.8642548082993,281.7235804398265 Z "/><path class="wedge" fill="rgb(156,209,222)" d=" M 760.5686498183893,275.7859298662373 L 832.8991058316444,255.9985562289893 A 259.6,259.6 0 0,1 836.5209325324217,270.969393471035 L 763.1442731950847,286.43228088050296 A 184.61176743951427,184.61176743951427 0 0 0 760.5686498183893,275.7859298662373 Z "/><path class="wedge" fill="rgb(156,208,222)" d=" M 763.1442731950847,286.43228088050296 L 836.5209325324217,270.969393471035 A 259.6,259.6 0 0,1 837.2435755723868,274.5212974898745 L 763.6581730750378,288.95817948872127 A 184.61176743951427,184.61176743951427 0 0 0 763.1442731950847,286.43228088050296 Z "/><path class="wedge" fill="url(#hiddenPattern)" d=" M 763.1442731950847,286.43228088050296 L 836.5209325324217,270.969393471035 A 259.6,259.6 0 0,1 837.2435755723868,274.5212974898745 L 763.6581730750378,288.95817948872127 A 184.61176743951427,184.61176743951427 0 0 0 763.1442731950847,286.43228088050296 Z "/><path class="wedge" fill="rgb(134,197,214)" d=" M 741.5772028888932,293.29029360617693 L 837.2435755723868,274.5212974898745 A 259.6,259.6 0 0,1 839.636256656665,288.8193958487568 L 743.0713367976166,302.21888577361693 A 162.1098462529119,162.1098462529119 0 0 0 741.5772028888932,293.29029360617693 Z "/><path class="wedge" fill="url(#hiddenPattern)" d=" M 741.5772028888932,293.29029360617693 L 837.2435755723868,274.5212974898745 A 259.6,259.6 0 0,1 839.636256656665,288.8193958487568 L 743.0713367976166,302.21888577361693 A 162.1098462529119,162.1098462529119 0 0 0 741.5772028888932,293.29029360617693 Z "/><path class="wedge" fill="rgb(123,191,211)" d=" M 716.7611501500501,305.8697258656488 L 839.636256656665,288.8193958487568 A 259.6,259.6 0 0,1 841.7675451250147,311.36607275608526 L 717.8739813189516,317.642249946846 A 135.5475693398276,135.5475693398276 0 0 0 716.7611501500501,305.8697258656488 Z "/><path class="wedge" fill="url(#hiddenPattern)" d=" M 716.7611501500501,305.8697258656488 L 839.636256656665,288.8193958487568 A 259.6,259.6 0 0,1 841.7675451250147,311.36607275608526 L 717.8739813189516,317.642249946846 A 135.5475693398276,135.5475693398276 0 0 0 716.7611501500501,305.8697258656488 Z "/><path class="wedge" fill="rgb(123,190,211)" d=" M 686.0881287837246,319.2524517728485 L 841.7675451250147,311.36607275608526 A 259.6,259.6 0 0,1 828.3957881028691,407.73113235604154 L 680.7455577040826,357.7542866217813 A 103.72095828380007,103.72095828380007 0 0 0 686.0881287837246,319.2524517728485 Z "/><path class="wedge" fill="rgb(123,190,211)" d=" M 686.0881287837246,319.2524517728485 L 841.7675451250147,311.36607275608526 A 259.6,259.6 0 0,1 828.3957881028691,407.73113235604154 L 680.7455577040826,357.7542866217813 A 103.72095828380007,103.72095828380007 0 0 0 686.0881287837246,319.2524517728485 Z "/><path class="wedge" fill="rgb(134,196,214)" d=" M 717.8739813189516,317.642249946846 L 841.7675451250147,311.36607275608526 A 259.6,259.6 0 0,1 829.2538839305727,405.1516011321379 L 711.340097041414,366.6114348876216 A 135.5475693398276,135.5475693398276 0 0 0 717.8739813189516,317.642249946846 Z "/><path class="wedge" fill="rgb(134,196,214)" d=" M 717.8739813189516,317.642249946846 L 841.7675451250147,311.36607275608526 A 259.6,259.6 0 0,1 829.2538839305727,405.1516011321379 L 711.340097041414,366.6114348876216 A 135.5475693398276,135.5475693398276 0 0 0 717.8739813189516,317.642249946846 Z "/><path class="wedge" fill="rgb(145,201,218)" d=" M 744.4022414429354,316.2983862626813 L 841.7675451250147,311.36607275608526 A 259.6,259.6 0 0,1 834.714151551389,385.9831827186346 L 739.9976784699702,362.89379544552213 A 162.1098462529119,162.1098462529119 0 0 0 744.4022414429354,316.2983862626813 Z "/><path class="wedge" fill="rgb(156,206,222)" d=" M 766.8753457058282,315.1599479124766 L 841.7675451250147,311.36607275608526 A 259.6,259.6 0 0,1 838.8326242325367,365.5578342592638 L 764.7882080584648,353.6978403306677 A 184.61176743951427,184.61176743951427 0 0 0 766.8753457058282,315.1599479124766 Z "/><path class="wedge" fill="rgb(156,204,222)" d=" M 764.7882080584648,353.6978403306677 L 838.8326242325367,365.5578342592638 A 259.6,259.6 0 0,1 834.714151551389,385.9831827186346 L 761.8594001970702,368.22310874227173 A 184.61176743951427,184.61176743951427 0 0 0 764.7882080584648,353.6978403306677 Z "/><path class="wedge" fill="rgb(134,192,214)" d=" M 739.9976784699702,362.89379544552213 L 834.714151551389,385.9831827186346 A 259.6,259.6 0 0,1 829.2538839305727,405.1516011321379 L 736.587959115154,374.8637082418415 A 162.1098462529119,162.1098462529119 0 0 0 739.9976784699702,362.89379544552213 Z "/><path class="wedge" fill="url(#hiddenPattern)" d=" M 739.9976784699702,362.89379544552213 L 834.714151551389,385.9831827186346 A 259.6,259.6 0 0,1 829.2538839305727,405.1516011321379 L 736.587959115154,374.8637082418415 A 162.1098462529119,162.1098462529119 0 0 0 739.9976784699702,362.89379544552213 Z "/><path class="wedge" fill="rgb(123,185,211)" d=" M 711.340097041414,366.6114348876216 L 829.2538839305727,405.1516011321379 A 259.6,259.6 0 0,1 828.3957881028691,407.73113235604154 L 710.8920508021772,367.95831157266144 A 135.5475693398276,135.5475693398276 0 0 0 711.340097041414,366.6114348876216 Z "/><path class="wedge" fill="url(#hiddenPattern)" d=" M 711.340097041414,366.6114348876216 L 829.2538839305727,405.1516011321379 A 259.6,259.6 0 0,1 828.3957881028691,407.73113235604154 L 710.8920508021772,367.95831157266144 A 135.5475693398276,135.5475693398276 0 0 0 711.340097041414,366.6114348876216 Z "/><path class="wedge" fill="rgb(123,185,211)" d=" M 680.7455577040826,357.7542866217813 L 828.3957881028691,407.73113235604154 A 259.6,259.6 0 0,1 791.1812410162296,478.9159954406482 L 665.8768039062248,386.1955894508896 A 103.72095828380007,103.72095828380007 0 0 0 680.7455577040826,357.7542866217813 Z "/><path class="wedge" fill="rgb(123,185,211)" d=" M 680.7455577040826,357.7542866217813 L 828.3957881028691,407.73113235604154 A 259.6,259.6 0 0,1 791.1812410162296,478.9159954406482 L 665.8768039062248,386.1955894508896 A 103.72095828380007,103.72095828380007 0 0 0 680.7455577040826,357.7542866217813 Z "/><path class="wedge" fill="rgb(134,191,214)" d=" M 710.8920508021772,367.95831157266144 L 828.3957881028691,407.73113235604154 A 259.6,259.6 0 0,1 801.4444193330252,463.98297832683545 L 696.8196604819395,397.3296559186533 A 135.5475693398276,135.5475693398276 0 0 0 710.8920508021772,367.95831157266144 Z "/><path class="wedge" fill="rgb(145,197,218)" d=" M 736.0521124945867,376.47452261053024 L 828.3957881028691,407.73113235604154 A 259.6,259.6 0 0,1 802.4128507908027,462.4510712428944 L 719.8268044327295,410.6449420246922 A 162.1098462529119,162.1098462529119 0 0 0 736.0521124945867,376.47452261053024 Z "/><path class="wedge" fill="rgb(156,202,222)" d=" M 757.3661635115676,383.68893085609 L 828.3957881028691,407.73113235604154 A 259.6,259.6 0 0,1 814.0106386855136,441.9520505373388 L 747.1363181386112,408.02477133703104 A 184.61176743951427,184.61176743951427 0 0 0 757.3661635115676,383.68893085609 Z "/><path class="wedge" fill="rgb(156,202,222)" d=" M 757.3661635115676,383.68893085609 L 828.3957881028691,407.73113235604154 A 259.6,259.6 0 0,1 814.0106386855136,441.9520505373388 L 747.1363181386112,408.02477133703104 A 184.61176743951427,184.61176743951427 0 0 0 757.3661635115676,383.68893085609 Z "/><path class="wedge" fill="rgb(156,201,222)" d=" M 747.1363181386112,408.02477133703104 L 814.0106386855136,441.9520505373388 A 259.6,259.6 0 0,1 802.6532857622083,462.06704099493993 L 739.059657905153,422.3293319703389 A 184.61176743951427,184.61176743951427 0 0 0 747.1363181386112,408.02477133703104 Z "/><path class="wedge" fill="rgb(156,201,222)" d=" M 747.1363181386112,408.02477133703104 L 814.0106386855136,441.9520505373388 A 259.6,259.6 0 0,1 802.6532857622083,462.06704099493993 L 739.059657905153,422.3293319703389 A 184.61176743951427,184.61176743951427 0 0 0 747.1363181386112,408.02477133703104 Z "/><path class="wedge" fill="rgb(145,194,218)" d=" M 739.059657905153,422.3293319703389 L 802.6532857622083,462.06704099493993 A 259.6,259.6 0 0,1 802.4128507908027,462.4510712428944 L 738.8886751431136,422.6024309796806 A 184.61176743951427,184.61176743951427 0 0 0 739.059657905153,422.3293319703389 Z "/><path class="wedge" fill="url(#hiddenPattern)" d=" M 739.059657905153,422.3293319703389 L 802.6532857622083,462.06704099493993 A 259.6,259.6 0 0,1 802.4128507908027,462.4510712428944 L 738.8886751431136,422.6024309796806 A 184.61176743951427,184.61176743951427 0 0 0 739.059657905153,422.3293319703389 Z "/><path class="wedge" fill="rgb(134,188,214)" d=" M 719.8268044327295,410.6449420246922 L 802.4128507908027,462.4510712428944 A 259.6,259.6 0 0,1 801.4444193330252,463.98297832683545 L 719.2220576117479,411.6015569008534 A 162.1098462529119,162.1098462529119 0 0 0 719.8268044327295,410.6449420246922 Z "/><path class="wedge" fill="url(#hiddenPattern)" d=" M 719.8268044327295,410.6449420246922 L 802.4128507908027,462.4510712428944 A 259.6,259.6 0 0,1 801.4444193330252,463.98297832683545 L 719.2220576117479,411.6015569008534 A 162.1098462529119,162.1098462529119 0 0 0 719.8268044327295,410.6449420246922 Z "/><path class="wedge" fill="rgb(123,181,211)" d=" M 696.8196604819395,397.3296559186533 L 801.4444193330252,463.98297832683545 A 259.6,259.6 0 0,1 791.1812410162296,478.9159954406482 L 691.4608435538084,405.12678293208694 A 135.5475693398276,135.5475693398276 0 0 0 696.8196604819395,397.3296559186533 Z "/><path class="wedge" fill="url(#hiddenPattern)" d=" M 696.8196604819395,397.3296559186533 L 801.4444193330252,463.98297832683545 A 259.6,259.6 0 0,1 791.1812410162296,478.9159954406482 L 691.4608435538084,405.12678293208694 A 135.5475693398276,135.5475693398276 0 0 0 696.8196604819395,397.3296559186533 Z "/><path class="wedge" fill="rgb(123,181,211)" d=" M 665.8768039062248,386.1955894508896 L 791.1812410162296,478.9159954406482 A 259.6,259.6 0 0,1 766.3850218732878,507.7442597481856 L 655.9696867593796,397.7136757360839 A 103.72095828380007,103.72095828380007 0 0 0 665.8768039062248,386.1955894508896 Z "/><path class="wedge" fill="rgb(123,181,211)" d=" M 665.8768039062248,386.1955894508896 L 791.1812410162296,478.9159954406482 A 259.6,259.6 0 0,1 766.3850218732878,507.7442597481856 L 655.9696867593796,397.7136757360839 A 103.72095828380007,103.72095828380007 0 0 0 665.8768039062248,386.1955894508896 Z "/><path class="wedge" fill="rgb(123,181,211)" d=" M 665.8768039062248,386.1955894508896 L 791.1812410162296,478.9159954406482 A 259.6,259.6 0 0,1 766.3850218732878,507.7442597481856 L 655.9696867593796,397.7136757360839 A 103.72095828380007,103.72095828380007 0 0 0 665.8768039062248,386.1955894508896 Z "/><path class="wedge" fill="rgb(123,181,211)" d=" M 665.8768039062248,386.1955894508896 L 791.1812410162296,478.9159954406482 A 259.6,259.6 0 0,1 766.3850218732878,507.7442597481856 L 655.9696867593796,397.7136757360839 A 103.72095828380007,103.72095828380007 0 0 0 665.8768039062248,386.1955894508896 Z "/><path class="wedge" fill="rgb(134,187,214)" d=" M 691.4608435538084,405.12678293208694 L 791.1812410162296,478.9159954406482 A 259.6,259.6 0 0,1 769.2406121679139,504.8333129711557 L 680.004761465301,418.6592536372826 A 135.5475693398276,135.5475693398276 0 0 0 691.4608435538084,405.12678293208694 Z "/><path class="wedge" fill="rgb(145,193,218)" d=" M 712.8131120840055,420.92663050798853 L 791.1812410162296,478.9159954406482 A 259.6,259.6 0 0,1 776.6283842934189,496.85524480452193 L 703.7254334789382,432.128976256333 A 162.1098462529119,162.1098462529119 0 0 0 712.8131120840055,420.92663050798853 Z "/><path class="wedge" fill="rgb(145,192,218)" d=" M 703.7254334789382,432.128976256333 L 776.6283842934189,496.85524480452193 A 259.6,259.6 0 0,1 769.2406121679139,504.8333129711557 L 699.112064436499,437.11096163340636 A 162.1098462529119,162.1098462529119 0 0 0 703.7254334789382,432.128976256333 Z "/><path class="wedge" fill="url(#hiddenPattern)" d=" M 703.7254334789382,432.128976256333 L 776.6283842934189,496.85524480452193 A 259.6,259.6 0 0,1 769.2406121679139,504.8333129711557 L 699.112064436499,437.11096163340636 A 162.1098462529119,162.1098462529119 0 0 0 703.7254334789382,432.128976256333 Z "/><path class="wedge" fill="rgb(123,179,211)" d=" M 680.004761465301,418.6592536372826 L 769.2406121679139,504.8333129711557 A 259.6,259.6 0 0,1 766.3850218732878,507.7442597481856 L 678.5137432701279,420.1791756715815 A 135.5475693398276,135.5475693398276 0 0 0 680.004761465301,418.6592536372826 Z "/><path class="wedge" fill="url(#hiddenPattern)" d=" M 680.004761465301,418.6592536372826 L 769.2406121679139,504.8333129711557 A 259.6,259.6 0 0,1 766.3850218732878,507.7442597481856 L 678.5137432701279,420.1791756715815 A 135.5475693398276,135.5475693398276 0 0 0 680.004761465301,418.6592536372826 Z "/><path class="wedge" fill="rgb(123,178,211)" d=" M 655.9696867593796,397.7136757360839 L 766.3850218732878,507.7442597481856 A 259.6,259.6 0 0,1 737.6434881548454,532.6409572456785 L 644.486252938798,407.6609381495733 A 103.72095828380007,103.72095828380007 0 0 0 655.9696867593796,397.7136757360839 Z "/><path class="wedge" fill="rgb(123,178,211)" d=" M 655.9696867593796,397.7136757360839 L 766.3850218732878,507.7442597481856 A 259.6,259.6 0 0,1 737.6434881548454,532.6409572456785 L 644.486252938798,407.6609381495733 A 103.72095828380007,103.72095828380007 0 0 0 655.9696867593796,397.7136757360839 Z "/><path class="wedge" fill="rgb(134,185,214)" d=" M 678.5137432701279,420.1791756715815 L 766.3850218732878,507.7442597481856 A 259.6,259.6 0 0,1 752.8129239259357,520.4226070258317 L 671.4272067231108,426.79904915667834 A 135.5475693398276,135.5475693398276 0 0 0 678.5137432701279,420.1791756715815 Z "/><path class="wedge" fill="rgb(134,185,214)" d=" M 678.5137432701279,420.1791756715815 L 766.3850218732878,507.7442597481856 A 259.6,259.6 0 0,1 752.8129239259357,520.4226070258317 L 671.4272067231108,426.79904915667834 A 135.5475693398276,135.5475693398276 0 0 0 678.5137432701279,420.1791756715815 Z "/><path class="wedge" fill="rgb(134,185,214)" d=" M 678.5137432701279,420.1791756715815 L 766.3850218732878,507.7442597481856 A 259.6,259.6 0 0,1 752.8129239259357,520.4226070258317 L 671.4272067231108,426.79904915667834 A 135.5475693398276,135.5475693398276 0 0 0 678.5137432701279,420.1791756715815 Z "/><path class="wedge" fill="rgb(134,185,214)" d=" M 678.5137432701279,420.1791756715815 L 766.3850218732878,507.7442597481856 A 259.6,259.6 0 0,1 752.8129239259357,520.4226070258317 L 671.4272067231108,426.79904915667834 A 135.5475693398276,135.5475693398276 0 0 0 678.5137432701279,420.1791756715815 Z "/><path class="wedge" fill="rgb(134,184,214)" d=" M 671.4272067231108,426.79904915667834 L 752.8129239259357,520.4226070258317 A 259.6,259.6 0 0,1 738.7311800102718,531.8257784082773 L 664.0745635804523,432.753102175384 A 135.5475693398276,135.5475693398276 0 0 0 671.4272067231108,426.79904915667834 Z "/><path class="wedge" fill="rgb(145,190,218)" d=" M 688.8536283224859,446.8458540155132 L 752.8129239259357,520.4226070258317 A 259.6,259.6 0 0,1 739.8145887089786,531.004915629931 L 680.7366863981224,453.4540836796558 A 162.1098462529119,162.1098462529119 0 0 0 688.8536283224859,446.8458540155132 Z "/><path class="wedge" fill="rgb(145,190,218)" d=" M 688.8536283224859,446.8458540155132 L 752.8129239259357,520.4226070258317 A 259.6,259.6 0 0,1 739.8145887089786,531.004915629931 L 680.7366863981224,453.4540836796558 A 162.1098462529119,162.1098462529119 0 0 0 688.8536283224859,446.8458540155132 Z "/><path class="wedge" fill="rgb(145,190,218)" d=" M 688.8536283224859,446.8458540155132 L 752.8129239259357,520.4226070258317 A 259.6,259.6 0 0,1 739.8145887089786,531.004915629931 L 680.7366863981224,453.4540836796558 A 162.1098462529119,162.1098462529119 0 0 0 688.8536283224859,446.8458540155132 Z "/><path class="wedge" fill="rgb(134,183,214)" d=" M 680.7366863981224,453.4540836796558 L 739.8145887089786,531.004915629931 A 259.6,259.6 0 0,1 738.7311800102718,531.8257784082773 L 680.0601408758712,453.9666797458825 A 162.1098462529119,162.1098462529119 0 0 0 680.7366863981224,453.4540836796558 Z "/><path class="wedge" fill="url(#hiddenPattern)" d=" M 680.7366863981224,453.4540836796558 L 739.8145887089786,531.004915629931 A 259.6,259.6 0 0,1 738.7311800102718,531.8257784082773 L 680.0601408758712,453.9666797458825 A 162.1098462529119,162.1098462529119 0 0 0 680.7366863981224,453.4540836796558 Z "/><path class="wedge" fill="rgb(123,176,211)" d=" M 664.0745635804523,432.753102175384 L 738.7311800102718,531.8257784082773 A 259.6,259.6 0 0,1 737.6434881548454,532.6409572456785 L 663.5066360488892,433.17873973311515 A 135.5475693398276,135.5475693398276 0 0 0 664.0745635804523,432.753102175384 Z "/><path class="wedge" fill="url(#hiddenPattern)" d=" M 664.0745635804523,432.753102175384 L 738.7311800102718,531.8257784082773 A 259.6,259.6 0 0,1 737.6434881548454,532.6409572456785 L 663.5066360488892,433.17873973311515 A 135.5475693398276,135.5475693398276 0 0 0 664.0745635804523,432.753102175384 Z "/><path class="wedge" fill="rgb(123,176,211)" d=" M 644.486252938798,407.6609381495733 L 737.6434881548454,532.6409572456785 A 259.6,259.6 0 0,1 710.3331562028601,550.444338665998 L 633.5746435354521,414.7741268306501 A 103.72095828380007,103.72095828380007 0 0 0 644.486252938798,407.6609381495733 Z "/><path class="wedge" fill="rgb(123,176,211)" d=" M 644.486252938798,407.6609381495733 L 737.6434881548454,532.6409572456785 A 259.6,259.6 0 0,1 710.3331562028601,550.444338665998 L 633.5746435354521,414.7741268306501 A 103.72095828380007,103.72095828380007 0 0 0 644.486252938798,407.6609381495733 Z "/><path class="wedge" fill="rgb(123,176,211)" d=" M 644.486252938798,407.6609381495733 L 737.6434881548454,532.6409572456785 A 259.6,259.6 0 0,1 710.3331562028601,550.444338665998 L 633.5746435354521,414.7741268306501 A 103.72095828380007,103.72095828380007 0 0 0 644.486252938798,407.6609381495733 Z "/><path class="wedge" fill="rgb(123,176,211)" d=" M 644.486252938798,407.6609381495733 L 737.6434881548454,532.6409572456785 A 259.6,259.6 0 0,1 710.3331562028601,550.444338665998 L 633.5746435354521,414.7741268306501 A 103.72095828380007,103.72095828380007 0 0 0 644.486252938798,407.6609381495733 Z "/><path class="wedge" fill="rgb(123,176,211)" d=" M 644.486252938798,407.6609381495733 L 737.6434881548454,532.6409572456785 A 259.6,259.6 0 0,1 710.3331562028601,550.444338665998 L 633.5746435354521,414.7741268306501 A 103.72095828380007,103.72095828380007 0 0 0 644.486252938798,407.6609381495733 Z "/><path class="wedge" fill="rgb(123,176,211)" d=" M 644.486252938798,407.6609381495733 L 737.6434881548454,532.6409572456785 A 259.6,259.6 0 0,1 710.3331562028601,550.444338665998 L 633.5746435354521,414.7741268306501 A 103.72095828380007,103.72095828380007 0 0 0 644.486252938798,407.6609381495733 Z "/><path class="wedge" fill="rgb(123,174,211)" d=" M 633.5746435354521,414.7741268306501 L 710.3331562028601,550.444338665998 A 259.6,259.6 0 0,1 681.0068190137297,564.684442892949 L 621.8575564930389,420.4636386044581 A 103.72095828380007,103.72095828380007 0 0 0 633.5746435354521,414.7741268306501 Z "/><path class="wedge" fill="rgb(134,181,214)" d=" M 649.2468166576895,442.4745990457274 L 710.3331562028601,550.444338665998 A 259.6,259.6 0 0,1 681.4258697005312,564.5121503257565 L 634.153163261693,449.8199675989276 A 135.5475693398276,135.5475693398276 0 0 0 649.2468166576895,442.4745990457274 Z "/><path class="wedge" fill="rgb(134,181,214)" d=" M 649.2468166576895,442.4745990457274 L 710.3331562028601,550.444338665998 A 259.6,259.6 0 0,1 681.4258697005312,564.5121503257565 L 634.153163261693,449.8199675989276 A 135.5475693398276,135.5475693398276 0 0 0 649.2468166576895,442.4745990457274 Z "/><path class="wedge" fill="rgb(134,181,214)" d=" M 649.2468166576895,442.4745990457274 L 710.3331562028601,550.444338665998 A 259.6,259.6 0 0,1 681.4258697005312,564.5121503257565 L 634.153163261693,449.8199675989276 A 135.5475693398276,135.5475693398276 0 0 0 649.2468166576895,442.4745990457274 Z "/><path class="wedge" fill="rgb(134,181,214)" d=" M 649.2468166576895,442.4745990457274 L 710.3331562028601,550.444338665998 A 259.6,259.6 0 0,1 681.4258697005312,564.5121503257565 L 634.153163261693,449.8199675989276 A 135.5475693398276,135.5475693398276 0 0 0 649.2468166576895,442.4745990457274 Z "/><path class="wedge" fill="rgb(134,181,214)" d=" M 649.2468166576895,442.4745990457274 L 710.3331562028601,550.444338665998 A 259.6,259.6 0 0,1 681.4258697005312,564.5121503257565 L 634.153163261693,449.8199675989276 A 135.5475693398276,135.5475693398276 0 0 0 649.2468166576895,442.4745990457274 Z "/><path class="wedge" fill="rgb(123,173,211)" d=" M 634.153163261693,449.8199675989276 L 681.4258697005312,564.5121503257565 A 259.6,259.6 0 0,1 681.0068190137297,564.684442892949 L 633.9343600951825,449.90992845677914 A 135.5475693398276,135.5475693398276 0 0 0 634.153163261693,449.8199675989276 Z "/><path class="wedge" fill="url(#hiddenPattern)" d=" M 634.153163261693,449.8199675989276 L 681.4258697005312,564.5121503257565 A 259.6,259.6 0 0,1 681.0068190137297,564.684442892949 L 633.9343600951825,449.90992845677914 A 135.5475693398276,135.5475693398276 0 0 0 634.153163261693,449.8199675989276 Z "/><path class="wedge" fill="rgb(123,173,211)" d=" M 621.8575564930389,420.4636386044581 L 681.0068190137297,564.684442892949 A 259.6,259.6 0 0,1 652.3115854317231,574.5370023406721 L 610.392621495723,424.4001444113377 A 103.72095828380007,103.72095828380007 0 0 0 621.8575564930389,420.4636386044581 Z "/><path class="wedge" fill="rgb(123,173,211)" d=" M 621.8575564930389,420.4636386044581 L 681.0068190137297,564.684442892949 A 259.6,259.6 0 0,1 652.3115854317231,574.5370023406721 L 610.392621495723,424.4001444113377 A 103.72095828380007,103.72095828380007 0 0 0 621.8575564930389,420.4636386044581 Z "/><path class="wedge" fill="rgb(123,173,211)" d=" M 621.8575564930389,420.4636386044581 L 681.0068190137297,564.684442892949 A 259.6,259.6 0 0,1 652.3115854317231,574.5370023406721 L 610.392621495723,424.4001444113377 A 103.72095828380007,103.72095828380007 0 0 0 621.8575564930389,420.4636386044581 Z "/><path class="wedge" fill="url(#hiddenPattern)" d=" M 621.8575564930389,420.4636386044581 L 681.0068190137297,564.684442892949 A 259.6,259.6 0 0,1 652.3115854317231,574.5370023406721 L 610.392621495723,424.4001444113377 A 103.72095828380007,103.72095828380007 0 0 0 621.8575564930389,420.4636386044581 Z "/><path class="wedge" fill="rgb(112,161,207)" d=" M 610.392621495723,424.4001444113377 L 652.3115854317231,574.5370023406721 A 259.6,259.6 0 0,1 582.5000000000001,584.1 L 582.5,428.2209582838001 A 103.72095828380007,103.72095828380007 0 0 0 610.392621495723,424.4001444113377 Z "/><path class="wedge" fill="url(#hiddenPattern)" d=" M 610.392621495723,424.4001444113377 L 652.3115854317231,574.5370023406721 A 259.6,259.6 0 0,1 582.5000000000001,584.1 L 582.5,428.2209582838001 A 103.72095828380007,103.72095828380007 0 0 0 610.392621495723,424.4001444113377 Z "/><circle cx="582.5" cy="324.5" r="64.9"/><circle cx="582.5" cy="324.5" r="259.6"/><text x="582.5" y="324.5" text-anchor="middle" style="font-color:black;font-weight:bold" transform="rotate(360,582.5,324.5)">all</text><path class="line" d=" M 589.1712356374924,259.9437871690954 A 64.9,64.9 0 1 0 582.5,389.4"/><line x1="609.1849425499694" y1="66.27514867638155" x2="589.1712356374924" y2="259.9437871690954"/><text x="582.5" y="247.95371251485997" text-anchor="middle" style="font-color:black;font-weight:normal" transform="rotate(272.95,582.5,324.5)">d__Archaea</text><path class="line" d=" M 589.5546111257507,221.01923053448903 A 103.72095828380007,103.72095828380007 0 1 0 582.5,428.2209582838001"/><line x1="600.1567694566984" y1="65.50116121427686" x2="589.5546111257507" y2="221.01923053448903"/><text x="582.5" y="211.23105839939166" text-anchor="middle" style="font-color:black;font-weight:normal" transform="rotate(271.95000000000005,582.5,324.5)">p__Halobacteriota</text><line x1="547.2682373960545" y1="67.30186061361326" x2="564.1040840349666" y2="190.20653839541257"/><path class="line" d=" M 564.1040840349666,190.20653839541257 A 135.5475693398276,135.5475693398276 0 0 0 582.5,460.0475693398276"/><text x="582.5" y="468.0162524137529" text-anchor="middle" style="font-color:black;font-weight:normal" transform="rotate(86.1,582.5,324.5)">g__Methanocorpusculum</text><path class="line" d=" M 547.4130074614545,166.23280438845583 A 162.1098462529119,162.1098462529119 0 0 0 582.5,486.6098462529119"/><line x1="526.3122762216685" y1="71.05355655166528" x2="547.4130074614545" y2="166.23280438845583"/><text x="371.64507687354404" y="324.5" text-anchor="end" style="font-color:black;font-weight:normal" transform="rotate(-6.249999999999992,582.5,324.5)">s__Methanocorpusculum labreanum&#160;&#160;&#160;47%</text><path class="line" d=" M 560.2188857736168,163.9286632023835 A 162.1098462529119,162.1098462529119 0 0 0 547.4130074614545,166.23280438845583"/><line x1="546.8193958487566" y1="67.36374334333499" x2="560.2188857736168" y2="163.9286632023835"/><text x="371.64507687354404" y="324.5" text-anchor="end" style="font-color:black;font-weight:normal" transform="rotate(79.80000000000003,582.5,324.5)">s__Methanocorpusculum parvum&#160;&#160;&#160;1%</text><path class="line" d=" M 560.499169418549,163.8900199057698 A 162.1098462529119,162.1098462529119 0 0 0 560.2188857736168,163.9286632023835"/><path class="line" d=" M 591.7193073276162,189.2663210352749 A 135.5475693398276,135.5475693398276 0 0 0 564.1040840349666,190.20653839541257"/><text x="582.5" y="170.35883682101337" text-anchor="middle" style="font-color:black;font-weight:normal" transform="rotate(358.04999999999995,582.5,324.5)">c__Methanosarcinia</text><line x1="599.7047045438401" y1="65.47073883138381" x2="593.2436518044249" y2="162.74655738424605"/><path class="line" d=" M 593.2436518044249,162.74655738424605 A 162.1098462529119,162.1098462529119 0 0 0 560.499169418549,163.8900199057698"/><text x="582.5" y="151.13919315378692" text-anchor="middle" style="font-color:black;font-weight:normal" transform="rotate(358,582.5,324.5)">g_...19</text><path class="line" d=" M 573.8035948766906,140.0931747058353 A 184.61176743951427,184.61176743951427 0 0 0 557.4453083038376,141.5962900836849"/><line x1="570.2711653957767" y1="65.18818845987255" x2="573.8035948766906" y2="140.0931747058353"/><text x="360.3941162802429" y="324.5" text-anchor="end" style="font-color:black;font-weight:normal" transform="rotate(84.74999999999997,582.5,324.5)">s__Methanosarcina siciliae&#160;&#160;&#160;1%</text><path class="line" d=" M 585.7219195984597,139.91634982685395 A 184.61176743951427,184.61176743951427 0 0 0 573.8035948766906,140.0931747058353"/><line x1="587.030644711119" y1="64.93953833740079" x2="585.7219195984597" y2="139.91634982685395"/><text x="360.3941162802429" y="324.5" text-anchor="end" style="font-color:black;font-weight:normal" transform="rotate(89.15,582.5,324.5)">s__Methanosarcina thermophila&#160;&#160;&#160;1%</text><line x1="833.85" y1="324.5" x2="850.35" y2="324.5" class="tick" transform="rotate(272.40000000000003,582.5,324.5)"/><text x="853.1" y="324.5" text-anchor="start" style="font-color:black;font-weight:normal" transform="rotate(272.40000000000003,582.5,324.5)">2 more</text><path class="line" d=" M 594.7349418879544,140.2941073848622 A 184.61176743951427,184.61176743951427 0 0 0 585.7219195984597,139.91634982685395"/><path class="line" d=" M 593.5259483125905,162.76555494901274 A 162.1098462529119,162.1098462529119 0 0 0 593.2436518044249,162.74655738424605"/><path class="line" d=" M 593.161740419996,221.3284706010112 A 103.72095828380007,103.72095828380007 0 0 0 589.5546111257507,221.01923053448903"/><path class="line" d=" M 582.5,389.4 A 64.9,64.9 0 0 0 589.1712356374924,259.9437871690954"/><line x1="582.5000000000001" y1="584.1" x2="582.5" y2="389.4"/><text x="582.5" y="416.57467079866" text-anchor="middle" style="font-color:black;font-weight:normal" transform="rotate(272.95,582.5,324.5)">d__Bacteria</text><line x1="779.0159164471959" y1="154.87201120416853" x2="661.0162525882987" y2="256.7265887917668"/><path class="line" d=" M 661.0162525882987,256.7265887917668 A 103.72095828380007,103.72095828380007 0 0 0 593.161740419996,221.3284706010112"/><text x="582.5" y="198.50041397698067" text-anchor="middle" style="font-color:black;font-weight:normal" transform="rotate(387.55000000000007,582.5,324.5)">c__Clost...a_258483</text><path class="line" d=" M 653.5250159225717,209.0504843356465 A 135.5475693398276,135.5475693398276 0 0 0 596.4332785077862,189.670450924288"/><line x1="718.5267411898326" y1="103.39168789646484" x2="653.5250159225717" y2="209.0504843356465"/><text x="582.5" y="180.98374758624712" text-anchor="middle" style="font-color:black;font-weight:normal" transform="rotate(378.75,582.5,324.5)">o__Ch...lales</text><path class="line" d=" M 628.2703301596218,168.98575907904143 A 162.1098462529119,162.1098462529119 0 0 0 599.1636823345275,163.24887924979657"/><line x1="655.7958421964107" y1="75.46209220940102" x2="628.2703301596218" y2="168.98575907904143"/><text x="582.5" y="151.13919315378692" text-anchor="middle" style="font-color:black;font-weight:normal" transform="rotate(371.15000000000003,582.5,324.5)">f_...74</text><line x1="647.498649052533" y1="73.1688725578432" x2="628.7230950800032" y2="145.7685529674023"/><path class="line" d=" M 628.7230950800032,145.7685529674023 A 184.61176743951427,184.61176743951427 0 0 0 601.476711895885,140.86615485493456"/><text x="804.6058837197571" y="324.5" text-anchor="start" style="font-color:black;font-weight:normal" transform="rotate(280.20000000000005,582.5,324.5)">2%&#160;&#160;&#160;s__</text><path class="line" d=" M 634.6235553692107,147.39935163073477 A 184.61176743951427,184.61176743951427 0 0 0 628.7230950800032,145.7685529674023"/><line x1="688.5025875150076" y1="87.5282475903021" x2="648.694388152807" y2="176.52059187434813"/><path class="line" d=" M 648.694388152807,176.52059187434813 A 162.1098462529119,162.1098462529119 0 0 0 628.2703301596218,168.98575907904143"/><text x="793.354923126456" y="324.5" text-anchor="start" style="font-color:black;font-weight:normal" transform="rotate(290.25,582.5,324.5)">2%&#160;&#160;&#160;s__</text><path class="line" d=" M 666.4772788443338,185.8370312951445 A 162.1098462529119,162.1098462529119 0 0 0 648.694388152807,176.52059187434813"/><line x1="716.9798116332645" y1="102.44743806233242" x2="666.4772788443338" y2="185.8370312951445"/><text x="582.5" y="151.13919315378692" text-anchor="middle" style="font-color:black;font-weight:normal" transform="rotate(387.65000000000003,582.5,324.5)">...</text><line x1="704.3748176992171" y1="95.2868048938225" x2="669.1699749684941" y2="161.49748432584883"/><path class="line" d=" M 669.1699749684941,161.49748432584883 A 184.61176743951427,184.61176743951427 0 0 0 657.8826079903981,155.98006916181316"/><text x="804.6058837197571" y="324.5" text-anchor="start" style="font-color:black;font-weight:normal" transform="rotate(296.05,582.5,324.5)">1%&#160;&#160;&#160;s__Aphodomorpha intestinavium</text><line x1="833.85" y1="324.5" x2="850.35" y2="324.5" class="tick" transform="rotate(299.59999999999997,582.5,324.5)"/><text x="853.1" y="324.5" text-anchor="start" style="font-color:black;font-weight:normal" transform="rotate(299.59999999999997,582.5,324.5)">4 more</text><path class="line" d=" M 678.1338817817793,166.58969212717633 A 184.61176743951427,184.61176743951427 0 0 0 669.1699749684941,161.49748432584883"/><path class="line" d=" M 667.4432746555023,186.42667765660656 A 162.1098462529119,162.1098462529119 0 0 0 666.4772788443338,185.8370312951445"/><path class="line" d=" M 672.4935843460088,223.13778647595956 A 135.5475693398276,135.5475693398276 0 0 0 653.5250159225717,209.0504843356465"/><line x1="754.8552448045219" y1="130.37161570658108" x2="672.4935843460088" y2="223.13778647595956"/><text x="582.5" y="170.35883682101337" text-anchor="middle" style="font-color:black;font-weight:normal" transform="rotate(396.6,582.5,324.5)">o__Osc...irales</text><path class="line" d=" M 677.0977760551782,192.85326431104687 A 162.1098462529119,162.1098462529119 0 0 0 667.4432746555023,186.42667765660656"/><line x1="733.9872984680482" y1="113.6831164188871" x2="677.0977760551782" y2="192.85326431104687"/><text x="582.5" y="151.13919315378692" text-anchor="middle" style="font-color:black;font-weight:normal" transform="rotate(393.65000000000003,582.5,324.5)">...</text><line x1="731.4004428767316" y1="111.84812930257772" x2="688.3889596764246" y2="173.27489330211796"/><path class="line" d=" M 688.3889596764246,173.27489330211796 A 184.61176743951427,184.61176743951427 0 0 0 679.2339642145314,167.26118531201323"/><text x="804.6058837197571" y="324.5" text-anchor="start" style="font-color:black;font-weight:normal" transform="rotate(303.3,582.5,324.5)">0.9%&#160;&#160;&#160;s__Limivicinus sp002320035</text><path class="line" d=" M 690.228574402248,174.57982479198935 A 184.61176743951427,184.61176743951427 0 0 0 688.3889596764246,173.27489330211796"/><line x1="833.85" y1="324.5" x2="850.35" y2="324.5" class="tick" transform="rotate(308.65,582.5,324.5)"/><text x="853.1" y="324.5" text-anchor="start" style="font-color:black;font-weight:normal" transform="rotate(308.65,582.5,324.5)">7 more</text><path class="line" d=" M 690.128976256333,203.2745665210619 A 162.1098462529119,162.1098462529119 0 0 0 677.0977760551782,192.85326431104687"/><path class="line" d=" M 680.4964393405944,230.8525684788923 A 135.5475693398276,135.5475693398276 0 0 0 672.4935843460088,223.13778647595956"/><line x1="770.1822710781239" y1="145.14692608444759" x2="680.4964393405944" y2="230.8525684788923"/><text x="582.5" y="180.98374758624712" text-anchor="middle" style="font-color:black;font-weight:normal" transform="rotate(403.95000000000005,582.5,324.5)">o__Ac...nales</text><line x1="769.5550685922137" y1="144.49288537959885" x2="699.3084299318631" y2="212.0927362267199"/><path class="line" d=" M 699.3084299318631,212.0927362267199 A 162.1098462529119,162.1098462529119 0 0 0 690.128976256333,203.2745665210619"/><text x="582.5" y="151.13919315378692" text-anchor="middle" style="font-color:black;font-weight:normal" transform="rotate(403.84999999999997,582.5,324.5)">g_..._A</text><path class="line" d=" M 714.8501343744917,195.79511816486806 A 184.61176743951427,184.61176743951427 0 0 0 705.0685915671531,186.44767282517216"/><line x1="768.6099937460654" y1="143.515939298955" x2="714.8501343744917" y2="195.79511816486806"/><text x="804.6058837197571" y="324.5" text-anchor="start" style="font-color:black;font-weight:normal" transform="rotate(313.70000000000005,582.5,324.5)">1%&#160;&#160;&#160;s__</text><path class="line" d=" M 715.5222142578125,196.48986293621155 A 184.61176743951427,184.61176743951427 0 0 0 714.8501343744917,195.79511816486806"/><path class="line" d=" M 699.7000928693067,212.50115856148943 A 162.1098462529119,162.1098462529119 0 0 0 699.3084299318631,212.0927362267199"/><line x1="833.85" y1="324.5" x2="850.35" y2="324.5" class="tick" transform="rotate(317.75,582.5,324.5)"/><text x="853.1" y="324.5" text-anchor="start" style="font-color:black;font-weight:normal" transform="rotate(317.75,582.5,324.5)">3 more</text><path class="line" d=" M 685.1088397958631,235.93042537257912 A 135.5475693398276,135.5475693398276 0 0 0 680.4964393405944,230.8525684788923"/><line x1="841.7675451250147" y1="311.36607275608526" x2="686.0881287837246" y2="319.2524517728485"/><path class="line" d=" M 686.0881287837246,319.2524517728485 A 103.72095828380007,103.72095828380007 0 0 0 661.0162525882987,256.7265887917668"/><text x="582.5" y="211.23105839939166" text-anchor="middle" style="font-color:black;font-weight:normal" transform="rotate(428.15,582.5,324.5)">c__Bacteroidia</text><path class="line" d=" M 716.7611501500501,305.8697258656488 A 135.5475693398276,135.5475693398276 0 0 0 685.1088397958631,235.93042537257912"/><line x1="839.636256656665" y1="288.8193958487568" x2="716.7611501500501" y2="305.8697258656488"/><text x="582.5" y="170.35883682101337" text-anchor="middle" style="font-color:black;font-weight:normal" transform="rotate(425.65000000000003,582.5,324.5)">o__Bac...idales</text><path class="line" d=" M 729.1813743607419,255.47698450671226 A 162.1098462529119,162.1098462529119 0 0 0 705.2163520859207,218.57408634867915"/><line x1="817.3931028201787" y1="213.96769590970706" x2="729.1813743607419" y2="255.47698450671226"/><text x="582.5" y="151.13919315378692" text-anchor="middle" style="font-color:black;font-weight:normal" transform="rotate(417,582.5,324.5)">f_...ae</text><path class="line" d=" M 744.5859888755631,236.12785004667967 A 184.61176743951427,184.61176743951427 0 0 0 722.2501951668442,203.87086741599165"/><line x1="810.4243804211037" y1="200.23159367861842" x2="744.5859888755631" y2="236.12785004667967"/><text x="582.5" y="130.23573464542463" text-anchor="middle" style="font-color:black;font-weight:normal" transform="rotate(415.3,582.5,324.5)">g__Proteiniphilum</text><path class="line" d=" M 753.1302704200909,212.84267977991064 A 203.91676326963645,203.91676326963645 0 0 0 736.8639815596244,191.25658538064675"/><line x1="799.7240157739466" y1="182.352587181334" x2="753.1302704200909" y2="212.84267977991064"/><text x="814.2583816348183" y="324.5" text-anchor="start" style="font-color:black;font-weight:normal" transform="rotate(323,582.5,324.5)">2%&#160;&#160;&#160;s__Proteiniphilum sp002410345</text><path class="line" d=" M 761.5354465551185,226.88670572522278 A 203.91676326963645,203.91676326963645 0 0 0 753.1302704200909,212.84267977991064"/><text x="814.2583816348183" y="324.5" text-anchor="start" style="font-color:black;font-weight:normal" transform="rotate(329.1,582.5,324.5)">1%&#160;&#160;&#160;s__</text><line x1="833.85" y1="324.5" x2="850.35" y2="324.5" class="tick" transform="rotate(333.09999999999997,582.5,324.5)"/><text x="853.1" y="324.5" text-anchor="start" style="font-color:black;font-weight:normal" transform="rotate(333.09999999999997,582.5,324.5)">4 more</text><path class="line" d=" M 749.541721382838,245.8961324450276 A 184.61176743951427,184.61176743951427 0 0 0 744.5859888755631,236.12785004667967"/><path class="line" d=" M 738.8642548082993,281.7235804398265 A 162.1098462529119,162.1098462529119 0 0 0 729.1813743607419,255.47698450671226"/><line x1="832.8991058316444" y1="255.9985562289893" x2="738.8642548082993" y2="281.7235804398265"/><text x="582.5" y="151.13919315378692" text-anchor="middle" style="font-color:black;font-weight:normal" transform="rotate(429.74999999999994,582.5,324.5)">...</text><line x1="828.8282126229113" y1="242.55751000853223" x2="757.6736775906477" y2="266.2274733986149"/><path class="line" d=" M 757.6736775906477,266.2274733986149 A 184.61176743951427,184.61176743951427 0 0 0 749.541721382838,245.8961324450276"/><text x="804.6058837197571" y="324.5" text-anchor="start" style="font-color:black;font-weight:normal" transform="rotate(338.2,582.5,324.5)">2%&#160;&#160;&#160;s__</text><line x1="833.85" y1="324.5" x2="850.35" y2="324.5" class="tick" transform="rotate(343.15000000000003,582.5,324.5)"/><text x="853.1" y="324.5" text-anchor="start" style="font-color:black;font-weight:normal" transform="rotate(343.15000000000003,582.5,324.5)">4 more</text><path class="line" d=" M 760.5686498183893,275.7859298662373 A 184.61176743951427,184.61176743951427 0 0 0 757.6736775906477,266.2274733986149"/><line x1="837.2435755723868" y1="274.5212974898745" x2="741.5772028888932" y2="293.29029360617693"/><path class="line" d=" M 741.5772028888932,293.29029360617693 A 162.1098462529119,162.1098462529119 0 0 0 738.8642548082993,281.7235804398265"/><text x="582.5" y="151.13919315378692" text-anchor="middle" style="font-color:black;font-weight:normal" transform="rotate(436.8,582.5,324.5)">...</text><path class="line" d=" M 763.1442731950847,286.43228088050296 A 184.61176743951427,184.61176743951427 0 0 0 760.5686498183893,275.7859298662373"/><line x1="836.5209325324217" y1="270.969393471035" x2="763.1442731950847" y2="286.43228088050296"/><text x="804.6058837197571" y="324.5" text-anchor="start" style="font-color:black;font-weight:normal" transform="rotate(346.40000000000003,582.5,324.5)">0.9%&#160;&#160;&#160;s__SR-FBR-E99 sp002403305</text><path class="line" d=" M 763.6581730750378,288.95817948872127 A 184.61176743951427,184.61176743951427 0 0 0 763.1442731950847,286.43228088050296"/><line x1="833.85" y1="324.5" x2="850.35" y2="324.5" class="tick" transform="rotate(350.5,582.5,324.5)"/><text x="853.1" y="324.5" text-anchor="start" style="font-color:black;font-weight:normal" transform="rotate(350.5,582.5,324.5)">6 more</text><path class="line" d=" M 743.0713367976166,302.21888577361693 A 162.1098462529119,162.1098462529119 0 0 0 741.5772028888932,293.29029360617693"/><line x1="833.85" y1="324.5" x2="850.35" y2="324.5" class="tick" transform="rotate(354.6,582.5,324.5)"/><text x="853.1" y="324.5" text-anchor="start" style="font-color:black;font-weight:normal" transform="rotate(354.6,582.5,324.5)">3 more</text><path class="line" d=" M 717.8739813189516,317.642249946846 A 135.5475693398276,135.5475693398276 0 0 0 716.7611501500501,305.8697258656488"/><line x1="828.3957881028691" y1="407.73113235604154" x2="680.7455577040826" y2="357.7542866217813"/><path class="line" d=" M 680.7455577040826,357.7542866217813 A 103.72095828380007,103.72095828380007 0 0 0 686.0881287837246,319.2524517728485"/><text x="582.5" y="450.49958602301933" text-anchor="middle" style="font-color:black;font-weight:normal" transform="rotate(277.9,582.5,324.5)">c__An...ineae</text><line x1="829.2538839305727" y1="405.1516011321379" x2="711.340097041414" y2="366.6114348876216"/><path class="line" d=" M 711.340097041414,366.6114348876216 A 135.5475693398276,135.5475693398276 0 0 0 717.8739813189516,317.642249946846"/><text x="582.5" y="468.0162524137529" text-anchor="middle" style="font-color:black;font-weight:normal" transform="rotate(277.6,582.5,324.5)">f__A...9200</text><path class="line" d=" M 739.9976784699702,362.89379544552213 A 162.1098462529119,162.1098462529119 0 0 0 744.4022414429354,316.2983862626813"/><line x1="834.714151551389" y1="385.9831827186346" x2="739.9976784699702" y2="362.89379544552213"/><text x="582.5" y="497.8608068462131" text-anchor="middle" style="font-color:black;font-weight:normal" transform="rotate(275.40000000000003,582.5,324.5)">g__T78</text><path class="line" d=" M 764.7882080584648,353.6978403306677 A 184.61176743951427,184.61176743951427 0 0 0 766.8753457058282,315.1599479124766"/><line x1="838.8326242325367" y1="365.5578342592638" x2="764.7882080584648" y2="353.6978403306677"/><text x="804.6058837197571" y="324.5" text-anchor="start" style="font-color:black;font-weight:normal" transform="rotate(363.1,582.5,324.5)">3%&#160;&#160;&#160;s__T78 sp002347705</text><path class="line" d=" M 761.8594001970702,368.22310874227173 A 184.61176743951427,184.61176743951427 0 0 0 764.7882080584648,353.6978403306677"/><text x="804.6058837197571" y="324.5" text-anchor="start" style="font-color:black;font-weight:normal" transform="rotate(371.4,582.5,324.5)">1%&#160;&#160;&#160;s__T78 sp002399085</text><line x1="833.85" y1="324.5" x2="850.35" y2="324.5" class="tick" transform="rotate(375.90000000000003,582.5,324.5)"/><text x="853.1" y="324.5" text-anchor="start" style="font-color:black;font-weight:normal" transform="rotate(375.90000000000003,582.5,324.5)">3 more</text><path class="line" d=" M 736.587959115154,374.8637082418415 A 162.1098462529119,162.1098462529119 0 0 0 739.9976784699702,362.89379544552213"/><path class="line" d=" M 710.8920508021772,367.95831157266144 A 135.5475693398276,135.5475693398276 0 0 0 711.340097041414,366.6114348876216"/><line x1="791.1812410162296" y1="478.9159954406482" x2="665.8768039062248" y2="386.1955894508896"/><path class="line" d=" M 665.8768039062248,386.1955894508896 A 103.72095828380007,103.72095828380007 0 0 0 680.7455577040826,357.7542866217813"/><text x="582.5" y="437.76894160060834" text-anchor="middle" style="font-color:black;font-weight:normal" transform="rotate(297.6,582.5,324.5)">c__...lli</text><path class="line" d=" M 696.8196604819395,397.3296559186533 A 135.5475693398276,135.5475693398276 0 0 0 710.8920508021772,367.95831157266144"/><line x1="801.4444193330252" y1="463.98297832683545" x2="696.8196604819395" y2="397.3296559186533"/><text x="582.5" y="478.64116317898663" text-anchor="middle" style="font-color:black;font-weight:normal" transform="rotate(295.6,582.5,324.5)">o__RFN20</text><path class="line" d=" M 719.8268044327295,410.6449420246922 A 162.1098462529119,162.1098462529119 0 0 0 736.0521124945867,376.47452261053024"/><line x1="802.4128507908027" y1="462.4510712428944" x2="719.8268044327295" y2="410.6449420246922"/><text x="582.5" y="497.8608068462131" text-anchor="middle" style="font-color:black;font-weight:normal" transform="rotate(295.40000000000003,582.5,324.5)">f__CAG-826</text><line x1="814.0106386855136" y1="441.9520505373388" x2="747.1363181386112" y2="408.02477133703104"/><path class="line" d=" M 747.1363181386112,408.02477133703104 A 184.61176743951427,184.61176743951427 0 0 0 757.3661635115676,383.68893085609"/><text x="804.6058837197571" y="324.5" text-anchor="start" style="font-color:black;font-weight:normal" transform="rotate(382.79999999999995,582.5,324.5)">2%&#160;&#160;&#160;s__</text><line x1="802.6532857622083" y1="462.06704099493993" x2="739.059657905153" y2="422.3293319703389"/><path class="line" d=" M 739.059657905153,422.3293319703389 A 184.61176743951427,184.61176743951427 0 0 0 747.1363181386112,408.02477133703104"/><text x="804.6058837197571" y="324.5" text-anchor="start" style="font-color:black;font-weight:normal" transform="rotate(389.45,582.5,324.5)">1%&#160;&#160;&#160;s__UBA3207 sp902787955</text><path class="line" d=" M 738.8886751431136,422.6024309796806 A 184.61176743951427,184.61176743951427 0 0 0 739.059657905153,422.3293319703389"/><path class="line" d=" M 719.2220576117479,411.6015569008534 A 162.1098462529119,162.1098462529119 0 0 0 719.8268044327295,410.6449420246922"/><line x1="833.85" y1="324.5" x2="850.35" y2="324.5" class="tick" transform="rotate(394.5,582.5,324.5)"/><text x="853.1" y="324.5" text-anchor="start" style="font-color:black;font-weight:normal" transform="rotate(394.5,582.5,324.5)">5 more</text><path class="line" d=" M 691.4608435538084,405.12678293208694 A 135.5475693398276,135.5475693398276 0 0 0 696.8196604819395,397.3296559186533"/><line x1="766.3850218732878" y1="507.7442597481856" x2="655.9696867593796" y2="397.7136757360839"/><path class="line" d=" M 655.9696867593796,397.7136757360839 A 103.72095828380007,103.72095828380007 0 0 0 665.8768039062248,386.1955894508896"/><text x="582.5" y="450.49958602301933" text-anchor="middle" style="font-color:black;font-weight:normal" transform="rotate(310.7,582.5,324.5)">f__...540</text><path class="line" d=" M 680.004761465301,418.6592536372826 A 135.5475693398276,135.5475693398276 0 0 0 691.4608435538084,405.12678293208694"/><line x1="769.2406121679139" y1="504.8333129711557" x2="680.004761465301" y2="418.6592536372826"/><text x="582.5" y="468.0162524137529" text-anchor="middle" style="font-color:black;font-weight:normal" transform="rotate(310.25,582.5,324.5)">g__...s_A</text><path class="line" d=" M 703.7254334789382,432.128976256333 A 162.1098462529119,162.1098462529119 0 0 0 712.8131120840055,420.92663050798853"/><line x1="776.6283842934189" y1="496.85524480452193" x2="703.7254334789382" y2="432.128976256333"/><text x="793.354923126456" y="324.5" text-anchor="start" style="font-color:black;font-weight:normal" transform="rotate(399.05,582.5,324.5)">1%&#160;&#160;&#160;s__Syntrophomonas_A methylbutyratica</text><path class="line" d=" M 699.112064436499,437.11096163340636 A 162.1098462529119,162.1098462529119 0 0 0 703.7254334789382,432.128976256333"/><path class="line" d=" M 678.5137432701279,420.1791756715815 A 135.5475693398276,135.5475693398276 0 0 0 680.004761465301,418.6592536372826"/><line x1="737.6434881548454" y1="532.6409572456785" x2="644.486252938798" y2="407.6609381495733"/><path class="line" d=" M 644.486252938798,407.6609381495733 A 103.72095828380007,103.72095828380007 0 0 0 655.9696867593796,397.7136757360839"/><text x="582.5" y="437.76894160060834" text-anchor="middle" style="font-color:black;font-weight:normal" transform="rotate(319.1,582.5,324.5)">c__...iia</text><line x1="752.8129239259357" y1="520.4226070258317" x2="671.4272067231108" y2="426.79904915667834"/><path class="line" d=" M 671.4272067231108,426.79904915667834 A 135.5475693398276,135.5475693398276 0 0 0 678.5137432701279,420.1791756715815"/><text x="780.0737846699138" y="324.5" text-anchor="start" style="font-color:black;font-weight:normal" transform="rotate(406.95,582.5,324.5)">1%&#160;&#160;&#160;s__</text><path class="line" d=" M 664.0745635804523,432.753102175384 A 135.5475693398276,135.5475693398276 0 0 0 671.4272067231108,426.79904915667834"/><line x1="738.7311800102718" y1="531.8257784082773" x2="664.0745635804523" y2="432.753102175384"/><text x="582.5" y="478.64116317898663" text-anchor="middle" style="font-color:black;font-weight:normal" transform="rotate(321,582.5,324.5)">o__OPB41</text><line x1="739.8145887089786" y1="531.004915629931" x2="680.7366863981224" y2="453.4540836796558"/><path class="line" d=" M 680.7366863981224,453.4540836796558 A 162.1098462529119,162.1098462529119 0 0 0 688.8536283224859,446.8458540155132"/><text x="793.354923126456" y="324.5" text-anchor="start" style="font-color:black;font-weight:normal" transform="rotate(410.8500000000001,582.5,324.5)">1%&#160;&#160;&#160;s__UBA7930 sp003453535</text><path class="line" d=" M 680.0601408758712,453.9666797458825 A 162.1098462529119,162.1098462529119 0 0 0 680.7366863981224,453.4540836796558"/><path class="line" d=" M 663.5066360488892,433.17873973311515 A 135.5475693398276,135.5475693398276 0 0 0 664.0745635804523,432.753102175384"/><line x1="710.3331562028601" y1="550.444338665998" x2="633.5746435354521" y2="414.7741268306501"/><path class="line" d=" M 633.5746435354521,414.7741268306501 A 103.72095828380007,103.72095828380007 0 0 0 644.486252938798,407.6609381495733"/><text x="764.1604791419" y="324.5" text-anchor="start" style="font-color:black;font-weight:normal" transform="rotate(416.9,582.5,324.5)">2%&#160;&#160;&#160;s__</text><path class="line" d=" M 621.8575564930389,420.4636386044581 A 103.72095828380007,103.72095828380007 0 0 0 633.5746435354521,414.7741268306501"/><line x1="681.0068190137297" y1="564.684442892949" x2="621.8575564930389" y2="420.4636386044581"/><text x="582.5" y="450.49958602301933" text-anchor="middle" style="font-color:black;font-weight:normal" transform="rotate(334.09999999999997,582.5,324.5)">p__...s_G</text><line x1="681.4258697005312" y1="564.5121503257565" x2="634.153163261693" y2="449.8199675989276"/><path class="line" d=" M 634.153163261693,449.8199675989276 A 135.5475693398276,135.5475693398276 0 0 0 649.2468166576895,442.4745990457274"/><text x="780.0737846699138" y="324.5" text-anchor="start" style="font-color:black;font-weight:normal" transform="rotate(424.05000000000007,582.5,324.5)">2%&#160;&#160;&#160;s__</text><path class="line" d=" M 633.9343600951825,449.90992845677914 A 135.5475693398276,135.5475693398276 0 0 0 634.153163261693,449.8199675989276"/><line x1="652.3115854317231" y1="574.5370023406721" x2="610.392621495723" y2="424.4001444113377"/><path class="line" d=" M 610.392621495723,424.4001444113377 A 103.72095828380007,103.72095828380007 0 0 0 621.8575564930389,420.4636386044581"/><text x="764.1604791419" y="324.5" text-anchor="start" style="font-color:black;font-weight:normal" transform="rotate(431.05,582.5,324.5)">2%&#160;&#160;&#160;o__Synergistales</text><line x1="833.85" y1="324.5" x2="850.35" y2="324.5" class="tick" transform="rotate(442.2,582.5,324.5)"/><text x="853.1" y="324.5" text-anchor="start" style="font-color:black;font-weight:normal" transform="rotate(442.2,582.5,324.5)">17 more</text><path class="line" d=" M 582.5,428.2209582838001 A 103.72095828380007,103.72095828380007 0 0 0 610.392621495723,424.4001444113377"/></svg>