<?xml version="1.0" standalone="no"?><!DOCTYPE svg PUBLIC "-//W3C//DTD SVG 1.1//EN" 	"http://www.w3.org/Graphics/SVG/1.1/DTD/svg11.dtd"><svg width="1315" height="649" version="1.1"	xmlns="http://www.w3.org/2000/svg"><title>Krona (snapshot) - all</title><defs>	<style type="text/css">	text {font-size: 11px; font-family: sans-serif; dominant-baseline:central}	path {stroke-width:0.27499999999999997;}	path.wedge {stroke:none}	path.line {fill:none;stroke:black;}	line {stroke:black;stroke-width:0.27499999999999997;}	line.tick {stroke-width:0.5499999999999999;}	line.pattern {stroke-width:0.18333333333333332;}	circle {fill:none;stroke:black;stroke-width:0.27499999999999997;}	rect {stroke:black;stroke-width:0.27499999999999997;}	.highlight {stroke:black;stroke-width:1.375;}	.searchHighlight {fill:rgb(255, 255, 100);stroke:none;}	</style><pattern id="hiddenPattern" patternUnits="userSpaceOnUse" x="0" y="0" width="6.6" height="6.6"><line class="pattern" x1="0" y1="0" x2="3.3" y2="3.3"/><line class="pattern" x1="3.3" y1="6.6" x2="6.6" y2="3.3"/></pattern></defs><path class="wedge" fill="rgb(220,220,220)" d=" M 582.5000000000001,389.4 L 582.5000000000003,584.1 A 259.6,259.6 0 0,1 582.5000000000001,584.1 L 582.5,389.4 A 64.9,64.9 0 0 0 582.5000000000001,389.4 Z "/><path class="wedge" fill="rgb(207,111,111)" d=" M 582.5,389.4 L 582.5,584.1 A 259.6,259.6 0 1,1 828.5695675417863,241.78405274798422 L 644.0173918854466,303.821013186996 A 64.9,64.9 0 1 0 582.5,389.4 Z "/><path class="wedge" fill="rgb(210,121,121)" d=" M 582.5,428.1075669592634 L 582.5,584.1 A 259.6,259.6 0 0,1 366.72603480501476,468.8390312563906 L 496.3836072919676,382.10637845043027 A 103.60756695926342,103.60756695926342 0 0 0 582.5,428.1075669592634 Z "/><path class="wedge" fill="rgb(210,121,121)" d=" M 582.5,428.1075669592634 L 582.5,584.1 A 259.6,259.6 0 0,1 366.72603480501476,468.8390312563906 L 496.3836072919676,382.10637845043027 A 103.60756695926342,103.60756695926342 0 0 0 582.5,428.1075669592634 Z "/><path class="wedge" fill="rgb(210,121,121)" d=" M 582.5,428.1075669592634 L 582.5,584.1 A 259.6,259.6 0 0,1 366.72603480501476,468.8390312563906 L 496.3836072919676,382.10637845043027 A 103.60756695926342,103.60756695926342 0 0 0 582.5,428.1075669592634 Z "/><path class="wedge" fill="rgb(213,130,130)" d=" M 582.5,458.33249369466614 L 582.5,584.1 A 259.6,259.6 0 0,1 374.6029982589848,479.97024367092354 L 475.322133379644,404.65011712556657 A 133.83249369466614,133.83249369466614 0 0 0 582.5,458.33249369466614 Z "/><path class="wedge" fill="rgb(216,140,140)" d=" M 582.5,482.5794040735814 L 582.5,584.1 A 259.6,259.6 0 0,1 470.9029265252343,558.8891063848057 L 514.5446884774783,467.2276204108218 A 158.07940407358137,158.07940407358137 0 0 0 582.5,482.5794040735814 Z "/><path class="wedge" fill="rgb(216,140,140)" d=" M 582.5,482.5794040735814 L 582.5,584.1 A 259.6,259.6 0 0,1 470.9029265252343,558.8891063848057 L 514.5446884774783,467.2276204108218 A 158.07940407358137,158.07940407358137 0 0 0 582.5,482.5794040735814 Z "/><path class="wedge" fill="rgb(216,143,140)" d=" M 514.5446884774783,467.2276204108218 L 470.9029265252343,558.8891063848057 A 259.6,259.6 0 0,1 399.6734334474921,508.80031623038906 L 471.1705905645631,436.72682650336094 A 158.07940407358137,158.07940407358137 0 0 0 514.5446884774783,467.2276204108218 Z "/><path class="wedge" fill="rgb(219,153,149)" d=" M 505.99936179734436,485.17550579847705 L 470.9029265252343,558.8891063848057 A 259.6,259.6 0 0,1 399.7056027052435,508.8322226786373 L 457.19305764473563,450.86113329099464 A 177.95776411556216,177.95776411556216 0 0 0 505.99936179734436,485.17550579847705 Z "/><path class="wedge" fill="rgb(219,155,149)" d=" M 457.19305764473563,450.86113329099464 L 399.7056027052435,508.8322226786373 A 259.6,259.6 0 0,1 399.6734334474921,508.80031623038906 L 457.1710053751567,450.8392611793185 A 177.95776411556216,177.95776411556216 0 0 0 457.19305764473563,450.86113329099464 Z "/><path class="wedge" fill="url(#hiddenPattern)" d=" M 457.19305764473563,450.86113329099464 L 399.7056027052435,508.8322226786373 A 259.6,259.6 0 0,1 399.6734334474921,508.80031623038906 L 457.1710053751567,450.8392611793185 A 177.95776411556216,177.95776411556216 0 0 0 457.19305764473563,450.86113329099464 Z "/><path class="wedge" fill="rgb(216,146,140)" d=" M 471.1705905645631,436.72682650336094 L 399.6734334474921,508.80031623038906 A 259.6,259.6 0 0,1 380.15547675158683,487.13103612586497 L 459.2854327709473,423.53165360033057 A 158.07940407358137,158.07940407358137 0 0 0 471.1705905645631,436.72682650336094 Z "/><path class="wedge" fill="rgb(216,146,140)" d=" M 471.1705905645631,436.72682650336094 L 399.6734334474921,508.80031623038906 A 259.6,259.6 0 0,1 380.15547675158683,487.13103612586497 L 459.2854327709473,423.53165360033057 A 158.07940407358137,158.07940407358137 0 0 0 471.1705905645631,436.72682650336094 Z "/><path class="wedge" fill="rgb(213,138,130)" d=" M 459.2854327709473,423.53165360033057 L 380.15547675158683,487.13103612586497 A 259.6,259.6 0 0,1 374.6029982589848,479.97024367092354 L 455.9043368878891,419.1711998099926 A 158.07940407358137,158.07940407358137 0 0 0 459.2854327709473,423.53165360033057 Z "/><path class="wedge" fill="url(#hiddenPattern)" d=" M 459.2854327709473,423.53165360033057 L 380.15547675158683,487.13103612586497 A 259.6,259.6 0 0,1 374.6029982589848,479.97024367092354 L 455.9043368878891,419.1711998099926 A 158.07940407358137,158.07940407358137 0 0 0 459.2854327709473,423.53165360033057 Z "/><path class="wedge" fill="rgb(210,130,121)" d=" M 475.322133379644,404.65011712556657 L 374.6029982589848,479.97024367092354 A 259.6,259.6 0 0,1 366.72603480501476,468.8390312563906 L 471.2612949290024,398.9116043548348 A 133.83249369466614,133.83249369466614 0 0 0 475.322133379644,404.65011712556657 Z "/><path class="wedge" fill="url(#hiddenPattern)" d=" M 475.322133379644,404.65011712556657 L 374.6029982589848,479.97024367092354 A 259.6,259.6 0 0,1 366.72603480501476,468.8390312563906 L 471.2612949290024,398.9116043548348 A 133.83249369466614,133.83249369466614 0 0 0 475.322133379644,404.65011712556657 Z "/><path class="wedge" fill="rgb(210,131,121)" d=" M 496.3836072919676,382.10637845043027 L 366.72603480501476,468.8390312563906 A 259.6,259.6 0 0,1 333.7324076399986,250.29188055604567 L 483.21569729301393,294.883194513827 A 103.60756695926342,103.60756695926342 0 0 0 496.3836072919676,382.10637845043027 Z "/><path class="wedge" fill="rgb(213,139,130)" d=" M 471.2612949290024,398.9116043548348 L 366.72603480501476,468.8390312563906 A 259.6,259.6 0 0,1 333.57753223988664,250.81306055877096 L 454.172131752827,286.51191503024836 A 133.83249369466614,133.83249369466614 0 0 0 471.2612949290024,398.9116043548348 Z "/><path class="wedge" fill="rgb(216,148,140)" d=" M 451.10778184662195,412.3930202063492 L 366.72603480501476,468.8390312563906 A 259.6,259.6 0 0,1 327.1812199251192,277.5481039672019 L 427.02757857075915,295.9093692411808 A 158.07940407358137,158.07940407358137 0 0 0 451.10778184662195,412.3930202063492 Z "/><path class="wedge" fill="rgb(219,157,149)" d=" M 434.58531432800964,423.4454979853371 L 366.72603480501476,468.8390312563906 A 259.6,259.6 0 0,1 334.2830603678059,400.529671047741 L 412.34540989001255,376.6189147384348 A 177.95776411556216,177.95776411556216 0 0 0 434.58531432800964,423.4454979853371 Z "/><path class="wedge" fill="rgb(223,166,159)" d=" M 420.795773344704,432.6698220839466 L 366.72603480501476,468.8390312563906 A 259.6,259.6 0 0,1 338.2780628412958,412.52161899471037 L 399.4764390026403,390.4647136559066 A 194.54811057386297,194.54811057386297 0 0 0 420.795773344704,432.6698220839466 Z "/><path class="wedge" fill="rgb(226,175,168)" d=" M 409.11412551680564,440.4840999994194 L 366.72603480501476,468.8390312563906 A 259.6,259.6 0 0,1 339.6267133871478,416.17729626178647 L 387.3383772809512,398.1675908432263 A 208.60242789329502,208.60242789329502 0 0 0 409.11412551680564,440.4840999994194 Z "/><path class="wedge" fill="rgb(226,176,168)" d=" M 387.3383772809512,398.1675908432263 L 339.6267133871478,416.17729626178647 A 259.6,259.6 0 0,1 338.2780628412958,412.52161899471037 L 386.2546647299329,395.2300594352664 A 208.60242789329502,208.60242789329502 0 0 0 387.3383772809512,398.1675908432263 Z "/><path class="wedge" fill="url(#hiddenPattern)" d=" M 387.3383772809512,398.1675908432263 L 339.6267133871478,416.17729626178647 A 259.6,259.6 0 0,1 338.2780628412958,412.52161899471037 L 386.2546647299329,395.2300594352664 A 208.60242789329502,208.60242789329502 0 0 0 387.3383772809512,398.1675908432263 Z "/><path class="wedge" fill="rgb(219,159,149)" d=" M 399.4764390026403,390.4647136559066 L 338.2780628412958,412.52161899471037 A 259.6,259.6 0 0,1 334.2830603678059,400.529671047741 L 396.4825245844762,381.4777690673742 A 194.54811057386297,194.54811057386297 0 0 0 399.4764390026403,390.4647136559066 Z "/><path class="wedge" fill="url(#hiddenPattern)" d=" M 399.4764390026403,390.4647136559066 L 338.2780628412958,412.52161899471037 A 259.6,259.6 0 0,1 334.2830603678059,400.529671047741 L 396.4825245844762,381.4777690673742 A 194.54811057386297,194.54811057386297 0 0 0 399.4764390026403,390.4647136559066 Z "/><path class="wedge" fill="rgb(219,159,149)" d=" M 412.34540989001255,376.6189147384348 L 334.2830603678059,400.529671047741 A 259.6,259.6 0 0,1 325.43271902898476,360.67420426449087 L 406.2784339411831,349.29769071482445 A 177.95776411556216,177.95776411556216 0 0 0 412.34540989001255,376.6189147384348 Z "/><path class="wedge" fill="rgb(223,168,159)" d=" M 396.4825245844762,381.4777690673742 L 334.2830603678059,400.529671047741 A 259.6,259.6 0 0,1 326.1602137277533,365.51309515141315 L 390.3951422027217,355.23582500190093 A 194.54811057386297,194.54811057386297 0 0 0 396.4825245844762,381.4777690673742 Z "/><path class="wedge" fill="rgb(226,177,168)" d=" M 383.04446744407113,385.5938904949435 L 334.2830603678059,400.529671047741 A 259.6,259.6 0 0,1 328.2937583625896,377.1435818745507 L 378.2317442558034,366.8019221572833 A 208.60242789329502,208.60242789329502 0 0 0 383.04446744407113,385.5938904949435 Z "/><path class="wedge" fill="rgb(226,177,168)" d=" M 378.2317442558034,366.8019221572833 L 328.2937583625896,377.1435818745507 A 259.6,259.6 0 0,1 326.1602137277533,365.51309515141315 L 376.5173274959977,357.45620656395806 A 208.60242789329502,208.60242789329502 0 0 0 378.2317442558034,366.8019221572833 Z "/><path class="wedge" fill="url(#hiddenPattern)" d=" M 378.2317442558034,366.8019221572833 L 328.2937583625896,377.1435818745507 A 259.6,259.6 0 0,1 326.1602137277533,365.51309515141315 L 376.5173274959977,357.45620656395806 A 208.60242789329502,208.60242789329502 0 0 0 378.2317442558034,366.8019221572833 Z "/><path class="wedge" fill="rgb(219,161,149)" d=" M 390.3951422027217,355.23582500190093 L 326.1602137277533,365.51309515141315 A 259.6,259.6 0 0,1 325.43271902898476,360.67420426449087 L 389.84994682869274,351.6094880245365 A 194.54811057386297,194.54811057386297 0 0 0 390.3951422027217,355.23582500190093 Z "/><path class="wedge" fill="url(#hiddenPattern)" d=" M 390.3951422027217,355.23582500190093 L 326.1602137277533,365.51309515141315 A 259.6,259.6 0 0,1 325.43271902898476,360.67420426449087 L 389.84994682869274,351.6094880245365 A 194.54811057386297,194.54811057386297 0 0 0 390.3951422027217,355.23582500190093 Z "/><path class="wedge" fill="rgb(216,152,140)" d=" M 406.2784339411831,349.29769071482445 L 325.43271902898476,360.67420426449087 A 259.6,259.6 0 0,1 323.5938473248909,343.46744861527486 L 405.01787347525124,337.5023295321692 A 177.95776411556216,177.95776411556216 0 0 0 406.2784339411831,349.29769071482445 Z "/><path class="wedge" fill="url(#hiddenPattern)" d=" M 406.2784339411831,349.29769071482445 L 325.43271902898476,360.67420426449087 A 259.6,259.6 0 0,1 323.5938473248909,343.46744861527486 L 405.01787347525124,337.5023295321692 A 177.95776411556216,177.95776411556216 0 0 0 406.2784339411831,349.29769071482445 Z "/><path class="wedge" fill="rgb(216,154,140)" d=" M 405.01787347525124,337.5023295321692 L 323.5938473248909,343.46744861527486 A 259.6,259.6 0 0,1 327.1812199251192,277.5481039672019 L 407.47704453451956,292.3141200347339 A 177.95776411556216,177.95776411556216 0 0 0 405.01787347525124,337.5023295321692 Z "/><path class="wedge" fill="url(#hiddenPattern)" d=" M 405.01787347525124,337.5023295321692 L 323.5938473248909,343.46744861527486 A 259.6,259.6 0 0,1 327.1812199251192,277.5481039672019 L 407.47704453451956,292.3141200347339 A 177.95776411556216,177.95776411556216 0 0 0 405.01787347525124,337.5023295321692 Z "/><path class="wedge" fill="rgb(213,147,130)" d=" M 427.02757857075915,295.9093692411808 L 327.1812199251192,277.5481039672019 A 259.6,259.6 0 0,1 333.57753223988664,250.81306055877096 L 430.9225140059939,279.62947813992463 A 158.07940407358137,158.07940407358137 0 0 0 427.02757857075915,295.9093692411808 Z "/><path class="wedge" fill="url(#hiddenPattern)" d=" M 427.02757857075915,295.9093692411808 L 327.1812199251192,277.5481039672019 A 259.6,259.6 0 0,1 333.57753223988664,250.81306055877096 L 430.9225140059939,279.62947813992463 A 158.07940407358137,158.07940407358137 0 0 0 427.02757857075915,295.9093692411808 Z "/><path class="wedge" fill="rgb(210,139,121)" d=" M 454.172131752827,286.51191503024836 L 333.57753223988664,250.81306055877096 A 259.6,259.6 0 0,1 333.7324076399986,250.29188055604567 L 454.2519752081773,286.2432292851462 A 133.83249369466614,133.83249369466614 0 0 0 454.172131752827,286.51191503024836 Z "/><path class="wedge" fill="url(#hiddenPattern)" d=" M 454.172131752827,286.51191503024836 L 333.57753223988664,250.81306055877096 A 259.6,259.6 0 0,1 333.7324076399986,250.29188055604567 L 454.2519752081773,286.2432292851462 A 133.83249369466614,133.83249369466614 0 0 0 454.172131752827,286.51191503024836 Z "/><path class="wedge" fill="rgb(210,140,121)" d=" M 483.21569729301393,294.883194513827 L 333.7324076399986,250.29188055604567 A 259.6,259.6 0 0,1 428.99601528481384,115.14698073216164 L 521.2358460135116,240.94623666442016 A 103.60756695926342,103.60756695926342 0 0 0 483.21569729301393,294.883194513827 Z "/><path class="wedge" fill="rgb(213,148,130)" d=" M 454.2519752081773,286.2432292851462 L 333.7324076399986,250.29188055604567 A 259.6,259.6 0 0,1 425.69046711007144,117.61130916639638 L 501.65943443083626,217.84195141954552 A 133.83249369466614,133.83249369466614 0 0 0 454.2519752081773,286.2432292851462 Z "/><path class="wedge" fill="rgb(216,156,140)" d=" M 431.01682298502067,279.3121136397479 L 333.7324076399986,250.29188055604567 A 259.6,259.6 0 0,1 364.95402139189764,182.8458183058365 L 450.02874169116757,238.24187740083136 A 158.07940407358137,158.07940407358137 0 0 0 431.01682298502067,279.3121136397479 Z "/><path class="wedge" fill="rgb(216,156,140)" d=" M 431.01682298502067,279.3121136397479 L 333.7324076399986,250.29188055604567 A 259.6,259.6 0 0,1 364.95402139189764,182.8458183058365 L 450.02874169116757,238.24187740083136 A 158.07940407358137,158.07940407358137 0 0 0 431.01682298502067,279.3121136397479 Z "/><path class="wedge" fill="rgb(219,164,149)" d=" M 411.96793327890043,273.6297726676938 L 333.7324076399986,250.29188055604567 A 259.6,259.6 0 0,1 361.84398455413145,187.74078514574376 L 431.2386319437761,230.75052350669023 A 177.95776411556216,177.95776411556216 0 0 0 411.96793327890043,273.6297726676938 Z "/><path class="wedge" fill="rgb(223,172,159)" d=" M 396.06985722015713,268.88732886340193 L 333.7324076399986,250.29188055604567 A 259.6,259.6 0 0,1 359.1436803510084,192.19688411508398 L 415.1134438657816,225.35007234805374 A 194.54811057386297,194.54811057386297 0 0 0 396.06985722015713,268.88732886340193 Z "/><path class="wedge" fill="rgb(223,174,159)" d=" M 415.1134438657816,225.35007234805374 L 359.1436803510084,192.19688411508398 A 259.6,259.6 0 0,1 361.84398455413145,187.74078514574376 L 417.1370920964913,222.01060534106114 A 194.54811057386297,194.54811057386297 0 0 0 415.1134438657816,225.35007234805374 Z "/><path class="wedge" fill="url(#hiddenPattern)" d=" M 415.1134438657816,225.35007234805374 L 359.1436803510084,192.19688411508398 A 259.6,259.6 0 0,1 361.84398455413145,187.74078514574376 L 417.1370920964913,222.01060534106114 A 194.54811057386297,194.54811057386297 0 0 0 415.1134438657816,225.35007234805374 Z "/><path class="wedge" fill="rgb(216,158,140)" d=" M 431.2386319437761,230.75052350669023 L 361.84398455413145,187.74078514574376 A 259.6,259.6 0 0,1 364.95402139189764,182.8458183058365 L 433.3705857263875,227.3949867029548 A 177.95776411556216,177.95776411556216 0 0 0 431.2386319437761,230.75052350669023 Z "/><path class="wedge" fill="url(#hiddenPattern)" d=" M 431.2386319437761,230.75052350669023 L 361.84398455413145,187.74078514574376 A 259.6,259.6 0 0,1 364.95402139189764,182.8458183058365 L 433.3705857263875,227.3949867029548 A 177.95776411556216,177.95776411556216 0 0 0 431.2386319437761,230.75052350669023 Z "/><path class="wedge" fill="rgb(216,158,140)" d=" M 450.02874169116757,238.24187740083136 L 364.95402139189764,182.8458183058365 A 259.6,259.6 0 0,1 380.9812147387531,160.8468937452409 L 459.7882531443378,224.84597260576732 A 158.07940407358137,158.07940407358137 0 0 0 450.02874169116757,238.24187740083136 Z "/><path class="wedge" fill="rgb(216,158,140)" d=" M 444.27906148338025,212.4110265699838 L 380.8670124355274,160.98762026737782 A 259.6,259.6 0 0,1 380.9812147387531,160.8468937452409 L 444.35734802628815,212.31455747433188 A 177.95776411556216,177.95776411556216 0 0 0 444.27906148338025,212.4110265699838 Z "/><path class="wedge" fill="rgb(216,158,140)" d=" M 433.3705857263875,227.3949867029548 L 364.95402139189764,182.8458183058365 A 259.6,259.6 0 0,1 374.4674040554634,169.21123986399664 L 439.89208151985406,218.04838002280047 A 177.95776411556216,177.95776411556216 0 0 0 433.3705857263875,227.3949867029548 Z "/><path class="wedge" fill="url(#hiddenPattern)" d=" M 433.3705857263875,227.3949867029548 L 364.95402139189764,182.8458183058365 A 259.6,259.6 0 0,1 374.4674040554634,169.21123986399664 L 439.89208151985406,218.04838002280047 A 177.95776411556216,177.95776411556216 0 0 0 433.3705857263875,227.3949867029548 Z "/><path class="wedge" fill="rgb(216,159,140)" d=" M 439.89208151985406,218.04838002280047 L 374.4674040554634,169.21123986399664 A 259.6,259.6 0 0,1 380.8670124355274,160.98762026737782 L 444.27906148338025,212.4110265699838 A 177.95776411556216,177.95776411556216 0 0 0 439.89208151985406,218.04838002280047 Z "/><path class="wedge" fill="url(#hiddenPattern)" d=" M 439.89208151985406,218.04838002280047 L 374.4674040554634,169.21123986399664 A 259.6,259.6 0 0,1 380.8670124355274,160.98762026737782 L 444.27906148338025,212.4110265699838 A 177.95776411556216,177.95776411556216 0 0 0 439.89208151985406,218.04838002280047 Z "/><path class="wedge" fill="rgb(216,159,140)" d=" M 459.7882531443378,224.84597260576732 L 380.9812147387531,160.8468937452409 A 259.6,259.6 0 0,1 398.2635135074613,141.6091116406161 L 470.3120416280781,213.13142279530314 A 158.07940407358137,158.07940407358137 0 0 0 459.7882531443378,224.84597260576732 Z "/><path class="wedge" fill="rgb(216,159,140)" d=" M 444.35734802628815,212.31455747433188 L 380.9812147387531,160.8468937452409 A 259.6,259.6 0 0,1 393.5391214194088,146.4945327635944 L 452.965888068127,202.47590543244723 A 177.95776411556216,177.95776411556216 0 0 0 444.35734802628815,212.31455747433188 Z "/><path class="wedge" fill="url(#hiddenPattern)" d=" M 444.35734802628815,212.31455747433188 L 380.9812147387531,160.8468937452409 A 259.6,259.6 0 0,1 393.5391214194088,146.4945327635944 L 452.965888068127,202.47590543244723 A 177.95776411556216,177.95776411556216 0 0 0 444.35734802628815,212.31455747433188 Z "/><path class="wedge" fill="rgb(216,160,140)" d=" M 452.965888068127,202.47590543244723 L 393.5391214194088,146.4945327635944 A 259.6,259.6 0 0,1 398.2635135074613,141.6091116406161 L 456.20449458890926,199.12691228988888 A 177.95776411556216,177.95776411556216 0 0 0 452.965888068127,202.47590543244723 Z "/><path class="wedge" fill="url(#hiddenPattern)" d=" M 452.965888068127,202.47590543244723 L 393.5391214194088,146.4945327635944 A 259.6,259.6 0 0,1 398.2635135074613,141.6091116406161 L 456.20449458890926,199.12691228988888 A 177.95776411556216,177.95776411556216 0 0 0 452.965888068127,202.47590543244723 Z "/><path class="wedge" fill="rgb(213,153,130)" d=" M 470.3120416280781,213.13142279530314 L 398.2635135074613,141.6091116406161 A 259.6,259.6 0 0,1 425.69046711007144,117.61130916639638 L 487.013260738457,198.51833221672007 A 158.07940407358137,158.07940407358137 0 0 0 470.3120416280781,213.13142279530314 Z "/><path class="wedge" fill="url(#hiddenPattern)" d=" M 470.3120416280781,213.13142279530314 L 398.2635135074613,141.6091116406161 A 259.6,259.6 0 0,1 425.69046711007144,117.61130916639638 L 487.013260738457,198.51833221672007 A 158.07940407358137,158.07940407358137 0 0 0 470.3120416280781,213.13142279530314 Z "/><path class="wedge" fill="rgb(210,146,121)" d=" M 501.65943443083626,217.84195141954552 L 425.69046711007144,117.61130916639638 A 259.6,259.6 0 0,1 428.99601528481384,115.14698073216164 L 503.3635552137855,216.57150758427468 A 133.83249369466614,133.83249369466614 0 0 0 501.65943443083626,217.84195141954552 Z "/><path class="wedge" fill="url(#hiddenPattern)" d=" M 501.65943443083626,217.84195141954552 L 425.69046711007144,117.61130916639638 A 259.6,259.6 0 0,1 428.99601528481384,115.14698073216164 L 503.3635552137855,216.57150758427468 A 133.83249369466614,133.83249369466614 0 0 0 501.65943443083626,217.84195141954552 Z "/><path class="wedge" fill="rgb(210,146,121)" d=" M 521.2358460135116,240.94623666442016 L 428.99601528481384,115.14698073216164 A 259.6,259.6 0 0,1 582.3187650251948,64.90006326294315 L 582.4276682789388,220.89245828927133 A 103.60756695926342,103.60756695926342 0 0 0 521.2358460135116,240.94623666442016 Z "/><path class="wedge" fill="rgb(213,154,130)" d=" M 503.3635552137855,216.57150758427468 L 428.99601528481384,115.14698073216164 A 259.6,259.6 0 0,1 565.2048782368386,65.4767601870492 L 573.583785538071,190.96484549676913 A 133.83249369466614,133.83249369466614 0 0 0 503.3635552137855,216.57150758427468 Z "/><path class="wedge" fill="rgb(216,162,140)" d=" M 489.02612316372586,197.01771753904126 L 428.99601528481384,115.14698073216164 A 259.6,259.6 0 0,1 503.09836025036526,77.34106408007571 L 534.1495997916509,173.99638943882084 A 158.07940407358137,158.07940407358137 0 0 0 489.02612316372586,197.01771753904126 Z "/><path class="wedge" fill="rgb(219,169,149)" d=" M 477.2718570772575,180.98692134149954 L 428.99601528481384,115.14698073216164 A 259.6,259.6 0 0,1 502.9689590242575,77.3826725595415 L 527.9808696847986,155.0992023670368 A 177.95776411556216,177.95776411556216 0 0 0 477.2718570772575,180.98692134149954 Z "/><path class="wedge" fill="rgb(223,177,159)" d=" M 467.4618251467696,167.60772595727474 L 428.99601528481384,115.14698073216164 A 259.6,259.6 0 0,1 460.0654731927014,95.58528521418091 L 490.7457401411213,152.94789967590205 A 194.54811057386297,194.54811057386297 0 0 0 467.4618251467696,167.60772595727474 Z "/><path class="wedge" fill="rgb(226,185,168)" d=" M 459.15137171462607,156.27369758835573 L 428.99601528481384,115.14698073216164 A 259.6,259.6 0 0,1 460.0255219028958,95.60665755675208 L 484.08523310469906,140.57200707907202 A 208.60242789329502,208.60242789329502 0 0 0 459.15137171462607,156.27369758835573 Z "/><path class="wedge" fill="rgb(226,186,168)" d=" M 484.08523310469906,140.57200707907202 L 460.0255219028958,95.60665755675208 A 259.6,259.6 0 0,1 460.0654731927014,95.58528521418091 L 484.1173360941094,140.55483326339362 A 208.60242789329502,208.60242789329502 0 0 0 484.08523310469906,140.57200707907202 Z "/><path class="wedge" fill="url(#hiddenPattern)" d=" M 484.08523310469906,140.57200707907202 L 460.0255219028958,95.60665755675208 A 259.6,259.6 0 0,1 460.0654731927014,95.58528521418091 L 484.1173360941094,140.55483326339362 A 208.60242789329502,208.60242789329502 0 0 0 484.08523310469906,140.57200707907202 Z "/><path class="wedge" fill="rgb(223,178,159)" d=" M 490.7457401411213,152.94789967590205 L 460.0654731927014,95.58528521418091 A 259.6,259.6 0 0,1 485.25212834922917,83.80307135446199 L 509.620995042423,144.1181329394402 A 194.54811057386297,194.54811057386297 0 0 0 490.7457401411213,152.94789967590205 Z "/><path class="wedge" fill="rgb(226,186,168)" d=" M 484.1173360941094,140.55483326339362 L 460.0654731927014,95.58528521418091 A 259.6,259.6 0 0,1 481.6086496555125,85.30740934204104 L 501.42842590410976,132.29601253722146 A 208.60242789329502,208.60242789329502 0 0 0 484.1173360941094,140.55483326339362 Z "/><path class="wedge" fill="rgb(226,186,168)" d=" M 501.42842590410976,132.29601253722146 L 481.6086496555125,85.30740934204104 A 259.6,259.6 0 0,1 485.25212834922917,83.80307135446199 L 504.3561551086043,131.08719683390441 A 208.60242789329502,208.60242789329502 0 0 0 501.42842590410976,132.29601253722146 Z "/><path class="wedge" fill="url(#hiddenPattern)" d=" M 501.42842590410976,132.29601253722146 L 481.6086496555125,85.30740934204104 A 259.6,259.6 0 0,1 485.25212834922917,83.80307135446199 L 504.3561551086043,131.08719683390441 A 208.60242789329502,208.60242789329502 0 0 0 501.42842590410976,132.29601253722146 Z "/><path class="wedge" fill="rgb(219,172,149)" d=" M 509.620995042423,144.1181329394402 L 485.25212834922917,83.80307135446199 A 259.6,259.6 0 0,1 502.9689590242575,77.3826725595415 L 522.898252103994,139.3065903559175 A 194.54811057386297,194.54811057386297 0 0 0 509.620995042423,144.1181329394402 Z "/><path class="wedge" fill="url(#hiddenPattern)" d=" M 509.620995042423,144.1181329394402 L 485.25212834922917,83.80307135446199 A 259.6,259.6 0 0,1 502.9689590242575,77.3826725595415 L 522.898252103994,139.3065903559175 A 194.54811057386297,194.54811057386297 0 0 0 509.620995042423,144.1181329394402 Z "/><path class="wedge" fill="rgb(216,164,140)" d=" M 527.9808696847986,155.0992023670368 L 502.9689590242575,77.3826725595415 A 259.6,259.6 0 0,1 503.09836025036526,77.34106408007571 L 528.0695752043362,155.07067943955616 A 177.95776411556216,177.95776411556216 0 0 0 527.9808696847986,155.0992023670368 Z "/><path class="wedge" fill="url(#hiddenPattern)" d=" M 527.9808696847986,155.0992023670368 L 502.9689590242575,77.3826725595415 A 259.6,259.6 0 0,1 503.09836025036526,77.34106408007571 L 528.0695752043362,155.07067943955616 A 177.95776411556216,177.95776411556216 0 0 0 527.9808696847986,155.0992023670368 Z "/><path class="wedge" fill="rgb(216,164,140)" d=" M 534.1495997916509,173.99638943882084 L 503.09836025036526,77.34106408007571 A 259.6,259.6 0 0,1 530.4777176869695,70.16588482285084 L 550.8218359530375,169.62717502779145 A 158.07940407358137,158.07940407358137 0 0 0 534.1495997916509,173.99638943882084 Z "/><path class="wedge" fill="rgb(216,164,140)" d=" M 534.1495997916509,173.99638943882084 L 503.09836025036526,77.34106408007571 A 259.6,259.6 0 0,1 530.4777176869695,70.16588482285084 L 550.8218359530375,169.62717502779145 A 158.07940407358137,158.07940407358137 0 0 0 534.1495997916509,173.99638943882084 Z "/><path class="wedge" fill="rgb(219,172,149)" d=" M 528.0695752043362,155.07067943955616 L 503.09836025036526,77.34106408007571 A 259.6,259.6 0 0,1 524.2793104575405,71.51282382460457 L 542.5892768249523,151.07537664836985 A 177.95776411556216,177.95776411556216 0 0 0 528.0695752043362,155.07067943955616 Z "/><path class="wedge" fill="rgb(219,172,149)" d=" M 528.0695752043362,155.07067943955616 L 503.09836025036526,77.34106408007571 A 259.6,259.6 0 0,1 524.2793104575405,71.51282382460457 L 542.5892768249523,151.07537664836985 A 177.95776411556216,177.95776411556216 0 0 0 528.0695752043362,155.07067943955616 Z "/><path class="wedge" fill="rgb(216,165,140)" d=" M 542.5892768249523,151.07537664836985 L 524.2793104575405,71.51282382460457 A 259.6,259.6 0 0,1 530.4777176869695,70.16588482285084 L 546.8383318774443,150.1520397718208 A 177.95776411556216,177.95776411556216 0 0 0 542.5892768249523,151.07537664836985 Z "/><path class="wedge" fill="url(#hiddenPattern)" d=" M 542.5892768249523,151.07537664836985 L 524.2793104575405,71.51282382460457 A 259.6,259.6 0 0,1 530.4777176869695,70.16588482285084 L 546.8383318774443,150.1520397718208 A 177.95776411556216,177.95776411556216 0 0 0 542.5892768249523,151.07537664836985 Z "/><path class="wedge" fill="rgb(213,159,130)" d=" M 550.8218359530375,169.62717502779145 L 530.4777176869695,70.16588482285084 A 259.6,259.6 0 0,1 565.2048782368386,65.4767601870492 L 571.9684031521549,166.77180512003227 A 158.07940407358137,158.07940407358137 0 0 0 550.8218359530375,169.62717502779145 Z "/><path class="wedge" fill="url(#hiddenPattern)" d=" M 550.8218359530375,169.62717502779145 L 530.4777176869695,70.16588482285084 A 259.6,259.6 0 0,1 565.2048782368386,65.4767601870492 L 571.9684031521549,166.77180512003227 A 158.07940407358137,158.07940407358137 0 0 0 550.8218359530375,169.62717502779145 Z "/><path class="wedge" fill="rgb(210,152,121)" d=" M 573.583785538071,190.96484549676913 L 565.2048782368386,65.4767601870492 A 259.6,259.6 0 0,1 582.228147565396,64.90014234161487 L 582.3598509659475,190.6675796872032 A 133.83249369466614,133.83249369466614 0 0 0 573.583785538071,190.96484549676913 Z "/><path class="wedge" fill="url(#hiddenPattern)" d=" M 573.583785538071,190.96484549676913 L 565.2048782368386,65.4767601870492 A 259.6,259.6 0 0,1 582.228147565396,64.90014234161487 L 582.3598509659475,190.6675796872032 A 133.83249369466614,133.83249369466614 0 0 0 573.583785538071,190.96484549676913 Z "/><path class="wedge" fill="rgb(210,152,121)" d=" M 582.3598509659475,190.6675796872032 L 582.228147565396,64.90014234161487 A 259.6,259.6 0 0,1 582.3187650251948,64.90006326294315 L 582.4065673011446,190.66753891949966 A 133.83249369466614,133.83249369466614 0 0 0 582.3598509659475,190.6675796872032 Z "/><path class="wedge" fill="url(#hiddenPattern)" d=" M 582.3598509659475,190.6675796872032 L 582.228147565396,64.90014234161487 A 259.6,259.6 0 0,1 582.3187650251948,64.90006326294315 L 582.4065673011446,190.66753891949966 A 133.83249369466614,133.83249369466614 0 0 0 582.3598509659475,190.6675796872032 Z "/><path class="wedge" fill="rgb(210,153,121)" d=" M 582.4276682789388,220.89245828927133 L 582.3187650251948,64.90006326294315 A 259.6,259.6 0 0,1 645.918216378103,72.76543774956107 L 607.8105050070545,224.03156581539594 A 103.60756695926342,103.60756695926342 0 0 0 582.4276682789388,220.89245828927133 Z "/><path class="wedge" fill="rgb(213,160,130)" d=" M 582.4065673011446,190.66753891949966 L 582.3187650251948,64.90006326294315 A 259.6,259.6 0 0,1 645.7424570596513,72.72122483207968 L 615.1036045287789,194.69960962977098 A 133.83249369466614,133.83249369466614 0 0 0 582.4065673011446,190.66753891949966 Z "/><path class="wedge" fill="rgb(213,160,130)" d=" M 582.3896397657377,166.42063444940922 L 582.3187650251948,64.90006326294315 A 259.6,259.6 0 0,1 602.9583181594946,65.7073856964135 L 594.9577763597867,166.91224095625907 A 158.07940407358137,158.07940407358137 0 0 0 582.3896397657377,166.42063444940922 Z "/><path class="wedge" fill="url(#hiddenPattern)" d=" M 582.3896397657377,166.42063444940922 L 582.3187650251948,64.90006326294315 A 259.6,259.6 0 0,1 602.9583181594946,65.7073856964135 L 594.9577763597867,166.91224095625907 A 158.07940407358137,158.07940407358137 0 0 0 582.3896397657377,166.42063444940922 Z "/><path class="wedge" fill="rgb(213,162,130)" d=" M 594.9577763597867,166.91224095625907 L 602.9583181594946,65.7073856964135 A 259.6,259.6 0 0,1 645.7424570596513,72.72122483207968 L 621.0105158865128,171.1832097961438 A 158.07940407358137,158.07940407358137 0 0 0 594.9577763597867,166.91224095625907 Z "/><path class="wedge" fill="url(#hiddenPattern)" d=" M 594.9577763597867,166.91224095625907 L 602.9583181594946,65.7073856964135 A 259.6,259.6 0 0,1 645.7424570596513,72.72122483207968 L 621.0105158865128,171.1832097961438 A 158.07940407358137,158.07940407358137 0 0 0 594.9577763597867,166.91224095625907 Z "/><path class="wedge" fill="rgb(210,155,121)" d=" M 615.1036045287789,194.69960962977098 L 645.7424570596513,72.72122483207968 A 259.6,259.6 0 0,1 645.918216378103,72.76543774956107 L 615.1942143434107,194.72240286937054 A 133.83249369466614,133.83249369466614 0 0 0 615.1036045287789,194.69960962977098 Z "/><path class="wedge" fill="url(#hiddenPattern)" d=" M 615.1036045287789,194.69960962977098 L 645.7424570596513,72.72122483207968 A 259.6,259.6 0 0,1 645.918216378103,72.76543774956107 L 615.1942143434107,194.72240286937054 A 133.83249369466614,133.83249369466614 0 0 0 615.1036045287789,194.69960962977098 Z "/><path class="wedge" fill="rgb(210,155,121)" d=" M 607.8105050070545,224.03156581539594 L 645.918216378103,72.76543774956107 A 259.6,259.6 0 0,1 700.0328558380786,93.03037391799015 L 629.407909210929,232.1193960580605 A 103.60756695926342,103.60756695926342 0 0 0 607.8105050070545,224.03156581539594 Z "/><path class="wedge" fill="rgb(213,162,130)" d=" M 615.1942143434107,194.72240286937054 L 645.918216378103,72.76543774956107 A 259.6,259.6 0 0,1 675.7014944556236,82.20752914867867 L 630.5484915988663,199.59011719000563 A 133.83249369466614,133.83249369466614 0 0 0 615.1942143434107,194.72240286937054 Z "/><path class="wedge" fill="rgb(216,169,140)" d=" M 621.1175418045453,171.21013256828485 L 645.918216378103,72.76543774956107 A 259.6,259.6 0 0,1 672.6919665151776,81.07122360713984 L 637.4210027694286,176.26781237848837 A 158.07940407358137,158.07940407358137 0 0 0 621.1175418045453,171.21013256828485 Z "/><path class="wedge" fill="rgb(219,176,149)" d=" M 625.9736671450082,151.93405297111747 L 645.918216378103,72.76543774956107 A 259.6,259.6 0 0,1 672.1394124600195,80.86721129161918 L 643.9484954469095,157.487880031654 A 177.95776411556216,177.95776411556216 0 0 0 625.9736671450082,151.93405297111747 Z "/><path class="wedge" fill="rgb(219,176,149)" d=" M 625.9736671450082,151.93405297111747 L 645.918216378103,72.76543774956107 A 259.6,259.6 0 0,1 672.1394124600195,80.86721129161918 L 643.9484954469095,157.487880031654 A 177.95776411556216,177.95776411556216 0 0 0 625.9736671450082,151.93405297111747 Z "/><path class="wedge" fill="rgb(223,183,159)" d=" M 630.026556904177,135.84636574745232 L 645.918216378103,72.76543774956107 A 259.6,259.6 0 0,1 669.711265893577,79.98751544912923 L 647.8574229597465,141.25869845495853 A 194.54811057386297,194.54811057386297 0 0 0 630.026556904177,135.84636574745232 Z "/><path class="wedge" fill="rgb(223,184,159)" d=" M 647.8574229597465,141.25869845495853 L 669.711265893577,79.98751544912923 A 259.6,259.6 0 0,1 672.1394124600195,80.86721129161918 L 649.6771121997225,141.91795563537494 A 194.54811057386297,194.54811057386297 0 0 0 647.8574229597465,141.25869845495853 Z "/><path class="wedge" fill="url(#hiddenPattern)" d=" M 647.8574229597465,141.25869845495853 L 669.711265893577,79.98751544912923 A 259.6,259.6 0 0,1 672.1394124600195,80.86721129161918 L 649.6771121997225,141.91795563537494 A 194.54811057386297,194.54811057386297 0 0 0 647.8574229597465,141.25869845495853 Z "/><path class="wedge" fill="rgb(216,170,140)" d=" M 643.9484954469095,157.487880031654 L 672.1394124600195,80.86721129161918 A 259.6,259.6 0 0,1 672.6919665151776,81.07122360713984 L 644.327275432306,157.6277320174864 A 177.95776411556216,177.95776411556216 0 0 0 643.9484954469095,157.487880031654 Z "/><path class="wedge" fill="url(#hiddenPattern)" d=" M 643.9484954469095,157.487880031654 L 672.1394124600195,80.86721129161918 A 259.6,259.6 0 0,1 672.6919665151776,81.07122360713984 L 644.327275432306,157.6277320174864 A 177.95776411556216,177.95776411556216 0 0 0 643.9484954469095,157.487880031654 Z "/><path class="wedge" fill="rgb(213,163,130)" d=" M 637.4210027694286,176.26781237848837 L 672.6919665151776,81.07122360713984 A 259.6,259.6 0 0,1 675.7014944556236,82.20752914867867 L 639.2536082523582,176.9597480597363 A 158.07940407358137,158.07940407358137 0 0 0 637.4210027694286,176.26781237848837 Z "/><path class="wedge" fill="url(#hiddenPattern)" d=" M 637.4210027694286,176.26781237848837 L 672.6919665151776,81.07122360713984 A 259.6,259.6 0 0,1 675.7014944556236,82.20752914867867 L 639.2536082523582,176.9597480597363 A 158.07940407358137,158.07940407358137 0 0 0 637.4210027694286,176.26781237848837 Z "/><path class="wedge" fill="rgb(210,156,121)" d=" M 630.5484915988663,199.59011719000563 L 675.7014944556236,82.20752914867867 A 259.6,259.6 0 0,1 692.8682908461849,89.52978832266425 L 639.3985500337562,203.36498700792987 A 133.83249369466614,133.83249369466614 0 0 0 630.5484915988663,199.59011719000563 Z "/><path class="wedge" fill="url(#hiddenPattern)" d=" M 630.5484915988663,199.59011719000563 L 675.7014944556236,82.20752914867867 A 259.6,259.6 0 0,1 692.8682908461849,89.52978832266425 L 639.3985500337562,203.36498700792987 A 133.83249369466614,133.83249369466614 0 0 0 630.5484915988663,199.59011719000563 Z "/><path class="wedge" fill="rgb(210,157,121)" d=" M 639.3985500337562,203.36498700792987 L 692.8682908461849,89.52978832266425 A 259.6,259.6 0 0,1 700.0328558380786,93.03037391799015 L 643.0921232198218,205.16965611276075 A 133.83249369466614,133.83249369466614 0 0 0 639.3985500337562,203.36498700792987 Z "/><path class="wedge" fill="url(#hiddenPattern)" d=" M 639.3985500337562,203.36498700792987 L 692.8682908461849,89.52978832266425 A 259.6,259.6 0 0,1 700.0328558380786,93.03037391799015 L 643.0921232198218,205.16965611276075 A 133.83249369466614,133.83249369466614 0 0 0 639.3985500337562,203.36498700792987 Z "/><path class="wedge" fill="rgb(207,150,111)" d=" M 629.407909210929,232.1193960580605 L 700.0328558380786,93.03037391799015 A 259.6,259.6 0 0,1 726.9143417838791,108.7764317763843 L 640.1364352320925,238.40372095755203 A 103.60756695926342,103.60756695926342 0 0 0 629.407909210929,232.1193960580605 Z "/><path class="wedge" fill="url(#hiddenPattern)" d=" M 629.407909210929,232.1193960580605 L 700.0328558380786,93.03037391799015 A 259.6,259.6 0 0,1 726.9143417838791,108.7764317763843 L 640.1364352320925,238.40372095755203 A 103.60756695926342,103.60756695926342 0 0 0 629.407909210929,232.1193960580605 Z "/><path class="wedge" fill="rgb(210,159,121)" d=" M 640.1364352320925,238.40372095755203 L 726.9143417838791,108.7764317763843 A 259.6,259.6 0 0,1 747.0658813754868,123.72592127690086 L 648.1790083737325,244.37013172192636 A 103.60756695926342,103.60756695926342 0 0 0 640.1364352320925,238.40372095755203 Z "/><path class="wedge" fill="rgb(210,159,121)" d=" M 640.1364352320925,238.40372095755203 L 726.9143417838791,108.7764317763843 A 259.6,259.6 0 0,1 747.0658813754868,123.72592127690086 L 648.1790083737325,244.37013172192636 A 103.60756695926342,103.60756695926342 0 0 0 640.1364352320925,238.40372095755203 Z "/><path class="wedge" fill="rgb(213,165,130)" d=" M 656.9504294538149,213.28727625547793 L 726.9143417838791,108.7764317763843 A 259.6,259.6 0 0,1 746.8906102993673,123.58238692090336 L 667.2488648549784,220.92024196627284 A 133.83249369466614,133.83249369466614 0 0 0 656.9504294538149,213.28727625547793 Z "/><path class="wedge" fill="rgb(216,172,140)" d=" M 670.4388793870343,193.13847030271285 L 726.9143417838791,108.7764317763843 A 259.6,259.6 0 0,1 744.636130182111,121.7586986093618 L 681.2302882819133,201.04382085926642 A 158.07940407358137,158.07940407358137 0 0 0 670.4388793870343,193.13847030271285 Z "/><path class="wedge" fill="rgb(216,172,140)" d=" M 670.4388793870343,193.13847030271285 L 726.9143417838791,108.7764317763843 A 259.6,259.6 0 0,1 744.636130182111,121.7586986093618 L 681.2302882819133,201.04382085926642 A 158.07940407358137,158.07940407358137 0 0 0 670.4388793870343,193.13847030271285 Z "/><path class="wedge" fill="rgb(216,172,140)" d=" M 670.4388793870343,193.13847030271285 L 726.9143417838791,108.7764317763843 A 259.6,259.6 0 0,1 744.636130182111,121.7586986093618 L 681.2302882819133,201.04382085926642 A 158.07940407358137,158.07940407358137 0 0 0 670.4388793870343,193.13847030271285 Z "/><path class="wedge" fill="rgb(213,166,130)" d=" M 681.2302882819133,201.04382085926642 L 744.636130182111,121.7586986093618 A 259.6,259.6 0 0,1 746.8906102993673,123.58238692090336 L 682.6031190732524,202.15432764472268 A 158.07940407358137,158.07940407358137 0 0 0 681.2302882819133,201.04382085926642 Z "/><path class="wedge" fill="url(#hiddenPattern)" d=" M 681.2302882819133,201.04382085926642 L 744.636130182111,121.7586986093618 A 259.6,259.6 0 0,1 746.8906102993673,123.58238692090336 L 682.6031190732524,202.15432764472268 A 158.07940407358137,158.07940407358137 0 0 0 681.2302882819133,201.04382085926642 Z "/><path class="wedge" fill="rgb(210,160,121)" d=" M 667.2488648549784,220.92024196627284 L 746.8906102993673,123.58238692090336 A 259.6,259.6 0 0,1 747.0658813754868,123.72592127690086 L 667.3392229643375,220.9942387335841 A 133.83249369466614,133.83249369466614 0 0 0 667.2488648549784,220.92024196627284 Z "/><path class="wedge" fill="url(#hiddenPattern)" d=" M 667.2488648549784,220.92024196627284 L 746.8906102993673,123.58238692090336 A 259.6,259.6 0 0,1 747.0658813754868,123.72592127690086 L 667.3392229643375,220.9942387335841 A 133.83249369466614,133.83249369466614 0 0 0 667.2488648549784,220.92024196627284 Z "/><path class="wedge" fill="rgb(207,153,111)" d=" M 648.1790083737325,244.37013172192636 L 747.0658813754868,123.72592127690086 A 259.6,259.6 0 0,1 762.9962062111165,137.9168294207805 L 654.5368750805519,250.0337891399917 A 103.60756695926342,103.60756695926342 0 0 0 648.1790083737325,244.37013172192636 Z "/><path class="wedge" fill="url(#hiddenPattern)" d=" M 648.1790083737325,244.37013172192636 L 747.0658813754868,123.72592127690086 A 259.6,259.6 0 0,1 762.9962062111165,137.9168294207805 L 654.5368750805519,250.0337891399917 A 103.60756695926342,103.60756695926342 0 0 0 648.1790083737325,244.37013172192636 Z "/><path class="wedge" fill="rgb(207,154,111)" d=" M 654.5368750805519,250.0337891399917 L 762.9962062111165,137.9168294207805 A 259.6,259.6 0 0,1 776.8688483040087,152.4159774732899 L 660.0735110379526,255.8204665386922 A 103.60756695926342,103.60756695926342 0 0 0 654.5368750805519,250.0337891399917 Z "/><path class="wedge" fill="url(#hiddenPattern)" d=" M 654.5368750805519,250.0337891399917 L 762.9962062111165,137.9168294207805 A 259.6,259.6 0 0,1 776.8688483040087,152.4159774732899 L 660.0735110379526,255.8204665386922 A 103.60756695926342,103.60756695926342 0 0 0 654.5368750805519,250.0337891399917 Z "/><path class="wedge" fill="rgb(207,158,111)" d=" M 660.0735110379526,255.8204665386922 L 776.8688483040087,152.4159774732899 A 259.6,259.6 0 0,1 828.5695675417863,241.78405274798422 L 680.7075084580995,291.48768088015356 A 103.60756695926342,103.60756695926342 0 0 0 660.0735110379526,255.8204665386922 Z "/><path class="wedge" fill="url(#hiddenPattern)" d=" M 660.0735110379526,255.8204665386922 L 776.8688483040087,152.4159774732899 A 259.6,259.6 0 0,1 828.5695675417863,241.78405274798422 L 680.7075084580995,291.48768088015356 A 103.60756695926342,103.60756695926342 0 0 0 660.0735110379526,255.8204665386922 Z "/><path class="wedge" fill="rgb(111,207,207)" d=" M 644.0173918854466,303.821013186996 L 828.5695675417863,241.78405274798422 A 259.6,259.6 0 0,1 582.5000000000003,584.1 L 582.5000000000001,389.4 A 64.9,64.9 0 0 0 644.0173918854466,303.821013186996 Z "/><path class="wedge" fill="rgb(121,210,210)" d=" M 680.7075084580995,291.48768088015356 L 828.5695675417863,241.78405274798422 A 259.6,259.6 0 0,1 683.3078502344634,563.7277938098039 L 622.7328817148943,419.9769247521807 A 103.60756695926342,103.60756695926342 0 0 0 680.7075084580995,291.48768088015356 Z "/><path class="wedge" fill="rgb(130,213,213)" d=" M 709.3571026443965,281.85715913307496 L 828.5695675417863,241.78405274798422 A 259.6,259.6 0 0,1 721.562378417434,543.7118037626769 L 654.1913131075366,437.5110259817598 A 133.83249369466614,133.83249369466614 0 0 0 709.3571026443965,281.85715913307496 Z "/><path class="wedge" fill="rgb(140,216,216)" d=" M 732.3402565394817,274.1314035093203 L 828.5695675417863,241.78405274798422 A 259.6,259.6 0 0,1 792.3075525777168,477.3821470327671 L 710.2590634885287,417.59521839918904 A 158.07940407358137,158.07940407358137 0 0 0 732.3402565394817,274.1314035093203 Z "/><path class="wedge" fill="rgb(140,216,216)" d=" M 732.3402565394817,274.1314035093203 L 828.5695675417863,241.78405274798422 A 259.6,259.6 0 0,1 792.3075525777168,477.3821470327671 L 710.2590634885287,417.59521839918904 A 158.07940407358137,158.07940407358137 0 0 0 732.3402565394817,274.1314035093203 Z "/><path class="wedge" fill="rgb(149,219,219)" d=" M 751.1825502951449,267.7975923356336 L 828.5695675417863,241.78405274798422 A 259.6,259.6 0 0,1 792.360905731091,477.3089010683808 L 726.3612386716937,429.25165782390286 A 177.95776411556216,177.95776411556216 0 0 0 751.1825502951449,267.7975923356336 Z "/><path class="wedge" fill="rgb(149,219,219)" d=" M 751.1825502951449,267.7975923356336 L 828.5695675417863,241.78405274798422 A 259.6,259.6 0 0,1 792.360905731091,477.3089010683808 L 726.3612386716937,429.25165782390286 A 177.95776411556216,177.95776411556216 0 0 0 751.1825502951449,267.7975923356336 Z "/><path class="wedge" fill="rgb(140,198,216)" d=" M 726.3612386716937,429.25165782390286 L 792.360905731091,477.3089010683808 A 259.6,259.6 0 0,1 792.3075525777168,477.3821470327671 L 726.3246646813895,429.3018684866636 A 177.95776411556216,177.95776411556216 0 0 0 726.3612386716937,429.25165782390286 Z "/><path class="wedge" fill="url(#hiddenPattern)" d=" M 726.3612386716937,429.25165782390286 L 792.360905731091,477.3089010683808 A 259.6,259.6 0 0,1 792.3075525777168,477.3821470327671 L 726.3246646813895,429.3018684866636 A 177.95776411556216,177.95776411556216 0 0 0 726.3612386716937,429.25165782390286 Z "/><path class="wedge" fill="rgb(140,197,216)" d=" M 710.2590634885287,417.59521839918904 L 792.3075525777168,477.3821470327671 A 259.6,259.6 0 0,1 721.562378417434,543.7118037626769 L 667.1798840881465,457.9856367669446 A 158.07940407358137,158.07940407358137 0 0 0 710.2590634885287,417.59521839918904 Z "/><path class="wedge" fill="rgb(140,197,216)" d=" M 710.2590634885287,417.59521839918904 L 792.3075525777168,477.3821470327671 A 259.6,259.6 0 0,1 721.562378417434,543.7118037626769 L 667.1798840881465,457.9856367669446 A 158.07940407358137,158.07940407358137 0 0 0 710.2590634885287,417.59521839918904 Z "/><path class="wedge" fill="rgb(149,202,219)" d=" M 726.3246646813895,429.3018684866636 L 792.3075525777168,477.3821470327671 A 259.6,259.6 0 0,1 722.2885463426011,543.2494509968482 L 678.3261061482817,474.4544037014862 A 177.95776411556216,177.95776411556216 0 0 0 726.3246646813895,429.3018684866636 Z "/><path class="wedge" fill="rgb(159,207,223)" d=" M 739.732908082131,439.07216042257454 L 792.3075525777168,477.3821470327671 A 259.6,259.6 0 0,1 744.6361301821112,527.241301390638 L 704.0072333693668,476.4373540864203 A 194.54811057386297,194.54811057386297 0 0 0 739.732908082131,439.07216042257454 Z "/><path class="wedge" fill="rgb(159,203,223)" d=" M 704.0072333693668,476.4373540864203 L 744.6361301821112,527.241301390638 A 259.6,259.6 0 0,1 725.593875242643,541.1017148317227 L 689.7366836022661,486.824554574616 A 194.54811057386297,194.54811057386297 0 0 0 704.0072333693668,476.4373540864203 Z "/><path class="wedge" fill="rgb(159,201,223)" d=" M 689.7366836022661,486.824554574616 L 725.593875242643,541.1017148317227 A 259.6,259.6 0 0,1 722.2885463426011,543.2494509968482 L 687.2596208429119,488.4341000789932 A 194.54811057386297,194.54811057386297 0 0 0 689.7366836022661,486.824554574616 Z "/><path class="wedge" fill="url(#hiddenPattern)" d=" M 689.7366836022661,486.824554574616 L 725.593875242643,541.1017148317227 A 259.6,259.6 0 0,1 722.2885463426011,543.2494509968482 L 687.2596208429119,488.4341000789932 A 194.54811057386297,194.54811057386297 0 0 0 689.7366836022661,486.824554574616 Z "/><path class="wedge" fill="rgb(140,190,216)" d=" M 678.3261061482817,474.4544037014862 L 722.2885463426011,543.2494509968482 A 259.6,259.6 0 0,1 721.562378417434,543.7118037626769 L 677.8283125414437,474.7713500205907 A 177.95776411556216,177.95776411556216 0 0 0 678.3261061482817,474.4544037014862 Z "/><path class="wedge" fill="url(#hiddenPattern)" d=" M 678.3261061482817,474.4544037014862 L 722.2885463426011,543.2494509968482 A 259.6,259.6 0 0,1 721.562378417434,543.7118037626769 L 677.8283125414437,474.7713500205907 A 177.95776411556216,177.95776411556216 0 0 0 678.3261061482817,474.4544037014862 Z "/><path class="wedge" fill="rgb(130,184,213)" d=" M 654.1913131075366,437.5110259817598 L 721.562378417434,543.7118037626769 A 259.6,259.6 0 0,1 683.3078502344634,563.7277938098039 L 634.4698227306498,447.82993916270976 A 133.83249369466614,133.83249369466614 0 0 0 654.1913131075366,437.5110259817598 Z "/><path class="wedge" fill="rgb(130,184,213)" d=" M 654.1913131075366,437.5110259817598 L 721.562378417434,543.7118037626769 A 259.6,259.6 0 0,1 683.3078502344634,563.7277938098039 L 634.4698227306498,447.82993916270976 A 133.83249369466614,133.83249369466614 0 0 0 654.1913131075366,437.5110259817598 Z "/><path class="wedge" fill="rgb(140,190,216)" d=" M 667.1798840881465,457.9856367669446 L 721.562378417434,543.7118037626769 A 259.6,259.6 0 0,1 700.3559337323866,555.8052936793001 L 654.2665476538951,465.34978036937014 A 158.07940407358137,158.07940407358137 0 0 0 667.1798840881465,457.9856367669446 Z "/><path class="wedge" fill="rgb(140,190,216)" d=" M 667.1798840881465,457.9856367669446 L 721.562378417434,543.7118037626769 A 259.6,259.6 0 0,1 700.3559337323866,555.8052936793001 L 654.2665476538951,465.34978036937014 A 158.07940407358137,158.07940407358137 0 0 0 667.1798840881465,457.9856367669446 Z "/><path class="wedge" fill="url(#hiddenPattern)" d=" M 667.1798840881465,457.9856367669446 L 721.562378417434,543.7118037626769 A 259.6,259.6 0 0,1 700.3559337323866,555.8052936793001 L 654.2665476538951,465.34978036937014 A 158.07940407358137,158.07940407358137 0 0 0 667.1798840881465,457.9856367669446 Z "/><path class="wedge" fill="rgb(130,181,213)" d=" M 654.2665476538951,465.34978036937014 L 700.3559337323866,555.8052936793001 A 259.6,259.6 0 0,1 683.3078502344634,563.7277938098039 L 643.8853809360663,470.17406426537514 A 158.07940407358137,158.07940407358137 0 0 0 654.2665476538951,465.34978036937014 Z "/><path class="wedge" fill="url(#hiddenPattern)" d=" M 654.2665476538951,465.34978036937014 L 700.3559337323866,555.8052936793001 A 259.6,259.6 0 0,1 683.3078502344634,563.7277938098039 L 643.8853809360663,470.17406426537514 A 158.07940407358137,158.07940407358137 0 0 0 654.2665476538951,465.34978036937014 Z "/><path class="wedge" fill="rgb(121,175,210)" d=" M 622.7328817148943,419.9769247521807 L 683.3078502344634,563.7277938098039 A 259.6,259.6 0 0,1 610.2663550085612,582.6108086259437 L 593.5816813781363,427.5132237581745 A 103.60756695926342,103.60756695926342 0 0 0 622.7328817148943,419.9769247521807 Z "/><path class="wedge" fill="rgb(121,175,210)" d=" M 622.7328817148943,419.9769247521807 L 683.3078502344634,563.7277938098039 A 259.6,259.6 0 0,1 610.2663550085612,582.6108086259437 L 593.5816813781363,427.5132237581745 A 103.60756695926342,103.60756695926342 0 0 0 622.7328817148943,419.9769247521807 Z "/><path class="wedge" fill="rgb(121,175,210)" d=" M 622.7328817148943,419.9769247521807 L 683.3078502344634,563.7277938098039 A 259.6,259.6 0 0,1 610.2663550085612,582.6108086259437 L 593.5816813781363,427.5132237581745 A 103.60756695926342,103.60756695926342 0 0 0 622.7328817148943,419.9769247521807 Z "/><path class="wedge" fill="rgb(130,180,213)" d=" M 634.4698227306498,447.82993916270976 L 683.3078502344634,563.7277938098039 A 259.6,259.6 0 0,1 611.572409966739,582.4669648980773 L 597.4878009382217,457.49060941122536 A 133.83249369466614,133.83249369466614 0 0 0 634.4698227306498,447.82993916270976 Z "/><path class="wedge" fill="rgb(140,186,216)" d=" M 643.8853809360663,470.17406426537514 L 683.3078502344634,563.7277938098039 A 259.6,259.6 0 0,1 638.5992508586637,577.9660412226789 L 616.6607709734665,478.8442247664518 A 158.07940407358137,158.07940407358137 0 0 0 643.8853809360663,470.17406426537514 Z "/><path class="wedge" fill="rgb(140,186,216)" d=" M 643.8853809360663,470.17406426537514 L 683.3078502344634,563.7277938098039 A 259.6,259.6 0 0,1 638.5992508586637,577.9660412226789 L 616.6607709734665,478.8442247664518 A 158.07940407358137,158.07940407358137 0 0 0 643.8853809360663,470.17406426537514 Z "/><path class="wedge" fill="rgb(130,175,213)" d=" M 616.6607709734665,478.8442247664518 L 638.5992508586637,577.9660412226789 A 259.6,259.6 0 0,1 611.572409966739,582.4669648980773 L 600.2031943086477,481.5849926107802 A 158.07940407358137,158.07940407358137 0 0 0 616.6607709734665,478.8442247664518 Z "/><path class="wedge" fill="url(#hiddenPattern)" d=" M 616.6607709734665,478.8442247664518 L 638.5992508586637,577.9660412226789 A 259.6,259.6 0 0,1 611.572409966739,582.4669648980773 L 600.2031943086477,481.5849926107802 A 158.07940407358137,158.07940407358137 0 0 0 616.6607709734665,478.8442247664518 Z "/><path class="wedge" fill="rgb(121,168,210)" d=" M 597.4878009382217,457.49060941122536 L 611.572409966739,582.4669648980773 A 259.6,259.6 0 0,1 610.2663550085612,582.6108086259437 L 596.8144858690567,457.56476567009554 A 133.83249369466614,133.83249369466614 0 0 0 597.4878009382217,457.49060941122536 Z "/><path class="wedge" fill="url(#hiddenPattern)" d=" M 597.4878009382217,457.49060941122536 L 611.572409966739,582.4669648980773 A 259.6,259.6 0 0,1 610.2663550085612,582.6108086259437 L 596.8144858690567,457.56476567009554 A 133.83249369466614,133.83249369466614 0 0 0 597.4878009382217,457.49060941122536 Z "/><path class="wedge" fill="rgb(111,160,207)" d=" M 593.5816813781363,427.5132237581745 L 610.2663550085612,582.6108086259437 A 259.6,259.6 0 0,1 582.5000000000003,584.1 L 582.5000000000001,428.1075669592634 A 103.60756695926342,103.60756695926342 0 0 0 593.5816813781363,427.5132237581745 Z "/><path class="wedge" fill="url(#hiddenPattern)" d=" M 593.5816813781363,427.5132237581745 L 610.2663550085612,582.6108086259437 A 259.6,259.6 0 0,1 582.5000000000003,584.1 L 582.5000000000001,428.1075669592634 A 103.60756695926342,103.60756695926342 0 0 0 593.5816813781363,427.5132237581745 Z "/><circle cx="582.5" cy="324.5" r="64.9"/><circle cx="582.5" cy="324.5" r="259.6"/><text x="582.5" y="324.5" text-anchor="middle" style="font-color:black;font-weight:bold" transform="rotate(360,582.5,324.5)">all</text><path class="line" d=" M 644.0173918854466,303.821013186996 A 64.9,64.9 0 1 0 582.5,389.4"/><line x1="828.5695675417863" y1="241.78405274798422" x2="644.0173918854466" y2="303.821013186996"/><text x="582.5" y="247.98772991222097" text-anchor="middle" style="font-color:black;font-weight:normal" transform="rotate(305.71,582.5,324.5)">d__Bacteria</text><line x1="366.72603480501476" y1="468.8390312563906" x2="496.3836072919676" y2="382.10637845043027"/><path class="line" d=" M 496.3836072919676,382.10637845043027 A 103.60756695926342,103.60756695926342 0 0 0 582.5,428.1075669592634"/><text x="582.5" y="437.1750449798842" text-anchor="middle" style="font-color:black;font-weight:normal" transform="rotate(28.10999999999998,582.5,324.5)">o__Clo...adales</text><path class="line" d=" M 475.322133379644,404.65011712556657 A 133.83249369466614,133.83249369466614 0 0 0 582.5,458.33249369466614"/><line x1="374.6029982589848" y1="479.97024367092354" x2="475.322133379644" y2="404.65011712556657"/><text x="582.5" y="470.45594888412376" text-anchor="middle" style="font-color:black;font-weight:normal" transform="rotate(26.605,582.5,324.5)">f__Cloacimonadaceae</text><line x1="470.9029265252343" y1="558.8891063848057" x2="514.5446884774783" y2="467.2276204108218"/><path class="line" d=" M 514.5446884774783,467.2276204108218 A 158.07940407358137,158.07940407358137 0 0 0 582.5,482.5794040735814"/><text x="373.6602979632093" y="324.5" text-anchor="end" style="font-color:black;font-weight:normal" transform="rotate(-77.27,582.5,324.5)">s__Syntrophosphaera sp012516855&#160;&#160;&#160;7%</text><path class="line" d=" M 471.1705905645631,436.72682650336094 A 158.07940407358137,158.07940407358137 0 0 0 514.5446884774783,467.2276204108218"/><line x1="399.6734334474921" y1="508.80031623038906" x2="471.1705905645631" y2="436.72682650336094"/><text x="582.5" y="492.5185840945718" text-anchor="middle" style="font-color:black;font-weight:normal" transform="rotate(35.11499999999998,582.5,324.5)">g__Cloacimonas</text><path class="line" d=" M 457.19305764473563,450.86113329099464 A 177.95776411556216,177.95776411556216 0 0 0 505.99936179734436,485.17550579847705"/><line x1="399.7056027052435" y1="508.8322226786373" x2="457.19305764473563" y2="450.86113329099464"/><text x="363.72111794221894" y="324.5" text-anchor="end" style="font-color:black;font-weight:normal" transform="rotate(-54.88999999999999,582.5,324.5)">s__Cloacimonas sp002428685&#160;&#160;&#160;5%</text><path class="line" d=" M 457.1710053751567,450.8392611793185 A 177.95776411556216,177.95776411556216 0 0 0 457.19305764473563,450.86113329099464"/><line x1="380.15547675158683" y1="487.13103612586497" x2="459.2854327709473" y2="423.53165360033057"/><path class="line" d=" M 459.2854327709473,423.53165360033057 A 158.07940407358137,158.07940407358137 0 0 0 471.1705905645631,436.72682650336094"/><text x="373.6602979632093" y="324.5" text-anchor="end" style="font-color:black;font-weight:normal" transform="rotate(-42.010000000000005,582.5,324.5)">s__UBA4175 sp002379855&#160;&#160;&#160;2%</text><path class="line" d=" M 455.9043368878891,419.1711998099926 A 158.07940407358137,158.07940407358137 0 0 0 459.2854327709473,423.53165360033057"/><line x1="833.85" y1="324.5" x2="850.35" y2="324.5" class="tick" transform="rotate(144.71499999999997,582.5,324.5)"/><text x="311.9" y="324.5" text-anchor="end" style="font-color:black;font-weight:normal" transform="rotate(-35.28500000000002,582.5,324.5)">1 more</text><path class="line" d=" M 471.2612949290024,398.9116043548348 A 133.83249369466614,133.83249369466614 0 0 0 475.322133379644,404.65011712556657"/><path class="line" d=" M 483.21569729301393,294.883194513827 A 103.60756695926342,103.60756695926342 0 0 0 496.3836072919676,382.10637845043027"/><line x1="333.7324076399986" y1="250.29188055604567" x2="483.21569729301393" y2="294.883194513827"/><text x="582.5" y="449.26501567404534" text-anchor="middle" style="font-color:black;font-weight:normal" transform="rotate(81.415,582.5,324.5)">p__Bacteroidota</text><path class="line" d=" M 454.172131752827,286.51191503024836 A 133.83249369466614,133.83249369466614 0 0 0 471.2612949290024,398.9116043548348"/><line x1="333.57753223988664" y1="250.81306055877096" x2="454.172131752827" y2="286.51191503024836"/><text x="582.5" y="470.45594888412376" text-anchor="middle" style="font-color:black;font-weight:normal" transform="rotate(81.355,582.5,324.5)">c__Bacteroidia</text><path class="line" d=" M 427.02757857075915,295.9093692411808 A 158.07940407358137,158.07940407358137 0 0 0 451.10778184662195,412.3930202063492"/><line x1="327.1812199251192" y1="277.5481039672019" x2="427.02757857075915" y2="295.9093692411808"/><text x="582.5" y="492.5185840945718" text-anchor="middle" style="font-color:black;font-weight:normal" transform="rotate(78.32,582.5,324.5)">o__Bacteroidales</text><path class="line" d=" M 412.34540989001255,376.6189147384348 A 177.95776411556216,177.95776411556216 0 0 0 434.58531432800964,423.4454979853371"/><line x1="334.2830603678059" y1="400.529671047741" x2="412.34540989001255" y2="376.6189147384348"/><text x="582.5" y="510.75293734471256" text-anchor="middle" style="font-color:black;font-weight:normal" transform="rotate(64.59499999999998,582.5,324.5)">f_...32</text><path class="line" d=" M 399.4764390026403,390.4647136559066 A 194.54811057386297,194.54811057386297 0 0 0 420.795773344704,432.6698220839466"/><line x1="338.2780628412958" y1="412.52161899471037" x2="399.4764390026403" y2="390.4647136559066"/><text x="582.5" y="526.075269233579" text-anchor="middle" style="font-color:black;font-weight:normal" transform="rotate(63.19999999999999,582.5,324.5)">g__...-08</text><path class="line" d=" M 387.3383772809512,398.1675908432263 A 208.60242789329502,208.60242789329502 0 0 0 409.11412551680564,440.4840999994194"/><line x1="339.6267133871478" y1="416.17729626178647" x2="387.3383772809512" y2="398.1675908432263"/><text x="348.39878605335247" y="324.5" text-anchor="end" style="font-color:black;font-weight:normal" transform="rotate(-27.23000000000001,582.5,324.5)">s__Bact-08 sp001769195&#160;&#160;&#160;4%</text><path class="line" d=" M 386.2546647299329,395.2300594352664 A 208.60242789329502,208.60242789329502 0 0 0 387.3383772809512,398.1675908432263"/><path class="line" d=" M 396.4825245844762,381.4777690673742 A 194.54811057386297,194.54811057386297 0 0 0 399.4764390026403,390.4647136559066"/><path class="line" d=" M 406.2784339411831,349.29769071482445 A 177.95776411556216,177.95776411556216 0 0 0 412.34540989001255,376.6189147384348"/><line x1="325.43271902898476" y1="360.67420426449087" x2="406.2784339411831" y2="349.29769071482445"/><text x="582.5" y="510.75293734471256" text-anchor="middle" style="font-color:black;font-weight:normal" transform="rotate(77.47999999999999,582.5,324.5)">f_...ae</text><path class="line" d=" M 390.3951422027217,355.23582500190093 A 194.54811057386297,194.54811057386297 0 0 0 396.4825245844762,381.4777690673742"/><line x1="326.1602137277533" y1="365.51309515141315" x2="390.3951422027217" y2="355.23582500190093"/><text x="582.5" y="526.075269233579" text-anchor="middle" style="font-color:black;font-weight:normal" transform="rotate(76.94,582.5,324.5)">g__...lum</text><path class="line" d=" M 378.2317442558034,366.8019221572833 A 208.60242789329502,208.60242789329502 0 0 0 383.04446744407113,385.5938904949435"/><line x1="328.2937583625896" y1="377.1435818745507" x2="378.2317442558034" y2="366.8019221572833"/><text x="348.39878605335247" y="324.5" text-anchor="end" style="font-color:black;font-weight:normal" transform="rotate(-14.364999999999997,582.5,324.5)">s__Proteiniphilum sp002410345&#160;&#160;&#160;1%</text><path class="line" d=" M 376.5173274959977,357.45620656395806 A 208.60242789329502,208.60242789329502 0 0 0 378.2317442558034,366.8019221572833"/><path class="line" d=" M 389.84994682869274,351.6094880245365 A 194.54811057386297,194.54811057386297 0 0 0 390.3951422027217,355.23582500190093"/><path class="line" d=" M 405.01787347525124,337.5023295321692 A 177.95776411556216,177.95776411556216 0 0 0 406.2784339411831,349.29769071482445"/><line x1="323.5938473248909" y1="343.46744861527486" x2="405.01787347525124" y2="337.5023295321692"/><text x="363.72111794221894" y="324.5" text-anchor="end" style="font-color:black;font-weight:normal" transform="rotate(-6.100000000000003,582.5,324.5)">f__Prolixibacteraceae&#160;&#160;&#160;1%</text><line x1="833.85" y1="324.5" x2="850.35" y2="324.5" class="tick" transform="rotate(183.11499999999998,582.5,324.5)"/><text x="311.9" y="324.5" text-anchor="end" style="font-color:black;font-weight:normal" transform="rotate(3.1149999999999842,582.5,324.5)">22 more</text><path class="line" d=" M 407.47704453451956,292.3141200347339 A 177.95776411556216,177.95776411556216 0 0 0 405.01787347525124,337.5023295321692"/><line x1="833.85" y1="324.5" x2="850.35" y2="324.5" class="tick" transform="rotate(193.455,582.5,324.5)"/><text x="311.9" y="324.5" text-anchor="end" style="font-color:black;font-weight:normal" transform="rotate(13.455000000000004,582.5,324.5)">4 more</text><path class="line" d=" M 430.9225140059939,279.62947813992463 A 158.07940407358137,158.07940407358137 0 0 0 427.02757857075915,295.9093692411808"/><path class="line" d=" M 454.2519752081773,286.2432292851462 A 133.83249369466614,133.83249369466614 0 0 0 454.172131752827,286.51191503024836"/><path class="line" d=" M 521.2358460135116,240.94623666442016 A 103.60756695926342,103.60756695926342 0 0 0 483.21569729301393,294.883194513827"/><line x1="428.99601528481384" y1="115.14698073216164" x2="521.2358460135116" y2="240.94623666442016"/><text x="582.5" y="211.82495502011577" text-anchor="middle" style="font-color:black;font-weight:normal" transform="rotate(305.17999999999995,582.5,324.5)">p__Firmicutes_A</text><path class="line" d=" M 501.65943443083626,217.84195141954552 A 133.83249369466614,133.83249369466614 0 0 0 454.2519752081773,286.2432292851462"/><line x1="425.69046711007144" y1="117.61130916639638" x2="501.65943443083626" y2="217.84195141954552"/><text x="582.5" y="178.54405111587624" text-anchor="middle" style="font-color:black;font-weight:normal" transform="rotate(304.725,582.5,324.5)">c__Clos..._258483</text><line x1="364.95402139189764" y1="182.8458183058365" x2="450.02874169116757" y2="238.24187740083136"/><path class="line" d=" M 450.02874169116757,238.24187740083136 A 158.07940407358137,158.07940407358137 0 0 0 431.01682298502067,279.3121136397479"/><text x="582.5" y="156.48141590542824" text-anchor="middle" style="font-color:black;font-weight:normal" transform="rotate(294.84,582.5,324.5)">f...0</text><path class="line" d=" M 431.2386319437761,230.75052350669023 A 177.95776411556216,177.95776411556216 0 0 0 411.96793327890043,273.6297726676938"/><line x1="361.84398455413145" y1="187.74078514574376" x2="431.2386319437761" y2="230.75052350669023"/><text x="582.5" y="138.24706265528744" text-anchor="middle" style="font-color:black;font-weight:normal" transform="rotate(294.2,582.5,324.5)">g__Clostridium_T</text><path class="line" d=" M 415.1134438657816,225.35007234805374 A 194.54811057386297,194.54811057386297 0 0 0 396.06985722015713,268.88732886340193"/><line x1="359.1436803510084" y1="192.19688411508398" x2="415.1134438657816" y2="225.35007234805374"/><text x="355.4259447130685" y="324.5" text-anchor="end" style="font-color:black;font-weight:normal" transform="rotate(23.62499999999998,582.5,324.5)">s__Clostridium_T paraputrificum_208099&#160;&#160;&#160;4%</text><path class="line" d=" M 417.1370920964913,222.01060534106114 A 194.54811057386297,194.54811057386297 0 0 0 415.1134438657816,225.35007234805374"/><path class="line" d=" M 433.3705857263875,227.3949867029548 A 177.95776411556216,177.95776411556216 0 0 0 431.2386319437761,230.75052350669023"/><path class="line" d=" M 459.7882531443378,224.84597260576732 A 158.07940407358137,158.07940407358137 0 0 0 450.02874169116757,238.24187740083136"/><line x1="380.9812147387531" y1="160.8468937452409" x2="459.7882531443378" y2="224.84597260576732"/><text x="582.5" y="156.48141590542824" text-anchor="middle" style="font-color:black;font-weight:normal" transform="rotate(306.07499999999993,582.5,324.5)">...</text><path class="line" d=" M 439.89208151985406,218.04838002280047 A 177.95776411556216,177.95776411556216 0 0 0 433.3705857263875,227.3949867029548"/><line x1="374.4674040554634" y1="169.21123986399664" x2="439.89208151985406" y2="218.04838002280047"/><text x="363.72111794221894" y="324.5" text-anchor="end" style="font-color:black;font-weight:normal" transform="rotate(34.904999999999994,582.5,324.5)">f__Peptostreptococcaceae_256921&#160;&#160;&#160;1%</text><path class="line" d=" M 444.27906148338025,212.4110265699838 A 177.95776411556216,177.95776411556216 0 0 0 439.89208151985406,218.04838002280047"/><line x1="380.8670124355274" y1="160.98762026737782" x2="444.27906148338025" y2="212.4110265699838"/><path class="line" d=" M 470.3120416280781,213.13142279530314 A 158.07940407358137,158.07940407358137 0 0 0 459.7882531443378,224.84597260576732"/><line x1="398.2635135074613" y1="141.6091116406161" x2="470.3120416280781" y2="213.13142279530314"/><text x="582.5" y="156.48141590542824" text-anchor="middle" style="font-color:black;font-weight:normal" transform="rotate(311.935,582.5,324.5)">...</text><path class="line" d=" M 452.965888068127,202.47590543244723 A 177.95776411556216,177.95776411556216 0 0 0 444.35734802628815,212.31455747433188"/><line x1="393.5391214194088" y1="146.4945327635944" x2="452.965888068127" y2="202.47590543244723"/><text x="363.72111794221894" y="324.5" text-anchor="end" style="font-color:black;font-weight:normal" transform="rotate(41.18499999999999,582.5,324.5)">f__Acutalibacteraceae&#160;&#160;&#160;1%</text><path class="line" d=" M 456.20449458890926,199.12691228988888 A 177.95776411556216,177.95776411556216 0 0 0 452.965888068127,202.47590543244723"/><line x1="833.85" y1="324.5" x2="850.35" y2="324.5" class="tick" transform="rotate(228.815,582.5,324.5)"/><text x="311.9" y="324.5" text-anchor="end" style="font-color:black;font-weight:normal" transform="rotate(48.81499999999999,582.5,324.5)">8 more</text><path class="line" d=" M 487.013260738457,198.51833221672007 A 158.07940407358137,158.07940407358137 0 0 0 470.3120416280781,213.13142279530314"/><path class="line" d=" M 503.3635552137855,216.57150758427468 A 133.83249369466614,133.83249369466614 0 0 0 501.65943443083626,217.84195141954552"/><path class="line" d=" M 582.4276682789388,220.89245828927133 A 103.60756695926342,103.60756695926342 0 0 0 521.2358460135116,240.94623666442016"/><line x1="582.3187650251948" y1="64.90006326294315" x2="582.4276682789388" y2="220.89245828927133"/><text x="582.5" y="199.73498432595468" text-anchor="middle" style="font-color:black;font-weight:normal" transform="rotate(341.85499999999996,582.5,324.5)">p__Prot...acteria</text><path class="line" d=" M 573.583785538071,190.96484549676913 A 133.83249369466614,133.83249369466614 0 0 0 503.3635552137855,216.57150758427468"/><line x1="565.2048782368386" y1="65.4767601870492" x2="573.583785538071" y2="190.96484549676913"/><text x="582.5" y="178.54405111587624" text-anchor="middle" style="font-color:black;font-weight:normal" transform="rotate(339.9649999999999,582.5,324.5)">c__Gam...cteria</text><path class="line" d=" M 534.1495997916509,173.99638943882084 A 158.07940407358137,158.07940407358137 0 0 0 489.02612316372586,197.01771753904126"/><line x1="503.09836025036526" y1="77.34106408007571" x2="534.1495997916509" y2="173.99638943882084"/><text x="582.5" y="156.48141590542824" text-anchor="middle" style="font-color:black;font-weight:normal" transform="rotate(332.96999999999997,582.5,324.5)">o_...11</text><path class="line" d=" M 527.9808696847986,155.0992023670368 A 177.95776411556216,177.95776411556216 0 0 0 477.2718570772575,180.98692134149954"/><line x1="502.9689590242575" y1="77.3826725595415" x2="527.9808696847986" y2="155.0992023670368"/><text x="582.5" y="138.24706265528744" text-anchor="middle" style="font-color:black;font-weight:normal" transform="rotate(332.9549999999999,582.5,324.5)">f__Pseudomonadaceae</text><path class="line" d=" M 490.7457401411213,152.94789967590205 A 194.54811057386297,194.54811057386297 0 0 0 467.4618251467696,167.60772595727474"/><line x1="460.0654731927014" y1="95.58528521418091" x2="490.7457401411213" y2="152.94789967590205"/><text x="582.5" y="122.92473076642102" text-anchor="middle" style="font-color:black;font-weight:normal" transform="rotate(327.80499999999995,582.5,324.5)">...</text><path class="line" d=" M 484.08523310469906,140.57200707907202 A 208.60242789329502,208.60242789329502 0 0 0 459.15137171462607,156.27369758835573"/><line x1="460.0255219028958" y1="95.60665755675208" x2="484.08523310469906" y2="140.57200707907202"/><text x="348.39878605335247" y="324.5" text-anchor="end" style="font-color:black;font-weight:normal" transform="rotate(57.79999999999996,582.5,324.5)">s__Pseudomonas_A stutzeri_D_648692&#160;&#160;&#160;2%</text><path class="line" d=" M 484.1173360941094,140.55483326339362 A 208.60242789329502,208.60242789329502 0 0 0 484.08523310469906,140.57200707907202"/><path class="line" d=" M 509.620995042423,144.1181329394402 A 194.54811057386297,194.54811057386297 0 0 0 490.7457401411213,152.94789967590205"/><line x1="485.25212834922917" y1="83.80307135446199" x2="509.620995042423" y2="144.1181329394402"/><text x="582.5" y="122.92473076642102" text-anchor="middle" style="font-color:black;font-weight:normal" transform="rotate(334.93,582.5,324.5)">...</text><path class="line" d=" M 501.42842590410976,132.29601253722146 A 208.60242789329502,208.60242789329502 0 0 0 484.1173360941094,140.55483326339362"/><line x1="481.6086496555125" y1="85.30740934204104" x2="501.42842590410976" y2="132.29601253722146"/><text x="348.39878605335247" y="324.5" text-anchor="end" style="font-color:black;font-weight:normal" transform="rotate(64.49500000000003,582.5,324.5)">s__&#160;&#160;&#160;1%</text><path class="line" d=" M 504.3561551086043,131.08719683390441 A 208.60242789329502,208.60242789329502 0 0 0 501.42842590410976,132.29601253722146"/><line x1="833.85" y1="324.5" x2="850.35" y2="324.5" class="tick" transform="rotate(250.08,582.5,324.5)"/><text x="311.9" y="324.5" text-anchor="end" style="font-color:black;font-weight:normal" transform="rotate(70.08000000000003,582.5,324.5)">9 more</text><path class="line" d=" M 522.898252103994,139.3065903559175 A 194.54811057386297,194.54811057386297 0 0 0 509.620995042423,144.1181329394402"/><path class="line" d=" M 528.0695752043362,155.07067943955616 A 177.95776411556216,177.95776411556216 0 0 0 527.9808696847986,155.0992023670368"/><line x1="530.4777176869695" y1="70.16588482285084" x2="550.8218359530375" y2="169.62717502779145"/><path class="line" d=" M 550.8218359530375,169.62717502779145 A 158.07940407358137,158.07940407358137 0 0 0 534.1495997916509,173.99638943882084"/><text x="582.5" y="156.48141590542824" text-anchor="middle" style="font-color:black;font-weight:normal" transform="rotate(345.315,582.5,324.5)">f_...22</text><line x1="524.2793104575405" y1="71.51282382460457" x2="542.5892768249523" y2="151.07537664836985"/><path class="line" d=" M 542.5892768249523,151.07537664836985 A 177.95776411556216,177.95776411556216 0 0 0 528.0695752043362,155.07067943955616"/><text x="363.72111794221894" y="324.5" text-anchor="end" style="font-color:black;font-weight:normal" transform="rotate(74.61500000000002,582.5,324.5)">s__Alcaligenes faecalis_595233&#160;&#160;&#160;1%</text><path class="line" d=" M 546.8383318774443,150.1520397718208 A 177.95776411556216,177.95776411556216 0 0 0 542.5892768249523,151.07537664836985"/><line x1="833.85" y1="324.5" x2="850.35" y2="324.5" class="tick" transform="rotate(262.31,582.5,324.5)"/><text x="311.9" y="324.5" text-anchor="end" style="font-color:black;font-weight:normal" transform="rotate(82.31000000000002,582.5,324.5)">30 more</text><path class="line" d=" M 571.9684031521549,166.77180512003227 A 158.07940407358137,158.07940407358137 0 0 0 550.8218359530375,169.62717502779145"/><path class="line" d=" M 582.3598509659475,190.6675796872032 A 133.83249369466614,133.83249369466614 0 0 0 573.583785538071,190.96484549676913"/><line x1="582.228147565396" y1="64.90014234161487" x2="582.3598509659475" y2="190.6675796872032"/><text x="385.7837531526669" y="324.5" text-anchor="end" style="font-color:black;font-weight:normal" transform="rotate(88.06000000000002,582.5,324.5)">c__Alphaproteobacteria&#160;&#160;&#160;1%</text><path class="line" d=" M 582.4065673011446,190.66753891949966 A 133.83249369466614,133.83249369466614 0 0 0 582.3598509659475,190.6675796872032"/><path class="line" d=" M 607.8105050070545,224.03156581539594 A 103.60756695926342,103.60756695926342 0 0 0 582.4276682789388,220.89245828927133"/><line x1="645.918216378103" y1="72.76543774956107" x2="607.8105050070545" y2="224.03156581539594"/><text x="582.5" y="211.82495502011577" text-anchor="middle" style="font-color:black;font-weight:normal" transform="rotate(367.05,582.5,324.5)">p__F...es_D</text><path class="line" d=" M 615.1036045287789,194.69960962977098 A 133.83249369466614,133.83249369466614 0 0 0 582.4065673011446,190.66753891949966"/><line x1="645.7424570596513" y1="72.72122483207968" x2="615.1036045287789" y2="194.69960962977098"/><text x="582.5" y="178.54405111587624" text-anchor="middle" style="font-color:black;font-weight:normal" transform="rotate(367.03000000000003,582.5,324.5)">c...i</text><path class="line" d=" M 594.9577763597867,166.91224095625907 A 158.07940407358137,158.07940407358137 0 0 0 582.3896397657377,166.42063444940922"/><line x1="602.9583181594946" y1="65.7073856964135" x2="594.9577763597867" y2="166.91224095625907"/><text x="791.3397020367906" y="324.5" text-anchor="start" style="font-color:black;font-weight:normal" transform="rotate(272.23999999999995,582.5,324.5)">1%&#160;&#160;&#160;o__Acholeplasmatales</text><line x1="833.85" y1="324.5" x2="850.35" y2="324.5" class="tick" transform="rotate(279.31,582.5,324.5)"/><text x="853.1" y="324.5" text-anchor="start" style="font-color:black;font-weight:normal" transform="rotate(279.31,582.5,324.5)">17 more</text><path class="line" d=" M 621.0105158865128,171.1832097961438 A 158.07940407358137,158.07940407358137 0 0 0 594.9577763597867,166.91224095625907"/><path class="line" d=" M 615.1942143434107,194.72240286937054 A 133.83249369466614,133.83249369466614 0 0 0 615.1036045287789,194.69960962977098"/><path class="line" d=" M 629.407909210929,232.1193960580605 A 103.60756695926342,103.60756695926342 0 0 0 607.8105050070545,224.03156581539594"/><line x1="700.0328558380786" y1="93.03037391799015" x2="629.407909210929" y2="232.1193960580605"/><text x="582.5" y="199.73498432595468" text-anchor="middle" style="font-color:black;font-weight:normal" transform="rotate(380.53,582.5,324.5)">p__Verr...robiota</text><path class="line" d=" M 630.5484915988663,199.59011719000563 A 133.83249369466614,133.83249369466614 0 0 0 615.1942143434107,194.72240286937054"/><line x1="675.7014944556236" y1="82.20752914867867" x2="630.5484915988663" y2="199.59011719000563"/><text x="582.5" y="178.54405111587624" text-anchor="middle" style="font-color:black;font-weight:normal" transform="rotate(377.59,582.5,324.5)">c...e</text><path class="line" d=" M 637.4210027694286,176.26781237848837 A 158.07940407358137,158.07940407358137 0 0 0 621.1175418045453,171.21013256828485"/><line x1="672.6919665151776" y1="81.07122360713984" x2="637.4210027694286" y2="176.26781237848837"/><text x="582.5" y="156.48141590542824" text-anchor="middle" style="font-color:black;font-weight:normal" transform="rotate(377.23500000000007,582.5,324.5)">o__Pedosphaerales</text><line x1="672.1394124600195" y1="80.86721129161918" x2="643.9484954469095" y2="157.487880031654"/><path class="line" d=" M 643.9484954469095,157.487880031654 A 177.95776411556216,177.95776411556216 0 0 0 625.9736671450082,151.93405297111747"/><text x="582.5" y="138.24706265528744" text-anchor="middle" style="font-color:black;font-weight:normal" transform="rotate(377.16999999999996,582.5,324.5)">g__UBA1412</text><path class="line" d=" M 647.8574229597465,141.25869845495853 A 194.54811057386297,194.54811057386297 0 0 0 630.026556904177,135.84636574745232"/><line x1="669.711265893577" y1="79.98751544912923" x2="647.8574229597465" y2="141.25869845495853"/><text x="809.5740552869315" y="324.5" text-anchor="start" style="font-color:black;font-weight:normal" transform="rotate(286.885,582.5,324.5)">2%&#160;&#160;&#160;s__</text><path class="line" d=" M 649.6771121997225,141.91795563537494 A 194.54811057386297,194.54811057386297 0 0 0 647.8574229597465,141.25869845495853"/><path class="line" d=" M 644.327275432306,157.6277320174864 A 177.95776411556216,177.95776411556216 0 0 0 643.9484954469095,157.487880031654"/><path class="line" d=" M 639.2536082523582,176.9597480597363 A 158.07940407358137,158.07940407358137 0 0 0 637.4210027694286,176.26781237848837"/><path class="line" d=" M 639.3985500337562,203.36498700792987 A 133.83249369466614,133.83249369466614 0 0 0 630.5484915988663,199.59011719000563"/><line x1="692.8682908461849" y1="89.52978832266425" x2="639.3985500337562" y2="203.36498700792987"/><text x="779.2162468473331" y="324.5" text-anchor="start" style="font-color:black;font-weight:normal" transform="rotate(293.09999999999997,582.5,324.5)">1%&#160;&#160;&#160;c__Lentisphaeria</text><path class="line" d=" M 643.0921232198218,205.16965611276075 A 133.83249369466614,133.83249369466614 0 0 0 639.3985500337562,203.36498700792987"/><path class="line" d=" M 640.1364352320925,238.40372095755203 A 103.60756695926342,103.60756695926342 0 0 0 629.407909210929,232.1193960580605"/><line x1="726.9143417838791" y1="108.7764317763843" x2="640.1364352320925" y2="238.40372095755203"/><text x="764.1037834796317" y="324.5" text-anchor="start" style="font-color:black;font-weight:normal" transform="rotate(300.35999999999996,582.5,324.5)">2%&#160;&#160;&#160;p__Actinobacteriota</text><line x1="747.0658813754868" y1="123.72592127690086" x2="648.1790083737325" y2="244.37013172192636"/><path class="line" d=" M 648.1790083737325,244.37013172192636 A 103.60756695926342,103.60756695926342 0 0 0 640.1364352320925,238.40372095755203"/><text x="582.5" y="211.82495502011577" text-anchor="middle" style="font-color:black;font-weight:normal" transform="rotate(396.57,582.5,324.5)">c__D...adia</text><path class="line" d=" M 667.2488648549784,220.92024196627284 A 133.83249369466614,133.83249369466614 0 0 0 656.9504294538149,213.28727625547793"/><line x1="746.8906102993673" y1="123.58238692090336" x2="667.2488648549784" y2="220.92024196627284"/><text x="582.5" y="178.54405111587624" text-anchor="middle" style="font-color:black;font-weight:normal" transform="rotate(396.54499999999996,582.5,324.5)">o__De...dales</text><line x1="744.636130182111" y1="121.7586986093618" x2="681.2302882819133" y2="201.04382085926642"/><path class="line" d=" M 681.2302882819133,201.04382085926642 A 158.07940407358137,158.07940407358137 0 0 0 670.4388793870343,193.13847030271285"/><text x="791.3397020367906" y="324.5" text-anchor="start" style="font-color:black;font-weight:normal" transform="rotate(306.225,582.5,324.5)">1%&#160;&#160;&#160;s__Deferrimonas soudanensis</text><path class="line" d=" M 682.6031190732524,202.15432764472268 A 158.07940407358137,158.07940407358137 0 0 0 681.2302882819133,201.04382085926642"/><path class="line" d=" M 667.3392229643375,220.9942387335841 A 133.83249369466614,133.83249369466614 0 0 0 667.2488648549784,220.92024196627284"/><path class="line" d=" M 654.5368750805519,250.0337891399917 A 103.60756695926342,103.60756695926342 0 0 0 648.1790083737325,244.37013172192636"/><line x1="762.9962062111165" y1="137.9168294207805" x2="654.5368750805519" y2="250.0337891399917"/><text x="764.1037834796317" y="324.5" text-anchor="start" style="font-color:black;font-weight:normal" transform="rotate(311.695,582.5,324.5)">1%&#160;&#160;&#160;p__Patescibacteria</text><path class="line" d=" M 660.0735110379526,255.8204665386922 A 103.60756695926342,103.60756695926342 0 0 0 654.5368750805519,250.0337891399917"/><line x1="776.8688483040087" y1="152.4159774732899" x2="660.0735110379526" y2="255.8204665386922"/><text x="764.1037834796317" y="324.5" text-anchor="start" style="font-color:black;font-weight:normal" transform="rotate(316.265,582.5,324.5)">1%&#160;&#160;&#160;p__Chloroflexota</text><line x1="833.85" y1="324.5" x2="850.35" y2="324.5" class="tick" transform="rotate(329.95,582.5,324.5)"/><text x="853.1" y="324.5" text-anchor="start" style="font-color:black;font-weight:normal" transform="rotate(329.95,582.5,324.5)">49 more</text><path class="line" d=" M 680.7075084580995,291.48768088015356 A 103.60756695926342,103.60756695926342 0 0 0 660.0735110379526,255.8204665386922"/><path class="line" d=" M 582.5000000000001,389.4 A 64.9,64.9 0 0 0 644.0173918854466,303.821013186996"/><line x1="582.5000000000003" y1="584.1" x2="582.5000000000001" y2="389.4"/><text x="582.5" y="416.4952968714844" text-anchor="middle" style="font-color:black;font-weight:normal" transform="rotate(305.71,582.5,324.5)">d__Archaea</text><path class="line" d=" M 622.7328817148943,419.9769247521807 A 103.60756695926342,103.60756695926342 0 0 0 680.7075084580995,291.48768088015356"/><line x1="683.3078502344634" y1="563.7277938098039" x2="622.7328817148943" y2="419.9769247521807"/><text x="582.5" y="449.26501567404534" text-anchor="middle" style="font-color:black;font-weight:normal" transform="rotate(294.285,582.5,324.5)">p__Halobacteriota</text><path class="line" d=" M 654.1913131075366,437.5110259817598 A 133.83249369466614,133.83249369466614 0 0 0 709.3571026443965,281.85715913307496"/><line x1="721.562378417434" y1="543.7118037626769" x2="654.1913131075366" y2="437.5110259817598"/><text x="582.5" y="470.45594888412376" text-anchor="middle" style="font-color:black;font-weight:normal" transform="rotate(289.515,582.5,324.5)">c__Methanosarcinia</text><line x1="792.3075525777168" y1="477.3821470327671" x2="710.2590634885287" y2="417.59521839918904"/><path class="line" d=" M 710.2590634885287,417.59521839918904 A 158.07940407358137,158.07940407358137 0 0 0 732.3402565394817,274.1314035093203"/><text x="582.5" y="492.5185840945718" text-anchor="middle" style="font-color:black;font-weight:normal" transform="rotate(278.75,582.5,324.5)">f__Methanotrichaceae</text><line x1="792.360905731091" y1="477.3089010683808" x2="726.3612386716937" y2="429.25165782390286"/><path class="line" d=" M 726.3612386716937,429.25165782390286 A 177.95776411556216,177.95776411556216 0 0 0 751.1825502951449,267.7975923356336"/><text x="801.2788820577811" y="324.5" text-anchor="start" style="font-color:black;font-weight:normal" transform="rotate(368.73999999999995,582.5,324.5)">15%&#160;&#160;&#160;s__Methanothrix_B soehngenii</text><path class="line" d=" M 726.3246646813895,429.3018684866636 A 177.95776411556216,177.95776411556216 0 0 0 726.3612386716937,429.25165782390286"/><path class="line" d=" M 667.1798840881465,457.9856367669446 A 158.07940407358137,158.07940407358137 0 0 0 710.2590634885287,417.59521839918904"/><text x="582.5" y="492.5185840945718" text-anchor="middle" style="font-color:black;font-weight:normal" transform="rotate(316.84499999999997,582.5,324.5)">f__Methan...rcinaceae</text><path class="line" d=" M 678.3261061482817,474.4544037014862 A 177.95776411556216,177.95776411556216 0 0 0 726.3246646813895,429.3018684866636"/><line x1="722.2885463426011" y1="543.2494509968482" x2="678.3261061482817" y2="474.4544037014862"/><text x="582.5" y="510.75293734471256" text-anchor="middle" style="font-color:black;font-weight:normal" transform="rotate(316.75,582.5,324.5)">g__Methanosarcina_2619</text><path class="line" d=" M 704.0072333693668,476.4373540864203 A 194.54811057386297,194.54811057386297 0 0 0 739.732908082131,439.07216042257454"/><line x1="744.6361301821112" y1="527.241301390638" x2="704.0072333693668" y2="476.4373540864203"/><text x="809.5740552869315" y="324.5" text-anchor="start" style="font-color:black;font-weight:normal" transform="rotate(403.715,582.5,324.5)">4%&#160;&#160;&#160;s__Methanosarcina mazei</text><path class="line" d=" M 689.7366836022661,486.824554574616 A 194.54811057386297,194.54811057386297 0 0 0 704.0072333693668,476.4373540864203"/><line x1="725.593875242643" y1="541.1017148317227" x2="689.7366836022661" y2="486.824554574616"/><text x="809.5740552869315" y="324.5" text-anchor="start" style="font-color:black;font-weight:normal" transform="rotate(413.94999999999993,582.5,324.5)">1%&#160;&#160;&#160;s__Methanosarcina acetivorans</text><path class="line" d=" M 687.2596208429119,488.4341000789932 A 194.54811057386297,194.54811057386297 0 0 0 689.7366836022661,486.824554574616"/><path class="line" d=" M 677.8283125414437,474.7713500205907 A 177.95776411556216,177.95776411556216 0 0 0 678.3261061482817,474.4544037014862"/><path class="line" d=" M 634.4698227306498,447.82993916270976 A 133.83249369466614,133.83249369466614 0 0 0 654.1913131075366,437.5110259817598"/><text x="582.5" y="470.45594888412376" text-anchor="middle" style="font-color:black;font-weight:normal" transform="rotate(332.38,582.5,324.5)">o...s</text><line x1="700.3559337323866" y1="555.8052936793001" x2="654.2665476538951" y2="465.34978036937014"/><path class="line" d=" M 654.2665476538951,465.34978036937014 A 158.07940407358137,158.07940407358137 0 0 0 667.1798840881465,457.9856367669446"/><text x="791.3397020367906" y="324.5" text-anchor="start" style="font-color:black;font-weight:normal" transform="rotate(420.30499999999995,582.5,324.5)">1%&#160;&#160;&#160;g__Methanoculleus_A_2118</text><line x1="833.85" y1="324.5" x2="850.35" y2="324.5" class="tick" transform="rotate(425.07500000000005,582.5,324.5)"/><text x="853.1" y="324.5" text-anchor="start" style="font-color:black;font-weight:normal" transform="rotate(425.07500000000005,582.5,324.5)">4 more</text><path class="line" d=" M 643.8853809360663,470.17406426537514 A 158.07940407358137,158.07940407358137 0 0 0 654.2665476538951,465.34978036937014"/><line x1="610.2663550085612" y1="582.6108086259437" x2="593.5816813781363" y2="427.5132237581745"/><path class="line" d=" M 593.5816813781363,427.5132237581745 A 103.60756695926342,103.60756695926342 0 0 0 622.7328817148943,419.9769247521807"/><text x="582.5" y="437.1750449798842" text-anchor="middle" style="font-color:black;font-weight:normal" transform="rotate(345.505,582.5,324.5)">o__Meth...occales</text><path class="line" d=" M 597.4878009382217,457.49060941122536 A 133.83249369466614,133.83249369466614 0 0 0 634.4698227306498,447.82993916270976"/><line x1="611.572409966739" y1="582.4669648980773" x2="597.4878009382217" y2="457.49060941122536"/><text x="582.5" y="470.45594888412376" text-anchor="middle" style="font-color:black;font-weight:normal" transform="rotate(345.36,582.5,324.5)">f...e</text><line x1="638.5992508586637" y1="577.9660412226789" x2="616.6607709734665" y2="478.8442247664518"/><path class="line" d=" M 616.6607709734665,478.8442247664518 A 158.07940407358137,158.07940407358137 0 0 0 643.8853809360663,470.17406426537514"/><text x="791.3397020367906" y="324.5" text-anchor="start" style="font-color:black;font-weight:normal" transform="rotate(432.335,582.5,324.5)">3%&#160;&#160;&#160;s__Methanogranum sp002506905</text><line x1="833.85" y1="324.5" x2="850.35" y2="324.5" class="tick" transform="rotate(440.54499999999996,582.5,324.5)"/><text x="853.1" y="324.5" text-anchor="start" style="font-color:black;font-weight:normal" transform="rotate(440.54499999999996,582.5,324.5)">7 more</text><path class="line" d=" M 600.2031943086477,481.5849926107802 A 158.07940407358137,158.07940407358137 0 0 0 616.6607709734665,478.8442247664518"/><path class="line" d=" M 596.8144858690567,457.56476567009554 A 133.83249369466614,133.83249369466614 0 0 0 597.4878009382217,457.49060941122536"/><line x1="833.85" y1="324.5" x2="850.35" y2="324.5" class="tick" transform="rotate(446.9299999999999,582.5,324.5)"/><text x="853.1" y="324.5" text-anchor="start" style="font-color:black;font-weight:normal" transform="rotate(446.9299999999999,582.5,324.5)">5 more</text><path class="line" d=" M 582.5000000000001,428.1075669592634 A 103.60756695926342,103.60756695926342 0 0 0 593.5816813781363,427.5132237581745"/></svg>