<?xml version="1.0" standalone="no"?><!DOCTYPE svg PUBLIC "-//W3C//DTD SVG 1.1//EN" 	"http://www.w3.org/Graphics/SVG/1.1/DTD/svg11.dtd"><svg width="1315" height="649" version="1.1"	xmlns="http://www.w3.org/2000/svg"><title>Krona (snapshot) - all</title><defs>	<style type="text/css">	text {font-size: 11px; font-family: sans-serif; dominant-baseline:central}	path {stroke-width:0.27499999999999997;}	path.wedge {stroke:none}	path.line {fill:none;stroke:black;}	line {stroke:black;stroke-width:0.27499999999999997;}	line.tick {stroke-width:0.5499999999999999;}	line.pattern {stroke-width:0.18333333333333332;}	circle {fill:none;stroke:black;stroke-width:0.27499999999999997;}	rect {stroke:black;stroke-width:0.27499999999999997;}	.highlight {stroke:black;stroke-width:1.375;}	.searchHighlight {fill:rgb(255, 255, 100);stroke:none;}	</style><pattern id="hiddenPattern" patternUnits="userSpaceOnUse" x="0" y="0" width="6.6" height="6.6"><line class="pattern" x1="0" y1="0" x2="3.3" y2="3.3"/><line class="pattern" x1="3.3" y1="6.6" x2="6.6" y2="3.3"/></pattern></defs><path class="wedge" fill="rgb(207,112,112)" d=" M 582.5,389.4 L 582.5,584.1 A 259.6,259.6 0 1,1 598.8004188698097,583.5877386999794 L 586.5751047174524,389.27193467499484 A 64.9,64.9 0 1 0 582.5,389.4 Z "/><path class="wedge" fill="rgb(211,123,123)" d=" M 582.5,428.2209582838001 L 582.5,584.1 A 259.6,259.6 0 0,1 547.2682373960545,67.30186061361326 L 568.4234507730794,221.73868456869639 A 103.72095828380007,103.72095828380007 0 0 0 582.5,428.2209582838001 Z "/><path class="wedge" fill="rgb(214,134,134)" d=" M 582.5,460.0475693398276 L 582.5,584.1 A 259.6,259.6 0 0,1 462.22834928288376,94.4415508315767 L 519.7013485547233,204.37725889495357 A 135.5475693398276,135.5475693398276 0 0 0 582.5,460.0475693398276 Z "/><path class="wedge" fill="rgb(218,145,145)" d=" M 582.5,486.6098462529119 L 582.5,584.1 A 259.6,259.6 0 0,1 370.8928242288673,174.11860765984056 L 450.3597583579691,230.59281821432177 A 162.1098462529119,162.1098462529119 0 0 0 582.5,486.6098462529119 Z "/><path class="wedge" fill="rgb(222,156,156)" d=" M 582.5,509.11176743951427 L 582.5,584.1 A 259.6,259.6 0 0,1 347.6068971798213,213.96769590970712 L 415.458278617162,245.89613244502766 A 184.61176743951427,184.61176743951427 0 0 0 582.5,509.11176743951427 Z "/><path class="wedge" fill="rgb(222,156,156)" d=" M 582.5,509.11176743951427 L 582.5,584.1 A 259.6,259.6 0 0,1 347.6068971798213,213.96769590970712 L 415.458278617162,245.89613244502766 A 184.61176743951427,184.61176743951427 0 0 0 582.5,509.11176743951427 Z "/><path class="wedge" fill="rgb(222,156,156)" d=" M 582.5,509.11176743951427 L 582.5,584.1 A 259.6,259.6 0 0,1 347.6068971798213,213.96769590970712 L 415.458278617162,245.89613244502766 A 184.61176743951427,184.61176743951427 0 0 0 582.5,509.11176743951427 Z "/><path class="wedge" fill="rgb(222,166,156)" d=" M 415.458278617162,245.89613244502766 L 347.6068971798213,213.96769590970712 A 259.6,259.6 0 0,1 361.8678569006101,187.70227548906252 L 425.5998078137666,227.21775923086312 A 184.61176743951427,184.61176743951427 0 0 0 415.458278617162,245.89613244502766 Z "/><path class="wedge" fill="rgb(222,166,156)" d=" M 397.9905961423238,237.67646499681155 L 347.6068971798213,213.96769590970712 A 259.6,259.6 0 0,1 355.8894287407574,197.85163248758494 L 404.49655541653294,225.0172373786015 A 203.91676326963645,203.91676326963645 0 0 0 397.9905961423238,237.67646499681155 Z "/><path class="wedge" fill="url(#hiddenPattern)" d=" M 397.9905961423238,237.67646499681155 L 347.6068971798213,213.96769590970712 A 259.6,259.6 0 0,1 355.8894287407574,197.85163248758494 L 404.49655541653294,225.0172373786015 A 203.91676326963645,203.91676326963645 0 0 0 397.9905961423238,237.67646499681155 Z "/><path class="wedge" fill="rgb(222,167,156)" d=" M 404.49655541653294,225.0172373786015 L 355.8894287407574,197.85163248758494 A 259.6,259.6 0 0,1 361.8678569006101,187.70227548906252 L 409.19263291960385,217.04487979614106 A 203.91676326963645,203.91676326963645 0 0 0 404.49655541653294,225.0172373786015 Z "/><path class="wedge" fill="url(#hiddenPattern)" d=" M 404.49655541653294,225.0172373786015 L 355.8894287407574,197.85163248758494 A 259.6,259.6 0 0,1 361.8678569006101,187.70227548906252 L 409.19263291960385,217.04487979614106 A 203.91676326963645,203.91676326963645 0 0 0 404.49655541653294,225.0172373786015 Z "/><path class="wedge" fill="rgb(218,157,145)" d=" M 425.5998078137666,227.21775923086312 L 361.8678569006101,187.70227548906252 A 259.6,259.6 0 0,1 370.8928242288673,174.11860765984056 L 432.01781694147627,217.55787892938417 A 184.61176743951427,184.61176743951427 0 0 0 425.5998078137666,227.21775923086312 Z "/><path class="wedge" fill="url(#hiddenPattern)" d=" M 425.5998078137666,227.21775923086312 L 361.8678569006101,187.70227548906252 A 259.6,259.6 0 0,1 370.8928242288673,174.11860765984056 L 432.01781694147627,217.55787892938417 A 184.61176743951427,184.61176743951427 0 0 0 425.5998078137666,227.21775923086312 Z "/><path class="wedge" fill="rgb(218,158,145)" d=" M 450.3597583579691,230.59281821432177 L 370.8928242288673,174.11860765984056 A 259.6,259.6 0 0,1 390.1871268039596,150.12133501175177 L 462.40828079250446,215.60747853993473 A 162.1098462529119,162.1098462529119 0 0 0 450.3597583579691,230.59281821432177 Z "/><path class="wedge" fill="rgb(218,158,145)" d=" M 450.3597583579691,230.59281821432177 L 370.8928242288673,174.11860765984056 A 259.6,259.6 0 0,1 390.1871268039596,150.12133501175177 L 462.40828079250446,215.60747853993473 A 162.1098462529119,162.1098462529119 0 0 0 450.3597583579691,230.59281821432177 Z "/><path class="wedge" fill="url(#hiddenPattern)" d=" M 450.3597583579691,230.59281821432177 L 370.8928242288673,174.11860765984056 A 259.6,259.6 0 0,1 390.1871268039596,150.12133501175177 L 462.40828079250446,215.60747853993473 A 162.1098462529119,162.1098462529119 0 0 0 450.3597583579691,230.59281821432177 Z "/><path class="wedge" fill="rgb(218,158,145)" d=" M 462.40828079250446,215.60747853993473 L 390.1871268039596,150.12133501175177 A 259.6,259.6 0 0,1 404.79157130091244,135.25974432140154 L 471.5281739050245,206.32700788551875 A 162.1098462529119,162.1098462529119 0 0 0 462.40828079250446,215.60747853993473 Z "/><path class="wedge" fill="rgb(218,158,145)" d=" M 462.40828079250446,215.60747853993473 L 390.1871268039596,150.12133501175177 A 259.6,259.6 0 0,1 404.79157130091244,135.25974432140154 L 471.5281739050245,206.32700788551875 A 162.1098462529119,162.1098462529119 0 0 0 462.40828079250446,215.60747853993473 Z "/><path class="wedge" fill="url(#hiddenPattern)" d=" M 462.40828079250446,215.60747853993473 L 390.1871268039596,150.12133501175177 A 259.6,259.6 0 0,1 404.79157130091244,135.25974432140154 L 471.5281739050245,206.32700788551875 A 162.1098462529119,162.1098462529119 0 0 0 462.40828079250446,215.60747853993473 Z "/><path class="wedge" fill="rgb(214,150,134)" d=" M 471.5281739050245,206.32700788551875 L 404.79157130091244,135.25974432140154 A 259.6,259.6 0 0,1 462.22834928288376,94.4415508315767 L 507.3951509771355,180.8376740220476 A 162.1098462529119,162.1098462529119 0 0 0 471.5281739050245,206.32700788551875 Z "/><path class="wedge" fill="url(#hiddenPattern)" d=" M 471.5281739050245,206.32700788551875 L 404.79157130091244,135.25974432140154 A 259.6,259.6 0 0,1 462.22834928288376,94.4415508315767 L 507.3951509771355,180.8376740220476 A 162.1098462529119,162.1098462529119 0 0 0 471.5281739050245,206.32700788551875 Z "/><path class="wedge" fill="rgb(214,151,134)" d=" M 519.7013485547233,204.37725889495357 L 462.22834928288376,94.4415508315767 A 259.6,259.6 0 0,1 547.2682373960545,67.30186061361326 L 564.1040840349666,190.20653839541257 A 135.5475693398276,135.5475693398276 0 0 0 519.7013485547233,204.37725889495357 Z "/><path class="wedge" fill="rgb(218,161,145)" d=" M 507.3951509771355,180.8376740220476 L 462.22834928288376,94.4415508315767 A 259.6,259.6 0 0,1 486.09290989115914,83.46507934171478 L 522.2976172756748,173.9833053563273 A 162.1098462529119,162.1098462529119 0 0 0 507.3951509771355,180.8376740220476 Z "/><path class="wedge" fill="rgb(218,161,145)" d=" M 507.3951509771355,180.8376740220476 L 462.22834928288376,94.4415508315767 A 259.6,259.6 0 0,1 486.09290989115914,83.46507934171478 L 522.2976172756748,173.9833053563273 A 162.1098462529119,162.1098462529119 0 0 0 507.3951509771355,180.8376740220476 Z "/><path class="wedge" fill="url(#hiddenPattern)" d=" M 507.3951509771355,180.8376740220476 L 462.22834928288376,94.4415508315767 A 259.6,259.6 0 0,1 486.09290989115914,83.46507934171478 L 522.2976172756748,173.9833053563273 A 162.1098462529119,162.1098462529119 0 0 0 507.3951509771355,180.8376740220476 Z "/><path class="wedge" fill="rgb(218,161,145)" d=" M 522.2976172756748,173.9833053563273 L 486.09290989115914,83.46507934171478 A 259.6,259.6 0 0,1 503.1414988315777,77.3272096441408 L 532.9437811121938,170.15045052969356 A 162.1098462529119,162.1098462529119 0 0 0 522.2976172756748,173.9833053563273 Z "/><path class="wedge" fill="rgb(218,161,145)" d=" M 522.2976172756748,173.9833053563273 L 486.09290989115914,83.46507934171478 A 259.6,259.6 0 0,1 503.1414988315777,77.3272096441408 L 532.9437811121938,170.15045052969356 A 162.1098462529119,162.1098462529119 0 0 0 522.2976172756748,173.9833053563273 Z "/><path class="wedge" fill="url(#hiddenPattern)" d=" M 522.2976172756748,173.9833053563273 L 486.09290989115914,83.46507934171478 A 259.6,259.6 0 0,1 503.1414988315777,77.3272096441408 L 532.9437811121938,170.15045052969356 A 162.1098462529119,162.1098462529119 0 0 0 522.2976172756748,173.9833053563273 Z "/><path class="wedge" fill="rgb(218,162,145)" d=" M 532.9437811121938,170.15045052969356 L 503.1414988315777,77.3272096441408 A 259.6,259.6 0 0,1 519.6970759023262,72.6112294587513 L 543.2820786991249,167.20550899354072 A 162.1098462529119,162.1098462529119 0 0 0 532.9437811121938,170.15045052969356 Z "/><path class="wedge" fill="rgb(218,162,145)" d=" M 532.9437811121938,170.15045052969356 L 503.1414988315777,77.3272096441408 A 259.6,259.6 0 0,1 519.6970759023262,72.6112294587513 L 543.2820786991249,167.20550899354072 A 162.1098462529119,162.1098462529119 0 0 0 532.9437811121938,170.15045052969356 Z "/><path class="wedge" fill="url(#hiddenPattern)" d=" M 532.9437811121938,170.15045052969356 L 503.1414988315777,77.3272096441408 A 259.6,259.6 0 0,1 519.6970759023262,72.6112294587513 L 543.2820786991249,167.20550899354072 A 162.1098462529119,162.1098462529119 0 0 0 532.9437811121938,170.15045052969356 Z "/><path class="wedge" fill="rgb(214,153,134)" d=" M 543.2820786991249,167.20550899354072 L 519.6970759023262,72.6112294587513 A 259.6,259.6 0 0,1 547.2682373960545,67.30186061361326 L 560.499169418549,163.8900199057698 A 162.1098462529119,162.1098462529119 0 0 0 543.2820786991249,167.20550899354072 Z "/><path class="wedge" fill="url(#hiddenPattern)" d=" M 543.2820786991249,167.20550899354072 L 519.6970759023262,72.6112294587513 A 259.6,259.6 0 0,1 547.2682373960545,67.30186061361326 L 560.499169418549,163.8900199057698 A 162.1098462529119,162.1098462529119 0 0 0 543.2820786991249,167.20550899354072 Z "/><path class="wedge" fill="rgb(211,144,123)" d=" M 568.4234507730794,221.73868456869639 L 547.2682373960545,67.30186061361326 A 259.6,259.6 0 0,1 782.5252378245949,159.02473226124016 L 662.4183719110631,258.38577295018274 A 103.72095828380007,103.72095828380007 0 0 0 568.4234507730794,221.73868456869639 Z "/><path class="wedge" fill="rgb(211,144,123)" d=" M 568.4234507730794,221.73868456869639 L 547.2682373960545,67.30186061361326 A 259.6,259.6 0 0,1 782.5252378245949,159.02473226124016 L 662.4183719110631,258.38577295018274 A 103.72095828380007,103.72095828380007 0 0 0 568.4234507730794,221.73868456869639 Z "/><path class="wedge" fill="rgb(214,154,134)" d=" M 564.1040840349666,190.20653839541257 L 547.2682373960545,67.30186061361326 A 259.6,259.6 0 0,1 658.3996945460225,76.24328535199598 L 622.1302739189088,194.87521478109355 A 135.5475693398276,135.5475693398276 0 0 0 564.1040840349666,190.20653839541257 Z "/><path class="wedge" fill="rgb(214,154,134)" d=" M 564.1040840349666,190.20653839541257 L 547.2682373960545,67.30186061361326 A 259.6,259.6 0 0,1 658.3996945460225,76.24328535199598 L 622.1302739189088,194.87521478109355 A 135.5475693398276,135.5475693398276 0 0 0 564.1040840349666,190.20653839541257 Z "/><path class="wedge" fill="rgb(218,163,145)" d=" M 560.499169418549,163.8900199057698 L 547.2682373960545,67.30186061361326 A 259.6,259.6 0 0,1 587.030644711119,64.93953833740079 L 585.3292069242915,162.4148438618691 A 162.1098462529119,162.1098462529119 0 0 0 560.499169418549,163.8900199057698 Z "/><path class="wedge" fill="rgb(222,172,156)" d=" M 557.4453083038376,141.5962900836849 L 547.2682373960545,67.30186061361326 A 259.6,259.6 0 0,1 564.3912194160253,65.53237255254959 L 569.6221340917491,140.3379375474134 A 184.61176743951427,184.61176743951427 0 0 0 557.4453083038376,141.5962900836849 Z "/><path class="wedge" fill="rgb(222,172,156)" d=" M 569.6221340917491,140.3379375474134 L 564.3912194160253,65.53237255254959 A 259.6,259.6 0 0,1 580.6876648266492,64.90632626887952 L 581.211177197438,139.89273141903405 A 184.61176743951427,184.61176743951427 0 0 0 569.6221340917491,140.3379375474134 Z "/><path class="wedge" fill="rgb(222,173,156)" d=" M 581.211177197438,139.89273141903405 L 580.6876648266492,64.90632626887952 A 259.6,259.6 0 0,1 587.030644711119,64.93953833740079 L 585.7219195984597,139.91634982685395 A 184.61176743951427,184.61176743951427 0 0 0 581.211177197438,139.89273141903405 Z "/><path class="wedge" fill="url(#hiddenPattern)" d=" M 581.211177197438,139.89273141903405 L 580.6876648266492,64.90632626887952 A 259.6,259.6 0 0,1 587.030644711119,64.93953833740079 L 585.7219195984597,139.91634982685395 A 184.61176743951427,184.61176743951427 0 0 0 581.211177197438,139.89273141903405 Z "/><path class="wedge" fill="rgb(218,164,145)" d=" M 585.3292069242915,162.4148438618691 L 587.030644711119,64.93953833740079 A 259.6,259.6 0 0,1 625.7931666475001,68.5354287764969 L 609.5348558899382,164.66033402452004 A 162.1098462529119,162.1098462529119 0 0 0 585.3292069242915,162.4148438618691 Z "/><path class="wedge" fill="rgb(222,173,156)" d=" M 585.7219195984597,139.91634982685395 L 587.030644711119,64.93953833740079 A 259.6,259.6 0 0,1 605.125630817292,65.88785637538285 L 598.5899757111488,140.59073607140954 A 184.61176743951427,184.61176743951427 0 0 0 585.7219195984597,139.91634982685395 Z "/><path class="wedge" fill="rgb(222,173,156)" d=" M 598.5899757111488,140.59073607140954 L 605.125630817292,65.88785637538285 A 259.6,259.6 0 0,1 625.7931666475001,68.5354287764969 L 613.2874730849323,142.47352890805726 A 184.61176743951427,184.61176743951427 0 0 0 598.5899757111488,140.59073607140954 Z "/><path class="wedge" fill="url(#hiddenPattern)" d=" M 598.5899757111488,140.59073607140954 L 605.125630817292,65.88785637538285 A 259.6,259.6 0 0,1 625.7931666475001,68.5354287764969 L 613.2874730849323,142.47352890805726 A 184.61176743951427,184.61176743951427 0 0 0 598.5899757111488,140.59073607140954 Z "/><path class="wedge" fill="rgb(218,165,145)" d=" M 609.5348558899382,164.66033402452004 L 625.7931666475001,68.5354287764969 A 259.6,259.6 0 0,1 649.6894241086143,73.74565549535782 L 624.457115608895,167.91391280856223 A 162.1098462529119,162.1098462529119 0 0 0 609.5348558899382,164.66033402452004 Z "/><path class="wedge" fill="rgb(218,165,145)" d=" M 609.5348558899382,164.66033402452004 L 625.7931666475001,68.5354287764969 A 259.6,259.6 0 0,1 649.6894241086143,73.74565549535782 L 624.457115608895,167.91391280856223 A 162.1098462529119,162.1098462529119 0 0 0 609.5348558899382,164.66033402452004 Z "/><path class="wedge" fill="rgb(214,156,134)" d=" M 624.457115608895,167.91391280856223 L 649.6894241086143,73.74565549535782 A 259.6,259.6 0 0,1 658.3996945460225,76.24328535199598 L 629.8963321013046,169.4735830399039 A 162.1098462529119,162.1098462529119 0 0 0 624.457115608895,167.91391280856223 Z "/><path class="wedge" fill="url(#hiddenPattern)" d=" M 624.457115608895,167.91391280856223 L 649.6894241086143,73.74565549535782 A 259.6,259.6 0 0,1 658.3996945460225,76.24328535199598 L 629.8963321013046,169.4735830399039 A 162.1098462529119,162.1098462529119 0 0 0 624.457115608895,167.91391280856223 Z "/><path class="wedge" fill="rgb(214,156,134)" d=" M 622.1302739189088,194.87521478109355 L 658.3996945460225,76.24328535199598 A 259.6,259.6 0 0,1 735.089051495126,114.47918826026358 L 662.172862242042,214.83971285786288 A 135.5475693398276,135.5475693398276 0 0 0 622.1302739189088,194.87521478109355 Z "/><path class="wedge" fill="rgb(214,156,134)" d=" M 622.1302739189088,194.87521478109355 L 658.3996945460225,76.24328535199598 A 259.6,259.6 0 0,1 735.089051495126,114.47918826026358 L 662.172862242042,214.83971285786288 A 135.5475693398276,135.5475693398276 0 0 0 622.1302739189088,194.87521478109355 Z "/><path class="wedge" fill="rgb(214,156,134)" d=" M 629.8963321013046,169.4735830399039 L 658.3996945460225,76.24328535199598 A 259.6,259.6 0 0,1 688.0888325424778,87.34359919598083 L 648.4360146744435,176.40528631651196 A 162.1098462529119,162.1098462529119 0 0 0 629.8963321013046,169.4735830399039 Z "/><path class="wedge" fill="url(#hiddenPattern)" d=" M 629.8963321013046,169.4735830399039 L 658.3996945460225,76.24328535199598 A 259.6,259.6 0 0,1 688.0888325424778,87.34359919598083 L 648.4360146744435,176.40528631651196 A 162.1098462529119,162.1098462529119 0 0 0 629.8963321013046,169.4735830399039 Z "/><path class="wedge" fill="rgb(214,158,134)" d=" M 648.4360146744435,176.40528631651196 L 688.0888325424778,87.34359919598083 A 259.6,259.6 0 0,1 735.089051495126,114.47918826026358 L 677.7857768788618,193.35037942588437 A 162.1098462529119,162.1098462529119 0 0 0 648.4360146744435,176.40528631651196 Z "/><path class="wedge" fill="url(#hiddenPattern)" d=" M 648.4360146744435,176.40528631651196 L 688.0888325424778,87.34359919598083 A 259.6,259.6 0 0,1 735.089051495126,114.47918826026358 L 677.7857768788618,193.35037942588437 A 162.1098462529119,162.1098462529119 0 0 0 648.4360146744435,176.40528631651196 Z "/><path class="wedge" fill="rgb(214,158,134)" d=" M 662.172862242042,214.83971285786288 L 735.089051495126,114.47918826026358 A 259.6,259.6 0 0,1 761.52523355378,136.5049847708335 L 675.976252922611,226.34026439785288 A 135.5475693398276,135.5475693398276 0 0 0 662.172862242042,214.83971285786288 Z "/><path class="wedge" fill="rgb(214,158,134)" d=" M 677.7857768788618,193.35037942588437 L 735.089051495126,114.47918826026358 A 259.6,259.6 0 0,1 755.531829276758,130.97443048232904 L 690.5514762747124,203.6510003061755 A 162.1098462529119,162.1098462529119 0 0 0 677.7857768788618,193.35037942588437 Z "/><path class="wedge" fill="url(#hiddenPattern)" d=" M 677.7857768788618,193.35037942588437 L 735.089051495126,114.47918826026358 A 259.6,259.6 0 0,1 755.531829276758,130.97443048232904 L 690.5514762747124,203.6510003061755 A 162.1098462529119,162.1098462529119 0 0 0 677.7857768788618,193.35037942588437 Z "/><path class="wedge" fill="rgb(214,159,134)" d=" M 690.5514762747124,203.6510003061755 L 755.531829276758,130.97443048232904 A 259.6,259.6 0 0,1 761.52523355378,136.5049847708335 L 694.2941182079927,207.10461088168717 A 162.1098462529119,162.1098462529119 0 0 0 690.5514762747124,203.6510003061755 Z "/><path class="wedge" fill="url(#hiddenPattern)" d=" M 690.5514762747124,203.6510003061755 L 755.531829276758,130.97443048232904 A 259.6,259.6 0 0,1 761.52523355378,136.5049847708335 L 694.2941182079927,207.10461088168717 A 162.1098462529119,162.1098462529119 0 0 0 690.5514762747124,203.6510003061755 Z "/><path class="wedge" fill="rgb(211,151,123)" d=" M 675.976252922611,226.34026439785288 L 761.52523355378,136.5049847708335 A 259.6,259.6 0 0,1 782.5252378245949,159.02473226124016 L 686.9411972024067,238.09872755066993 A 135.5475693398276,135.5475693398276 0 0 0 675.976252922611,226.34026439785288 Z "/><path class="wedge" fill="url(#hiddenPattern)" d=" M 675.976252922611,226.34026439785288 L 761.52523355378,136.5049847708335 A 259.6,259.6 0 0,1 782.5252378245949,159.02473226124016 L 686.9411972024067,238.09872755066993 A 135.5475693398276,135.5475693398276 0 0 0 675.976252922611,226.34026439785288 Z "/><path class="wedge" fill="rgb(211,152,123)" d=" M 662.4183719110631,258.38577295018274 L 782.5252378245949,159.02473226124016 A 259.6,259.6 0 0,1 841.9418586941573,333.5599093439693 L 686.1577742784601,328.11980924160576 A 103.72095828380007,103.72095828380007 0 0 0 662.4183719110631,258.38577295018274 Z "/><path class="wedge" fill="rgb(214,160,134)" d=" M 686.9411972024067,238.09872755066993 L 782.5252378245949,159.02473226124016 A 259.6,259.6 0 0,1 842.0225067471952,330.8425934484288 L 718.0071070052438,327.8117223622698 A 135.5475693398276,135.5475693398276 0 0 0 686.9411972024067,238.09872755066993 Z "/><path class="wedge" fill="rgb(218,169,145)" d=" M 707.4077833222158,221.16729502392224 L 782.5252378245949,159.02473226124016 A 259.6,259.6 0 0,1 839.4459095436621,287.4735288100491 L 742.9524726172483,301.3784454857827 A 162.1098462529119,162.1098462529119 0 0 0 707.4077833222158,221.16729502392224 Z "/><path class="wedge" fill="rgb(222,177,156)" d=" M 724.74581158439,206.82403064414757 L 782.5252378245949,159.02473226124016 A 259.6,259.6 0 0,1 817.7775015147143,214.78829925211448 L 749.8150824090309,246.47969574783428 A 184.61176743951427,184.61176743951427 0 0 0 724.74581158439,206.82403064414757 Z "/><path class="wedge" fill="rgb(222,177,156)" d=" M 724.74581158439,206.82403064414757 L 782.5252378245949,159.02473226124016 A 259.6,259.6 0 0,1 817.7775015147143,214.78829925211448 L 749.8150824090309,246.47969574783428 A 184.61176743951427,184.61176743951427 0 0 0 724.74581158439,206.82403064414757 Z "/><path class="wedge" fill="rgb(222,177,156)" d=" M 724.74581158439,206.82403064414757 L 782.5252378245949,159.02473226124016 A 259.6,259.6 0 0,1 817.7775015147143,214.78829925211448 L 749.8150824090309,246.47969574783428 A 184.61176743951427,184.61176743951427 0 0 0 724.74581158439,206.82403064414757 Z "/><path class="wedge" fill="rgb(218,170,145)" d=" M 749.8150824090309,246.47969574783428 L 817.7775015147143,214.78829925211448 A 259.6,259.6 0 0,1 826.7526476205169,236.56363590432233 L 756.1976617064888,261.9649938447315 A 184.61176743951427,184.61176743951427 0 0 0 749.8150824090309,246.47969574783428 Z "/><path class="wedge" fill="url(#hiddenPattern)" d=" M 749.8150824090309,246.47969574783428 L 817.7775015147143,214.78829925211448 A 259.6,259.6 0 0,1 826.7526476205169,236.56363590432233 L 756.1976617064888,261.9649938447315 A 184.61176743951427,184.61176743951427 0 0 0 749.8150824090309,246.47969574783428 Z "/><path class="wedge" fill="rgb(218,171,145)" d=" M 756.1976617064888,261.9649938447315 L 826.7526476205169,236.56363590432233 A 259.6,259.6 0 0,1 839.4459095436621,287.4735288100491 L 765.2243393575077,298.16902046061216 A 184.61176743951427,184.61176743951427 0 0 0 756.1976617064888,261.9649938447315 Z "/><path class="wedge" fill="url(#hiddenPattern)" d=" M 756.1976617064888,261.9649938447315 L 826.7526476205169,236.56363590432233 A 259.6,259.6 0 0,1 839.4459095436621,287.4735288100491 L 765.2243393575077,298.16902046061216 A 184.61176743951427,184.61176743951427 0 0 0 756.1976617064888,261.9649938447315 Z "/><path class="wedge" fill="rgb(218,172,145)" d=" M 742.9524726172483,301.3784454857827 L 839.4459095436621,287.4735288100491 A 259.6,259.6 0 0,1 842.085765967287,321.7815248434227 L 744.6009576671852,322.8024206869218 A 162.1098462529119,162.1098462529119 0 0 0 742.9524726172483,301.3784454857827 Z "/><path class="wedge" fill="rgb(222,180,156)" d=" M 765.2243393575077,298.16902046061216 L 839.4459095436621,287.4735288100491 A 259.6,259.6 0 0,1 841.5292611686162,307.29529545616003 L 766.7058926151378,312.2650581120457 A 184.61176743951427,184.61176743951427 0 0 0 765.2243393575077,298.16902046061216 Z "/><path class="wedge" fill="rgb(222,180,156)" d=" M 765.2243393575077,298.16902046061216 L 839.4459095436621,287.4735288100491 A 259.6,259.6 0 0,1 841.5292611686162,307.29529545616003 L 766.7058926151378,312.2650581120457 A 184.61176743951427,184.61176743951427 0 0 0 765.2243393575077,298.16902046061216 Z "/><path class="wedge" fill="rgb(222,180,156)" d=" M 765.2243393575077,298.16902046061216 L 839.4459095436621,287.4735288100491 A 259.6,259.6 0 0,1 841.5292611686162,307.29529545616003 L 766.7058926151378,312.2650581120457 A 184.61176743951427,184.61176743951427 0 0 0 765.2243393575077,298.16902046061216 Z "/><path class="wedge" fill="rgb(218,172,145)" d=" M 766.7058926151378,312.2650581120457 L 841.5292611686162,307.29529545616003 A 259.6,259.6 0 0,1 842.085765967287,321.7815248434227 L 767.1016450591717,322.56678542605493 A 184.61176743951427,184.61176743951427 0 0 0 766.7058926151378,312.2650581120457 Z "/><path class="wedge" fill="url(#hiddenPattern)" d=" M 766.7058926151378,312.2650581120457 L 841.5292611686162,307.29529545616003 A 259.6,259.6 0 0,1 842.085765967287,321.7815248434227 L 767.1016450591717,322.56678542605493 A 184.61176743951427,184.61176743951427 0 0 0 766.7058926151378,312.2650581120457 Z "/><path class="wedge" fill="rgb(214,165,134)" d=" M 744.6009576671852,322.8024206869218 L 842.085765967287,321.7815248434227 A 259.6,259.6 0 0,1 842.0225067471952,330.8425934484288 L 744.5614548072346,328.46069664395037 A 162.1098462529119,162.1098462529119 0 0 0 744.6009576671852,322.8024206869218 Z "/><path class="wedge" fill="url(#hiddenPattern)" d=" M 744.6009576671852,322.8024206869218 L 842.085765967287,321.7815248434227 A 259.6,259.6 0 0,1 842.0225067471952,330.8425934484288 L 744.5614548072346,328.46069664395037 A 162.1098462529119,162.1098462529119 0 0 0 744.6009576671852,322.8024206869218 Z "/><path class="wedge" fill="rgb(211,157,123)" d=" M 718.0071070052438,327.8117223622698 L 842.0225067471952,330.8425934484288 A 259.6,259.6 0 0,1 841.9418586941573,333.5599093439693 L 717.9649974229585,329.23054194920735 A 135.5475693398276,135.5475693398276 0 0 0 718.0071070052438,327.8117223622698 Z "/><path class="wedge" fill="url(#hiddenPattern)" d=" M 718.0071070052438,327.8117223622698 L 842.0225067471952,330.8425934484288 A 259.6,259.6 0 0,1 841.9418586941573,333.5599093439693 L 717.9649974229585,329.23054194920735 A 135.5475693398276,135.5475693398276 0 0 0 718.0071070052438,327.8117223622698 Z "/><path class="wedge" fill="rgb(211,157,123)" d=" M 686.1577742784601,328.11980924160576 L 841.9418586941573,333.5599093439693 A 259.6,259.6 0 0,1 834.3887705412487,387.30292409767367 L 683.1400025480222,349.5923708414309 A 103.72095828380007,103.72095828380007 0 0 0 686.1577742784601,328.11980924160576 Z "/><path class="wedge" fill="rgb(211,157,123)" d=" M 686.1577742784601,328.11980924160576 L 841.9418586941573,333.5599093439693 A 259.6,259.6 0 0,1 834.3887705412487,387.30292409767367 L 683.1400025480222,349.5923708414309 A 103.72095828380007,103.72095828380007 0 0 0 686.1577742784601,328.11980924160576 Z "/><path class="wedge" fill="url(#hiddenPattern)" d=" M 686.1577742784601,328.11980924160576 L 841.9418586941573,333.5599093439693 A 259.6,259.6 0 0,1 834.3887705412487,387.30292409767367 L 683.1400025480222,349.5923708414309 A 103.72095828380007,103.72095828380007 0 0 0 686.1577742784601,328.11980924160576 Z "/><path class="wedge" fill="rgb(211,158,123)" d=" M 683.1400025480222,349.5923708414309 L 834.3887705412487,387.30292409767367 A 259.6,259.6 0 0,1 819.6564008040192,430.0888325424778 L 677.2538103025032,366.687114388958 A 103.72095828380007,103.72095828380007 0 0 0 683.1400025480222,349.5923708414309 Z "/><path class="wedge" fill="rgb(214,166,134)" d=" M 714.021227237534,357.29192491861846 L 834.3887705412487,387.30292409767367 A 259.6,259.6 0 0,1 820.7491008275615,427.5995924087891 L 706.899408761847,378.3324312439842 A 135.5475693398276,135.5475693398276 0 0 0 714.021227237534,357.29192491861846 Z "/><path class="wedge" fill="rgb(218,174,145)" d=" M 739.7944910064593,363.7179213008751 L 834.3887705412487,387.30292409767367 A 259.6,259.6 0 0,1 822.1653723625299,424.2630657624851 L 732.1614663553028,386.79805567209394 A 162.1098462529119,162.1098462529119 0 0 0 739.7944910064593,363.7179213008751 Z "/><path class="wedge" fill="rgb(218,174,145)" d=" M 739.7944910064593,363.7179213008751 L 834.3887705412487,387.30292409767367 A 259.6,259.6 0 0,1 822.1653723625299,424.2630657624851 L 732.1614663553028,386.79805567209394 A 162.1098462529119,162.1098462529119 0 0 0 739.7944910064593,363.7179213008751 Z "/><path class="wedge" fill="rgb(218,174,145)" d=" M 761.6280089668189,369.16162872897223 L 834.3887705412487,387.30292409767367 A 259.6,259.6 0 0,1 827.6601057136501,409.87378149333625 L 756.8429908376545,385.2126529063163 A 184.61176743951427,184.61176743951427 0 0 0 761.6280089668189,369.16162872897223 Z "/><path class="wedge" fill="url(#hiddenPattern)" d=" M 761.6280089668189,369.16162872897223 L 834.3887705412487,387.30292409767367 A 259.6,259.6 0 0,1 827.6601057136501,409.87378149333625 L 756.8429908376545,385.2126529063163 A 184.61176743951427,184.61176743951427 0 0 0 761.6280089668189,369.16162872897223 Z "/><path class="wedge" fill="rgb(218,175,145)" d=" M 756.8429908376545,385.2126529063163 L 827.6601057136501,409.87378149333625 A 259.6,259.6 0 0,1 822.1653723625299,424.2630657624851 L 752.9354698994451,395.4454387349648 A 184.61176743951427,184.61176743951427 0 0 0 756.8429908376545,385.2126529063163 Z "/><path class="wedge" fill="url(#hiddenPattern)" d=" M 756.8429908376545,385.2126529063163 L 827.6601057136501,409.87378149333625 A 259.6,259.6 0 0,1 822.1653723625299,424.2630657624851 L 752.9354698994451,395.4454387349648 A 184.61176743951427,184.61176743951427 0 0 0 756.8429908376545,385.2126529063163 Z "/><path class="wedge" fill="rgb(214,167,134)" d=" M 732.1614663553028,386.79805567209394 L 822.1653723625299,424.2630657624851 A 259.6,259.6 0 0,1 820.7491008275615,427.5995924087891 L 731.2770612675289,388.88158349047256 A 162.1098462529119,162.1098462529119 0 0 0 732.1614663553028,386.79805567209394 Z "/><path class="wedge" fill="url(#hiddenPattern)" d=" M 732.1614663553028,386.79805567209394 L 822.1653723625299,424.2630657624851 A 259.6,259.6 0 0,1 820.7491008275615,427.5995924087891 L 731.2770612675289,388.88158349047256 A 162.1098462529119,162.1098462529119 0 0 0 732.1614663553028,386.79805567209394 Z "/><path class="wedge" fill="rgb(211,159,123)" d=" M 706.899408761847,378.3324312439842 L 820.7491008275615,427.5995924087891 A 259.6,259.6 0 0,1 819.6564008040192,430.0888325424778 L 706.3288662648949,379.63216333036576 A 135.5475693398276,135.5475693398276 0 0 0 706.899408761847,378.3324312439842 Z "/><path class="wedge" fill="url(#hiddenPattern)" d=" M 706.899408761847,378.3324312439842 L 820.7491008275615,427.5995924087891 A 259.6,259.6 0 0,1 819.6564008040192,430.0888325424778 L 706.3288662648949,379.63216333036576 A 135.5475693398276,135.5475693398276 0 0 0 706.899408761847,378.3324312439842 Z "/><path class="wedge" fill="rgb(211,159,123)" d=" M 677.2538103025032,366.687114388958 L 819.6564008040192,430.0888325424778 A 259.6,259.6 0 0,1 801.6875294603232,463.60063597654755 L 670.074501538842,380.0764686493588 A 103.72095828380007,103.72095828380007 0 0 0 677.2538103025032,366.687114388958 Z "/><path class="wedge" fill="rgb(214,167,134)" d=" M 706.3288662648949,379.63216333036576 L 819.6564008040192,430.0888325424778 A 259.6,259.6 0 0,1 811.286376156072,447.17417856000645 L 701.958540778209,388.5531075676767 A 135.5475693398276,135.5475693398276 0 0 0 706.3288662648949,379.63216333036576 Z "/><path class="wedge" fill="rgb(214,167,134)" d=" M 706.3288662648949,379.63216333036576 L 819.6564008040192,430.0888325424778 A 259.6,259.6 0 0,1 811.286376156072,447.17417856000645 L 701.958540778209,388.5531075676767 A 135.5475693398276,135.5475693398276 0 0 0 706.3288662648949,379.63216333036576 Z "/><path class="wedge" fill="rgb(214,167,134)" d=" M 706.3288662648949,379.63216333036576 L 819.6564008040192,430.0888325424778 A 259.6,259.6 0 0,1 811.286376156072,447.17417856000645 L 701.958540778209,388.5531075676767 A 135.5475693398276,135.5475693398276 0 0 0 706.3288662648949,379.63216333036576 Z "/><path class="wedge" fill="url(#hiddenPattern)" d=" M 706.3288662648949,379.63216333036576 L 819.6564008040192,430.0888325424778 A 259.6,259.6 0 0,1 811.286376156072,447.17417856000645 L 701.958540778209,388.5531075676767 A 135.5475693398276,135.5475693398276 0 0 0 706.3288662648949,379.63216333036576 Z "/><path class="wedge" fill="rgb(211,160,123)" d=" M 701.958540778209,388.5531075676767 L 811.286376156072,447.17417856000645 A 259.6,259.6 0 0,1 801.6875294603232,463.60063597654755 L 696.9465980275372,397.13001964655314 A 135.5475693398276,135.5475693398276 0 0 0 701.958540778209,388.5531075676767 Z "/><path class="wedge" fill="url(#hiddenPattern)" d=" M 701.958540778209,388.5531075676767 L 811.286376156072,447.17417856000645 A 259.6,259.6 0 0,1 801.6875294603232,463.60063597654755 L 696.9465980275372,397.13001964655314 A 135.5475693398276,135.5475693398276 0 0 0 701.958540778209,388.5531075676767 Z "/><path class="wedge" fill="rgb(211,160,123)" d=" M 670.074501538842,380.0764686493588 L 801.6875294603232,463.60063597654755 A 259.6,259.6 0 0,1 781.3651374336868,491.3676634746256 L 661.9548637282804,391.1705468496411 A 103.72095828380007,103.72095828380007 0 0 0 670.074501538842,380.0764686493588 Z "/><path class="wedge" fill="rgb(214,168,134)" d=" M 696.9465980275372,397.13001964655314 L 801.6875294603232,463.60063597654755 A 259.6,259.6 0 0,1 783.6755892676051,488.5748069717953 L 687.5418418171471,410.17003572776673 A 135.5475693398276,135.5475693398276 0 0 0 696.9465980275372,397.13001964655314 Z "/><path class="wedge" fill="rgb(214,168,134)" d=" M 696.9465980275372,397.13001964655314 L 801.6875294603232,463.60063597654755 A 259.6,259.6 0 0,1 783.6755892676051,488.5748069717953 L 687.5418418171471,410.17003572776673 A 135.5475693398276,135.5475693398276 0 0 0 696.9465980275372,397.13001964655314 Z "/><path class="wedge" fill="url(#hiddenPattern)" d=" M 696.9465980275372,397.13001964655314 L 801.6875294603232,463.60063597654755 A 259.6,259.6 0 0,1 783.6755892676051,488.5748069717953 L 687.5418418171471,410.17003572776673 A 135.5475693398276,135.5475693398276 0 0 0 696.9465980275372,397.13001964655314 Z "/><path class="wedge" fill="rgb(211,161,123)" d=" M 687.5418418171471,410.17003572776673 L 783.6755892676051,488.5748069717953 A 259.6,259.6 0 0,1 781.3651374336868,491.3676634746256 L 686.3354622710593,411.6282980947682 A 135.5475693398276,135.5475693398276 0 0 0 687.5418418171471,410.17003572776673 Z "/><path class="wedge" fill="url(#hiddenPattern)" d=" M 687.5418418171471,410.17003572776673 L 783.6755892676051,488.5748069717953 A 259.6,259.6 0 0,1 781.3651374336868,491.3676634746256 L 686.3354622710593,411.6282980947682 A 135.5475693398276,135.5475693398276 0 0 0 687.5418418171471,410.17003572776673 Z "/><path class="wedge" fill="rgb(211,161,123)" d=" M 661.9548637282804,391.1705468496411 L 781.3651374336868,491.3676634746256 A 259.6,259.6 0 0,1 763.484060701045,510.60999374606524 L 654.8106325500995,398.85865522932943 A 103.72095828380007,103.72095828380007 0 0 0 661.9548637282804,391.1705468496411 Z "/><path class="wedge" fill="rgb(214,169,134)" d=" M 686.3354622710593,411.6282980947682 L 781.3651374336868,491.3676634746256 A 259.6,259.6 0 0,1 768.6099937460654,505.4840607010449 L 679.6754903009618,418.99903512048706 A 135.5475693398276,135.5475693398276 0 0 0 686.3354622710593,411.6282980947682 Z "/><path class="wedge" fill="rgb(214,169,134)" d=" M 686.3354622710593,411.6282980947682 L 781.3651374336868,491.3676634746256 A 259.6,259.6 0 0,1 768.6099937460654,505.4840607010449 L 679.6754903009618,418.99903512048706 A 135.5475693398276,135.5475693398276 0 0 0 686.3354622710593,411.6282980947682 Z "/><path class="wedge" fill="url(#hiddenPattern)" d=" M 686.3354622710593,411.6282980947682 L 781.3651374336868,491.3676634746256 A 259.6,259.6 0 0,1 768.6099937460654,505.4840607010449 L 679.6754903009618,418.99903512048706 A 135.5475693398276,135.5475693398276 0 0 0 686.3354622710593,411.6282980947682 Z "/><path class="wedge" fill="rgb(211,162,123)" d=" M 679.6754903009618,418.99903512048706 L 768.6099937460654,505.4840607010449 A 259.6,259.6 0 0,1 763.484060701045,510.60999374606524 L 676.9990351204872,421.6754903009617 A 135.5475693398276,135.5475693398276 0 0 0 679.6754903009618,418.99903512048706 Z "/><path class="wedge" fill="url(#hiddenPattern)" d=" M 679.6754903009618,418.99903512048706 L 768.6099937460654,505.4840607010449 A 259.6,259.6 0 0,1 763.484060701045,510.60999374606524 L 676.9990351204872,421.6754903009617 A 135.5475693398276,135.5475693398276 0 0 0 679.6754903009618,418.99903512048706 Z "/><path class="wedge" fill="rgb(211,162,123)" d=" M 654.8106325500995,398.85865522932943 L 763.484060701045,510.60999374606524 A 259.6,259.6 0 0,1 747.9752677387598,524.5252378245949 L 648.6142270498173,404.41837191106316 A 103.72095828380007,103.72095828380007 0 0 0 654.8106325500995,398.85865522932943 Z "/><path class="wedge" fill="rgb(211,162,123)" d=" M 654.8106325500995,398.85865522932943 L 763.484060701045,510.60999374606524 A 259.6,259.6 0 0,1 747.9752677387598,524.5252378245949 L 648.6142270498173,404.41837191106316 A 103.72095828380007,103.72095828380007 0 0 0 654.8106325500995,398.85865522932943 Z "/><path class="wedge" fill="url(#hiddenPattern)" d=" M 654.8106325500995,398.85865522932943 L 763.484060701045,510.60999374606524 A 259.6,259.6 0 0,1 747.9752677387598,524.5252378245949 L 648.6142270498173,404.41837191106316 A 103.72095828380007,103.72095828380007 0 0 0 654.8106325500995,398.85865522932943 Z "/><path class="wedge" fill="rgb(211,163,123)" d=" M 648.6142270498173,404.41837191106316 L 747.9752677387598,524.5252378245949 A 259.6,259.6 0 0,1 731.4004428767315,537.1518706974223 L 641.9918976273375,409.4632350137881 A 103.72095828380007,103.72095828380007 0 0 0 648.6142270498173,404.41837191106316 Z "/><path class="wedge" fill="rgb(211,163,123)" d=" M 648.6142270498173,404.41837191106316 L 747.9752677387598,524.5252378245949 A 259.6,259.6 0 0,1 731.4004428767315,537.1518706974223 L 641.9918976273375,409.4632350137881 A 103.72095828380007,103.72095828380007 0 0 0 648.6142270498173,404.41837191106316 Z "/><path class="wedge" fill="rgb(211,163,123)" d=" M 648.6142270498173,404.41837191106316 L 747.9752677387598,524.5252378245949 A 259.6,259.6 0 0,1 731.4004428767315,537.1518706974223 L 641.9918976273375,409.4632350137881 A 103.72095828380007,103.72095828380007 0 0 0 648.6142270498173,404.41837191106316 Z "/><path class="wedge" fill="rgb(211,163,123)" d=" M 648.6142270498173,404.41837191106316 L 747.9752677387598,524.5252378245949 A 259.6,259.6 0 0,1 731.4004428767315,537.1518706974223 L 641.9918976273375,409.4632350137881 A 103.72095828380007,103.72095828380007 0 0 0 648.6142270498173,404.41837191106316 Z "/><path class="wedge" fill="url(#hiddenPattern)" d=" M 648.6142270498173,404.41837191106316 L 747.9752677387598,524.5252378245949 A 259.6,259.6 0 0,1 731.4004428767315,537.1518706974223 L 641.9918976273375,409.4632350137881 A 103.72095828380007,103.72095828380007 0 0 0 648.6142270498173,404.41837191106316 Z "/><path class="wedge" fill="rgb(207,156,112)" d=" M 641.9918976273375,409.4632350137881 L 731.4004428767315,537.1518706974223 A 259.6,259.6 0 0,1 714.6471515287964,547.9486302102238 L 635.2982634477708,413.77698787598956 A 103.72095828380007,103.72095828380007 0 0 0 641.9918976273375,409.4632350137881 Z "/><path class="wedge" fill="url(#hiddenPattern)" d=" M 641.9918976273375,409.4632350137881 L 731.4004428767315,537.1518706974223 A 259.6,259.6 0 0,1 714.6471515287964,547.9486302102238 L 635.2982634477708,413.77698787598956 A 103.72095828380007,103.72095828380007 0 0 0 641.9918976273375,409.4632350137881 Z "/><path class="wedge" fill="rgb(211,164,123)" d=" M 635.2982634477708,413.77698787598956 L 714.6471515287964,547.9486302102238 A 259.6,259.6 0 0,1 697.9272925164072,557.0267729581516 L 628.6179868717498,417.40408211810126 A 103.72095828380007,103.72095828380007 0 0 0 635.2982634477708,413.77698787598956 Z "/><path class="wedge" fill="rgb(211,164,123)" d=" M 635.2982634477708,413.77698787598956 L 714.6471515287964,547.9486302102238 A 259.6,259.6 0 0,1 697.9272925164072,557.0267729581516 L 628.6179868717498,417.40408211810126 A 103.72095828380007,103.72095828380007 0 0 0 635.2982634477708,413.77698787598956 Z "/><path class="wedge" fill="rgb(211,164,123)" d=" M 635.2982634477708,413.77698787598956 L 714.6471515287964,547.9486302102238 A 259.6,259.6 0 0,1 697.9272925164072,557.0267729581516 L 628.6179868717498,417.40408211810126 A 103.72095828380007,103.72095828380007 0 0 0 635.2982634477708,413.77698787598956 Z "/><path class="wedge" fill="rgb(211,164,123)" d=" M 635.2982634477708,413.77698787598956 L 714.6471515287964,547.9486302102238 A 259.6,259.6 0 0,1 697.9272925164072,557.0267729581516 L 628.6179868717498,417.40408211810126 A 103.72095828380007,103.72095828380007 0 0 0 635.2982634477708,413.77698787598956 Z "/><path class="wedge" fill="url(#hiddenPattern)" d=" M 635.2982634477708,413.77698787598956 L 714.6471515287964,547.9486302102238 A 259.6,259.6 0 0,1 697.9272925164072,557.0267729581516 L 628.6179868717498,417.40408211810126 A 103.72095828380007,103.72095828380007 0 0 0 635.2982634477708,413.77698787598956 Z "/><path class="wedge" fill="rgb(207,159,112)" d=" M 628.6179868717498,417.40408211810126 L 697.9272925164072,557.0267729581516 A 259.6,259.6 0 0,1 598.8004188698097,583.5877386999794 L 589.012692856718,428.0162886654262 A 103.72095828380007,103.72095828380007 0 0 0 628.6179868717498,417.40408211810126 Z "/><path class="wedge" fill="url(#hiddenPattern)" d=" M 628.6179868717498,417.40408211810126 L 697.9272925164072,557.0267729581516 A 259.6,259.6 0 0,1 598.8004188698097,583.5877386999794 L 589.012692856718,428.0162886654262 A 103.72095828380007,103.72095828380007 0 0 0 628.6179868717498,417.40408211810126 Z "/><path class="wedge" fill="rgb(101,204,204)" d=" M 586.5751047174524,389.27193467499484 L 598.8004188698097,583.5877386999794 A 259.6,259.6 0 0,1 582.5000000000001,584.1 L 582.5,389.4 A 64.9,64.9 0 0 0 586.5751047174524,389.27193467499484 Z "/><path class="wedge" fill="url(#hiddenPattern)" d=" M 586.5751047174524,389.27193467499484 L 598.8004188698097,583.5877386999794 A 259.6,259.6 0 0,1 582.5000000000001,584.1 L 582.5,389.4 A 64.9,64.9 0 0 0 586.5751047174524,389.27193467499484 Z "/><rect fill="rgb(101,204,204)" x="1283.265" y="617.265" width="22" height="22"/><rect fill="url(#hiddenPattern)" style="stroke:none" x="1283.265" y="617.265" width="22" height="22"/><path class="line" d="M 590.6542330566821,583.9719030709439 L 592.18315175481,632.622884896746 A 308.27500000000003,308.27500000000003 0 0,0 635.0385610766039,628.265 L 890.775,628.265 L 1186.0410416666668,628.265"/><text x="1275.9316666666668" y="628.265" style="font-color:black;font-weight:normal" text-anchor="end">d__Archaea&#160;&#160;&#160;1%</text><circle cx="582.5" cy="324.5" r="64.9"/><circle cx="582.5" cy="324.5" r="259.6"/><text x="582.5" y="324.5" text-anchor="middle" style="font-color:black;font-weight:bold" transform="rotate(360,582.5,324.5)">all</text><path class="line" d=" M 586.5751047174524,389.27193467499484 A 64.9,64.9 0 1 0 582.5,389.4"/><line x1="598.8004188698097" y1="583.5877386999794" x2="586.5751047174524" y2="389.27193467499484"/><text x="582.5" y="247.95371251485997" text-anchor="middle" style="font-color:black;font-weight:normal" transform="rotate(358.2,582.5,324.5)">d__Bacteria</text><path class="line" d=" M 568.4234507730794,221.73868456869639 A 103.72095828380007,103.72095828380007 0 0 0 582.5,428.2209582838001"/><line x1="547.2682373960545" y1="67.30186061361326" x2="568.4234507730794" y2="221.73868456869639"/><text x="582.5" y="437.76894160060834" text-anchor="middle" style="font-color:black;font-weight:normal" transform="rotate(86.1,582.5,324.5)">p__Proteobacteria</text><path class="line" d=" M 519.7013485547233,204.37725889495357 A 135.5475693398276,135.5475693398276 0 0 0 582.5,460.0475693398276"/><line x1="462.22834928288376" y1="94.4415508315767" x2="519.7013485547233" y2="204.37725889495357"/><text x="582.5" y="468.0162524137529" text-anchor="middle" style="font-color:black;font-weight:normal" transform="rotate(76.2,582.5,324.5)">c__Gammaproteobacteria</text><path class="line" d=" M 450.3597583579691,230.59281821432177 A 162.1098462529119,162.1098462529119 0 0 0 582.5,486.6098462529119"/><line x1="370.8928242288673" y1="174.11860765984056" x2="450.3597583579691" y2="230.59281821432177"/><text x="582.5" y="497.8608068462131" text-anchor="middle" style="font-color:black;font-weight:normal" transform="rotate(62.70000000000002,582.5,324.5)">o__Enterobacterales_A_737866</text><line x1="347.6068971798213" y1="213.96769590970712" x2="415.458278617162" y2="245.89613244502766"/><path class="line" d=" M 415.458278617162,245.89613244502766 A 184.61176743951427,184.61176743951427 0 0 0 582.5,509.11176743951427"/><text x="360.3941162802429" y="324.5" text-anchor="end" style="font-color:black;font-weight:normal" transform="rotate(-32.39999999999999,582.5,324.5)">s__Shewanella putrefaciens_666011&#160;&#160;&#160;32%</text><path class="line" d=" M 425.5998078137666,227.21775923086312 A 184.61176743951427,184.61176743951427 0 0 0 415.458278617162,245.89613244502766"/><line x1="361.8678569006101" y1="187.70227548906252" x2="425.5998078137666" y2="227.21775923086312"/><text x="582.5" y="130.23573464542463" text-anchor="middle" style="font-color:black;font-weight:normal" transform="rotate(298.5,582.5,324.5)">f__Enterobacteriaceae_A</text><path class="line" d=" M 404.49655541653294,225.0172373786015 A 203.91676326963645,203.91676326963645 0 0 0 397.9905961423238,237.67646499681155"/><line x1="355.8894287407574" y1="197.85163248758494" x2="404.49655541653294" y2="225.0172373786015"/><text x="350.74161836518175" y="324.5" text-anchor="end" style="font-color:black;font-weight:normal" transform="rotate(27.200000000000014,582.5,324.5)">g__Citrobacter_A_692098&#160;&#160;&#160;1%</text><path class="line" d=" M 409.19263291960385,217.04487979614106 A 203.91676326963645,203.91676326963645 0 0 0 404.49655541653294,225.0172373786015"/><line x1="833.85" y1="324.5" x2="850.35" y2="324.5" class="tick" transform="rotate(213.60000000000002,582.5,324.5)"/><text x="311.9" y="324.5" text-anchor="end" style="font-color:black;font-weight:normal" transform="rotate(33.599999999999994,582.5,324.5)">2 more</text><path class="line" d=" M 432.01781694147627,217.55787892938417 A 184.61176743951427,184.61176743951427 0 0 0 425.5998078137666,227.21775923086312"/><line x1="390.1871268039596" y1="150.12133501175177" x2="462.40828079250446" y2="215.60747853993473"/><path class="line" d=" M 462.40828079250446,215.60747853993473 A 162.1098462529119,162.1098462529119 0 0 0 450.3597583579691,230.59281821432177"/><text x="371.64507687354404" y="324.5" text-anchor="end" style="font-color:black;font-weight:normal" transform="rotate(38.800000000000004,582.5,324.5)">f__Pseudomonadaceae&#160;&#160;&#160;2%</text><line x1="404.79157130091244" y1="135.25974432140154" x2="471.5281739050245" y2="206.32700788551875"/><path class="line" d=" M 471.5281739050245,206.32700788551875 A 162.1098462529119,162.1098462529119 0 0 0 462.40828079250446,215.60747853993473"/><text x="371.64507687354404" y="324.5" text-anchor="end" style="font-color:black;font-weight:normal" transform="rotate(44.5,582.5,324.5)">f__Burkholderiaceae_A_592522&#160;&#160;&#160;1%</text><line x1="833.85" y1="324.5" x2="850.35" y2="324.5" class="tick" transform="rotate(234.60000000000002,582.5,324.5)"/><text x="311.9" y="324.5" text-anchor="end" style="font-color:black;font-weight:normal" transform="rotate(54.60000000000001,582.5,324.5)">8 more</text><path class="line" d=" M 507.3951509771355,180.8376740220476 A 162.1098462529119,162.1098462529119 0 0 0 471.5281739050245,206.32700788551875"/><path class="line" d=" M 564.1040840349666,190.20653839541257 A 135.5475693398276,135.5475693398276 0 0 0 519.7013485547233,204.37725889495357"/><text x="582.5" y="170.35883682101337" text-anchor="middle" style="font-color:black;font-weight:normal" transform="rotate(342.3,582.5,324.5)">c__Alphapr...eobacteria</text><line x1="486.09290989115914" y1="83.46507934171478" x2="522.2976172756748" y2="173.9833053563273"/><path class="line" d=" M 522.2976172756748,173.9833053563273 A 162.1098462529119,162.1098462529119 0 0 0 507.3951509771355,180.8376740220476"/><text x="371.64507687354404" y="324.5" text-anchor="end" style="font-color:black;font-weight:normal" transform="rotate(65.30000000000001,582.5,324.5)">f__Sphingomonadaceae&#160;&#160;&#160;2%</text><line x1="503.1414988315777" y1="77.3272096441408" x2="532.9437811121938" y2="170.15045052969356"/><path class="line" d=" M 532.9437811121938,170.15045052969356 A 162.1098462529119,162.1098462529119 0 0 0 522.2976172756748,173.9833053563273"/><text x="371.64507687354404" y="324.5" text-anchor="end" style="font-color:black;font-weight:normal" transform="rotate(70.2,582.5,324.5)">f__Rhodobacteraceae&#160;&#160;&#160;1%</text><line x1="519.6970759023262" y1="72.6112294587513" x2="543.2820786991249" y2="167.20550899354072"/><path class="line" d=" M 543.2820786991249,167.20550899354072 A 162.1098462529119,162.1098462529119 0 0 0 532.9437811121938,170.15045052969356"/><text x="371.64507687354404" y="324.5" text-anchor="end" style="font-color:black;font-weight:normal" transform="rotate(74.09999999999997,582.5,324.5)">f__Caulobacteraceae&#160;&#160;&#160;1%</text><line x1="833.85" y1="324.5" x2="850.35" y2="324.5" class="tick" transform="rotate(259.09999999999997,582.5,324.5)"/><text x="311.9" y="324.5" text-anchor="end" style="font-color:black;font-weight:normal" transform="rotate(79.09999999999997,582.5,324.5)">5 more</text><path class="line" d=" M 560.499169418549,163.8900199057698 A 162.1098462529119,162.1098462529119 0 0 0 543.2820786991249,167.20550899354072"/><line x1="782.5252378245949" y1="159.02473226124016" x2="662.4183719110631" y2="258.38577295018274"/><path class="line" d=" M 662.4183719110631,258.38577295018274 A 103.72095828380007,103.72095828380007 0 0 0 568.4234507730794,221.73868456869639"/><text x="582.5" y="198.50041397698067" text-anchor="middle" style="font-color:black;font-weight:normal" transform="rotate(381.3,582.5,324.5)">c__Clost...a_258483</text><line x1="658.3996945460225" y1="76.24328535199598" x2="622.1302739189088" y2="194.87521478109355"/><path class="line" d=" M 622.1302739189088,194.87521478109355 A 135.5475693398276,135.5475693398276 0 0 0 564.1040840349666,190.20653839541257"/><text x="582.5" y="180.98374758624712" text-anchor="middle" style="font-color:black;font-weight:normal" transform="rotate(364.6,582.5,324.5)">f__La...aceae</text><path class="line" d=" M 585.3292069242915,162.4148438618691 A 162.1098462529119,162.1098462529119 0 0 0 560.499169418549,163.8900199057698"/><line x1="587.030644711119" y1="64.93953833740079" x2="585.3292069242915" y2="162.4148438618691"/><text x="582.5" y="151.13919315378692" text-anchor="middle" style="font-color:black;font-weight:normal" transform="rotate(356.6,582.5,324.5)">g...a</text><path class="line" d=" M 569.6221340917491,140.3379375474134 A 184.61176743951427,184.61176743951427 0 0 0 557.4453083038376,141.5962900836849"/><line x1="564.3912194160253" y1="65.53237255254959" x2="569.6221340917491" y2="140.3379375474134"/><text x="360.3941162802429" y="324.5" text-anchor="end" style="font-color:black;font-weight:normal" transform="rotate(84.10000000000002,582.5,324.5)">s__Anaerocolumna sp000702945&#160;&#160;&#160;1%</text><path class="line" d=" M 581.211177197438,139.89273141903405 A 184.61176743951427,184.61176743951427 0 0 0 569.6221340917491,140.3379375474134"/><line x1="580.6876648266492" y1="64.90632626887952" x2="581.211177197438" y2="139.89273141903405"/><text x="360.3941162802429" y="324.5" text-anchor="end" style="font-color:black;font-weight:normal" transform="rotate(87.80000000000004,582.5,324.5)">s__Anaerocolumna xylanovorans&#160;&#160;&#160;1%</text><path class="line" d=" M 585.7219195984597,139.91634982685395 A 184.61176743951427,184.61176743951427 0 0 0 581.211177197438,139.89273141903405"/><path class="line" d=" M 609.5348558899382,164.66033402452004 A 162.1098462529119,162.1098462529119 0 0 0 585.3292069242915,162.4148438618691"/><line x1="625.7931666475001" y1="68.5354287764969" x2="609.5348558899382" y2="164.66033402452004"/><text x="582.5" y="151.13919315378692" text-anchor="middle" style="font-color:black;font-weight:normal" transform="rotate(365.3,582.5,324.5)">g...a</text><path class="line" d=" M 598.5899757111488,140.59073607140954 A 184.61176743951427,184.61176743951427 0 0 0 585.7219195984597,139.91634982685395"/><line x1="605.125630817292" y1="65.88785637538285" x2="598.5899757111488" y2="140.59073607140954"/><text x="804.6058837197571" y="324.5" text-anchor="start" style="font-color:black;font-weight:normal" transform="rotate(273,582.5,324.5)">1%&#160;&#160;&#160;s__Hungatella xylanolytica</text><line x1="833.85" y1="324.5" x2="850.35" y2="324.5" class="tick" transform="rotate(277.3,582.5,324.5)"/><text x="853.1" y="324.5" text-anchor="start" style="font-color:black;font-weight:normal" transform="rotate(277.3,582.5,324.5)">3 more</text><path class="line" d=" M 613.2874730849323,142.47352890805726 A 184.61176743951427,184.61176743951427 0 0 0 598.5899757111488,140.59073607140954"/><line x1="649.6894241086143" y1="73.74565549535782" x2="624.457115608895" y2="167.91391280856223"/><path class="line" d=" M 624.457115608895,167.91391280856223 A 162.1098462529119,162.1098462529119 0 0 0 609.5348558899382,164.66033402452004"/><text x="793.354923126456" y="324.5" text-anchor="start" style="font-color:black;font-weight:normal" transform="rotate(282.3,582.5,324.5)">2%&#160;&#160;&#160;s__Anaerotaenia torta</text><path class="line" d=" M 629.8963321013046,169.4735830399039 A 162.1098462529119,162.1098462529119 0 0 0 624.457115608895,167.91391280856223"/><line x1="735.089051495126" y1="114.47918826026358" x2="662.172862242042" y2="214.83971285786288"/><path class="line" d=" M 662.172862242042,214.83971285786288 A 135.5475693398276,135.5475693398276 0 0 0 622.1302739189088,194.87521478109355"/><text x="582.5" y="170.35883682101337" text-anchor="middle" style="font-color:black;font-weight:normal" transform="rotate(386.5,582.5,324.5)">f__Clostri...eae_222000</text><path class="line" d=" M 648.4360146744435,176.40528631651196 A 162.1098462529119,162.1098462529119 0 0 0 629.8963321013046,169.4735830399039"/><line x1="688.0888325424778" y1="87.34359919598083" x2="648.4360146744435" y2="176.40528631651196"/><text x="793.354923126456" y="324.5" text-anchor="start" style="font-color:black;font-weight:normal" transform="rotate(290.50000000000006,582.5,324.5)">2%&#160;&#160;&#160;g__Clostridium_T</text><line x1="833.85" y1="324.5" x2="850.35" y2="324.5" class="tick" transform="rotate(300.00000000000006,582.5,324.5)"/><text x="853.1" y="324.5" text-anchor="start" style="font-color:black;font-weight:normal" transform="rotate(300.00000000000006,582.5,324.5)">7 more</text><path class="line" d=" M 677.7857768788618,193.35037942588437 A 162.1098462529119,162.1098462529119 0 0 0 648.4360146744435,176.40528631651196"/><path class="line" d=" M 675.976252922611,226.34026439785288 A 135.5475693398276,135.5475693398276 0 0 0 662.172862242042,214.83971285786288"/><line x1="761.52523355378" y1="136.5049847708335" x2="675.976252922611" y2="226.34026439785288"/><text x="582.5" y="180.98374758624712" text-anchor="middle" style="font-color:black;font-weight:normal" transform="rotate(399.8,582.5,324.5)">o__P...ales</text><path class="line" d=" M 690.5514762747124,203.6510003061755 A 162.1098462529119,162.1098462529119 0 0 0 677.7857768788618,193.35037942588437"/><line x1="755.531829276758" y1="130.97443048232904" x2="690.5514762747124" y2="203.6510003061755"/><text x="793.354923126456" y="324.5" text-anchor="start" style="font-color:black;font-weight:normal" transform="rotate(308.9,582.5,324.5)">2%&#160;&#160;&#160;f__Peptostreptococcaceae_256921</text><path class="line" d=" M 694.2941182079927,207.10461088168717 A 162.1098462529119,162.1098462529119 0 0 0 690.5514762747124,203.6510003061755"/><line x1="833.85" y1="324.5" x2="850.35" y2="324.5" class="tick" transform="rotate(317.00000000000006,582.5,324.5)"/><text x="853.1" y="324.5" text-anchor="start" style="font-color:black;font-weight:normal" transform="rotate(317.00000000000006,582.5,324.5)">5 more</text><path class="line" d=" M 686.9411972024067,238.09872755066993 A 135.5475693398276,135.5475693398276 0 0 0 675.976252922611,226.34026439785288"/><path class="line" d=" M 686.1577742784601,328.11980924160576 A 103.72095828380007,103.72095828380007 0 0 0 662.4183719110631,258.38577295018274"/><line x1="841.9418586941573" y1="333.5599093439693" x2="686.1577742784601" y2="328.11980924160576"/><text x="582.5" y="211.23105839939166" text-anchor="middle" style="font-color:black;font-weight:normal" transform="rotate(431.2,582.5,324.5)">p__Bacteroidota</text><path class="line" d=" M 718.0071070052438,327.8117223622698 A 135.5475693398276,135.5475693398276 0 0 0 686.9411972024067,238.09872755066993"/><line x1="842.0225067471952" y1="330.8425934484288" x2="718.0071070052438" y2="327.8117223622698"/><text x="582.5" y="170.35883682101337" text-anchor="middle" style="font-color:black;font-weight:normal" transform="rotate(430.90000000000003,582.5,324.5)">c__Bacteroidia</text><path class="line" d=" M 742.9524726172483,301.3784454857827 A 162.1098462529119,162.1098462529119 0 0 0 707.4077833222158,221.16729502392224"/><line x1="839.4459095436621" y1="287.4735288100491" x2="742.9524726172483" y2="301.3784454857827"/><text x="582.5" y="151.13919315378692" text-anchor="middle" style="font-color:black;font-weight:normal" transform="rotate(426.1,582.5,324.5)">o__B...ales</text><line x1="817.7775015147143" y1="214.78829925211448" x2="749.8150824090309" y2="246.47969574783428"/><path class="line" d=" M 749.8150824090309,246.47969574783428 A 184.61176743951427,184.61176743951427 0 0 0 724.74581158439,206.82403064414757"/><text x="804.6058837197571" y="324.5" text-anchor="start" style="font-color:black;font-weight:normal" transform="rotate(327.70000000000005,582.5,324.5)">4%&#160;&#160;&#160;s__Macellibacteroides fermentans</text><path class="line" d=" M 756.1976617064888,261.9649938447315 A 184.61176743951427,184.61176743951427 0 0 0 749.8150824090309,246.47969574783428"/><line x1="826.7526476205169" y1="236.56363590432233" x2="756.1976617064888" y2="261.9649938447315"/><text x="804.6058837197571" y="324.5" text-anchor="start" style="font-color:black;font-weight:normal" transform="rotate(337.6,582.5,324.5)">1%&#160;&#160;&#160;f__Bacteroidaceae</text><line x1="833.85" y1="324.5" x2="850.35" y2="324.5" class="tick" transform="rotate(346,582.5,324.5)"/><text x="853.1" y="324.5" text-anchor="start" style="font-color:black;font-weight:normal" transform="rotate(346,582.5,324.5)">9 more</text><path class="line" d=" M 765.2243393575077,298.16902046061216 A 184.61176743951427,184.61176743951427 0 0 0 756.1976617064888,261.9649938447315"/><path class="line" d=" M 744.6009576671852,322.8024206869218 A 162.1098462529119,162.1098462529119 0 0 0 742.9524726172483,301.3784454857827"/><line x1="842.085765967287" y1="321.7815248434227" x2="744.6009576671852" y2="322.8024206869218"/><text x="582.5" y="151.13919315378692" text-anchor="middle" style="font-color:black;font-weight:normal" transform="rotate(445.6,582.5,324.5)">o__F...7923</text><line x1="841.5292611686162" y1="307.29529545616003" x2="766.7058926151378" y2="312.2650581120457"/><path class="line" d=" M 766.7058926151378,312.2650581120457 A 184.61176743951427,184.61176743951427 0 0 0 765.2243393575077,298.16902046061216"/><text x="804.6058837197571" y="324.5" text-anchor="start" style="font-color:black;font-weight:normal" transform="rotate(354.00000000000006,582.5,324.5)">1%&#160;&#160;&#160;s__Chryseobacterium takakiae</text><line x1="833.85" y1="324.5" x2="850.35" y2="324.5" class="tick" transform="rotate(357.8,582.5,324.5)"/><text x="853.1" y="324.5" text-anchor="start" style="font-color:black;font-weight:normal" transform="rotate(357.8,582.5,324.5)">2 more</text><path class="line" d=" M 767.1016450591717,322.56678542605493 A 184.61176743951427,184.61176743951427 0 0 0 766.7058926151378,312.2650581120457"/><path class="line" d=" M 744.5614548072346,328.46069664395037 A 162.1098462529119,162.1098462529119 0 0 0 744.6009576671852,322.8024206869218"/><path class="line" d=" M 717.9649974229585,329.23054194920735 A 135.5475693398276,135.5475693398276 0 0 0 718.0071070052438,327.8117223622698"/><line x1="834.3887705412487" y1="387.30292409767367" x2="683.1400025480222" y2="349.5923708414309"/><path class="line" d=" M 683.1400025480222,349.5923708414309 A 103.72095828380007,103.72095828380007 0 0 0 686.1577742784601,328.11980924160576"/><text x="764.1604791419" y="324.5" text-anchor="start" style="font-color:black;font-weight:normal" transform="rotate(368,582.5,324.5)">3%&#160;&#160;&#160;c__Bacilli</text><path class="line" d=" M 677.2538103025032,366.687114388958 A 103.72095828380007,103.72095828380007 0 0 0 683.1400025480222,349.5923708414309"/><line x1="819.6564008040192" y1="430.0888325424778" x2="677.2538103025032" y2="366.687114388958"/><text x="582.5" y="450.49958602301933" text-anchor="middle" style="font-color:black;font-weight:normal" transform="rotate(289.00000000000006,582.5,324.5)">p_...ta</text><path class="line" d=" M 706.899408761847,378.3324312439842 A 135.5475693398276,135.5475693398276 0 0 0 714.021227237534,357.29192491861846"/><line x1="820.7491008275615" y1="427.5995924087891" x2="706.899408761847" y2="378.3324312439842"/><text x="582.5" y="468.0162524137529" text-anchor="middle" style="font-color:black;font-weight:normal" transform="rotate(288.7,582.5,324.5)">c__Anaerolineae</text><line x1="822.1653723625299" y1="424.2630657624851" x2="732.1614663553028" y2="386.79805567209394"/><path class="line" d=" M 732.1614663553028,386.79805567209394 A 162.1098462529119,162.1098462529119 0 0 0 739.7944910064593,363.7179213008751"/><text x="582.5" y="497.8608068462131" text-anchor="middle" style="font-color:black;font-weight:normal" transform="rotate(288.3,582.5,324.5)">f__A...9200</text><path class="line" d=" M 756.8429908376545,385.2126529063163 A 184.61176743951427,184.61176743951427 0 0 0 761.6280089668189,369.16162872897223"/><line x1="827.6601057136501" y1="409.87378149333625" x2="756.8429908376545" y2="385.2126529063163"/><text x="804.6058837197571" y="324.5" text-anchor="start" style="font-color:black;font-weight:normal" transform="rotate(376.6,582.5,324.5)">1%&#160;&#160;&#160;g__T78</text><line x1="833.85" y1="324.5" x2="850.35" y2="324.5" class="tick" transform="rotate(380.90000000000003,582.5,324.5)"/><text x="853.1" y="324.5" text-anchor="start" style="font-color:black;font-weight:normal" transform="rotate(380.90000000000003,582.5,324.5)">3 more</text><path class="line" d=" M 752.9354698994451,395.4454387349648 A 184.61176743951427,184.61176743951427 0 0 0 756.8429908376545,385.2126529063163"/><path class="line" d=" M 731.2770612675289,388.88158349047256 A 162.1098462529119,162.1098462529119 0 0 0 732.1614663553028,386.79805567209394"/><path class="line" d=" M 706.3288662648949,379.63216333036576 A 135.5475693398276,135.5475693398276 0 0 0 706.899408761847,378.3324312439842"/><path class="line" d=" M 670.074501538842,380.0764686493588 A 103.72095828380007,103.72095828380007 0 0 0 677.2538103025032,366.687114388958"/><line x1="801.6875294603232" y1="463.60063597654755" x2="670.074501538842" y2="380.0764686493588"/><text x="582.5" y="437.76894160060834" text-anchor="middle" style="font-color:black;font-weight:normal" transform="rotate(298.20000000000005,582.5,324.5)">p...a</text><line x1="811.286376156072" y1="447.17417856000645" x2="701.958540778209" y2="388.5531075676767"/><path class="line" d=" M 701.958540778209,388.5531075676767 A 135.5475693398276,135.5475693398276 0 0 0 706.3288662648949,379.63216333036576"/><text x="780.0737846699138" y="324.5" text-anchor="start" style="font-color:black;font-weight:normal" transform="rotate(386.09999999999997,582.5,324.5)">1%&#160;&#160;&#160;f__SC72</text><line x1="833.85" y1="324.5" x2="850.35" y2="324.5" class="tick" transform="rotate(390.30000000000007,582.5,324.5)"/><text x="853.1" y="324.5" text-anchor="start" style="font-color:black;font-weight:normal" transform="rotate(390.30000000000007,582.5,324.5)">6 more</text><path class="line" d=" M 696.9465980275372,397.13001964655314 A 135.5475693398276,135.5475693398276 0 0 0 701.958540778209,388.5531075676767"/><path class="line" d=" M 661.9548637282804,391.1705468496411 A 103.72095828380007,103.72095828380007 0 0 0 670.074501538842,380.0764686493588"/><line x1="781.3651374336868" y1="491.3676634746256" x2="661.9548637282804" y2="391.1705468496411"/><text x="582.5" y="450.49958602301933" text-anchor="middle" style="font-color:black;font-weight:normal" transform="rotate(306.2,582.5,324.5)">p_...44</text><line x1="783.6755892676051" y1="488.5748069717953" x2="687.5418418171471" y2="410.17003572776673"/><path class="line" d=" M 687.5418418171471,410.17003572776673 A 135.5475693398276,135.5475693398276 0 0 0 696.9465980275372,397.13001964655314"/><text x="780.0737846699138" y="324.5" text-anchor="start" style="font-color:black;font-weight:normal" transform="rotate(395.8,582.5,324.5)">2%&#160;&#160;&#160;o__Syntrophales</text><path class="line" d=" M 686.3354622710593,411.6282980947682 A 135.5475693398276,135.5475693398276 0 0 0 687.5418418171471,410.17003572776673"/><path class="line" d=" M 654.8106325500995,398.85865522932943 A 103.72095828380007,103.72095828380007 0 0 0 661.9548637282804,391.1705468496411"/><line x1="763.484060701045" y1="510.60999374606524" x2="654.8106325500995" y2="398.85865522932943"/><text x="582.5" y="437.76894160060834" text-anchor="middle" style="font-color:black;font-weight:normal" transform="rotate(312.9,582.5,324.5)">p...a</text><line x1="768.6099937460654" y1="505.4840607010449" x2="679.6754903009618" y2="418.99903512048706"/><path class="line" d=" M 679.6754903009618,418.99903512048706 A 135.5475693398276,135.5475693398276 0 0 0 686.3354622710593,411.6282980947682"/><text x="780.0737846699138" y="324.5" text-anchor="start" style="font-color:black;font-weight:normal" transform="rotate(402.1,582.5,324.5)">1%&#160;&#160;&#160;o__Pirellulales</text><path class="line" d=" M 676.9990351204872,421.6754903009617 A 135.5475693398276,135.5475693398276 0 0 0 679.6754903009618,418.99903512048706"/><line x1="747.9752677387598" y1="524.5252378245949" x2="648.6142270498173" y2="404.41837191106316"/><path class="line" d=" M 648.6142270498173,404.41837191106316 A 103.72095828380007,103.72095828380007 0 0 0 654.8106325500995,398.85865522932943"/><text x="764.1604791419" y="324.5" text-anchor="start" style="font-color:black;font-weight:normal" transform="rotate(408.09999999999997,582.5,324.5)">1%&#160;&#160;&#160;c__Negativicutes</text><line x1="731.4004428767315" y1="537.1518706974223" x2="641.9918976273375" y2="409.4632350137881"/><path class="line" d=" M 641.9918976273375,409.4632350137881 A 103.72095828380007,103.72095828380007 0 0 0 648.6142270498173,404.41837191106316"/><text x="764.1604791419" y="324.5" text-anchor="start" style="font-color:black;font-weight:normal" transform="rotate(412.70000000000005,582.5,324.5)">1%&#160;&#160;&#160;f__Denitrovibrionaceae</text><path class="line" d=" M 635.2982634477708,413.77698787598956 A 103.72095828380007,103.72095828380007 0 0 0 641.9918976273375,409.4632350137881"/><line x1="714.6471515287964" y1="547.9486302102238" x2="635.2982634477708" y2="413.77698787598956"/><text x="764.1604791419" y="324.5" text-anchor="start" style="font-color:black;font-weight:normal" transform="rotate(417.2,582.5,324.5)">1%&#160;&#160;&#160;p__Verrucomicrobiota</text><line x1="697.9272925164072" y1="557.0267729581516" x2="628.6179868717498" y2="417.40408211810126"/><path class="line" d=" M 628.6179868717498,417.40408211810126 A 103.72095828380007,103.72095828380007 0 0 0 635.2982634477708,413.77698787598956"/><text x="764.1604791419" y="324.5" text-anchor="start" style="font-color:black;font-weight:normal" transform="rotate(421.50000000000006,582.5,324.5)">1%&#160;&#160;&#160;f__Syntrophomonadaceae_368540</text><line x1="833.85" y1="324.5" x2="850.35" y2="324.5" class="tick" transform="rotate(435,582.5,324.5)"/><text x="853.1" y="324.5" text-anchor="start" style="font-color:black;font-weight:normal" transform="rotate(435,582.5,324.5)">20 more</text><path class="line" d=" M 589.012692856718,428.0162886654262 A 103.72095828380007,103.72095828380007 0 0 0 628.6179868717498,417.40408211810126"/><path class="line" d=" M 582.5,389.4 A 64.9,64.9 0 0 0 586.5751047174524,389.27193467499484"/><line x1="582.5000000000001" y1="584.1" x2="582.5" y2="389.4"/></svg>